<svg width="100" height="104" viewBox="0 0 100 104" fill="none" xmlns="http://www.w3.org/2000/svg">
<g filter="url(#filter0_d_220_2480)">
<rect width="100" height="100" rx="50" fill="#8B69AD" shape-rendering="crispEdges"/>
<rect x="1.5" y="1.5" width="97" height="97" rx="48.5" stroke="black" stroke-width="3" shape-rendering="crispEdges"/>
<path d="M75.6082 64.5591C73.7199 66.4572 70.6484 66.4589 68.7581 64.5629L54.2489 50.0106C51.9044 47.659 48.0956 47.659 45.7511 50.0106L31.2419 64.5628C29.3516 66.4589 26.2801 66.4572 24.3918 64.5591C22.5157 62.6734 22.5157 59.6262 24.3918 57.7405L45.7464 36.2755C48.0921 33.9178 51.9079 33.9178 54.2536 36.2755L75.6082 57.7405C77.4843 59.6262 77.4843 62.6734 75.6082 64.5591Z" fill="white"/>
</g>
<defs>
<filter id="filter0_d_220_2480" x="0" y="0" width="100" height="104" filterUnits="userSpaceOnUse" color-interpolation-filters="sRGB">
<feFlood flood-opacity="0" result="BackgroundImageFix"/>
<feColorMatrix in="SourceAlpha" type="matrix" values="0 0 0 0 0 0 0 0 0 0 0 0 0 0 0 0 0 0 127 0" result="hardAlpha"/>
<feOffset dy="4"/>
<feComposite in2="hardAlpha" operator="out"/>
<feColorMatrix type="matrix" values="0 0 0 0 0 0 0 0 0 0 0 0 0 0 0 0 0 0 1 0"/>
<feBlend mode="normal" in2="BackgroundImageFix" result="effect1_dropShadow_220_2480"/>
<feBlend mode="normal" in="SourceGraphic" in2="effect1_dropShadow_220_2480" result="shape"/>
</filter>
</defs>
</svg>
