<?xml version="1.0" encoding="UTF-8"?>
<svg id="fleche4" xmlns="http://www.w3.org/2000/svg" viewBox="0 0 115 320">
  <defs>
    <style>
      .cls-1 {
        fill: #fece30;
      }

      .cls-1, .cls-2 {
        stroke: #000;
        stroke-miterlimit: 10;
        stroke-width: 2px;
      }

      .cls-3 {
        fill: #472a72;
      }

      .cls-2 {
        fill: #000dff;
      }
    </style>
  </defs>
  <g>
    <polygon class="cls-3" points="33.26309 316.34899 33.16934 182.87878 33.16202 159.50036 21.9877 159.48718 2.41592 136.99694 43.93594 5.78161 67.95694 3.71374 68.8085 6.11315 64.82071 28.11559 94.01748 129.21862 94.81192 157.6986 93.0253 159.78796 84.24942 159.85241 77.94864 160.37878 77.98672 154.73571 73.1542 152.22106 58.8583 316.34899 33.26309 316.34899"/>
    <path d="M67.26921,4.7766l.18559.52112.3219.90039-3.8979,21.50842-.08359.46118.13004.45032,29.09601,100.75549.78008,27.96777-1.23982,1.45007-8.3194.06116-.0764.00061-.0761.00635-5.13368.43066.02664-3.93567.00827-1.22302-1.08492-.5647-2.96227-1.54163-2.65596-1.3822-.25981,2.98279-14.08664,161.72351h-23.67908l-.09283-132.47058-.00668-22.37976-.00058-1.99695-1.99701-.00244-9.72169-.01184-18.90477-21.72375L44.68753,6.72057l22.58168-1.94397M68.64471,2.65075l-25.46069,2.19189L1.29326,137.23046l20.23831,23.2561,10.63109.01294.00668,22.37976.09422,134.46997h27.51105l14.24573-163.54993,2.96228,1.54163-.04146,6.12524,7.31564-.61365,9.23186-.06787,2.33336-2.72913-.80862-28.99231-29.16664-101,3.99327-22.03479-.502-1.40405-.20387-.57251-.48944-1.40112h0Z"/>
  </g>
  <polygon class="cls-1" points="68.66981 5.76823 25.90086 135.36021 46.79009 158.69628 56.2832 137.9609 57.29009 316.33509 68.66821 316.33509 84.59299 316.33509 84.00906 137.9609 93.72994 158.94166 113.70676 135.52961 68.66981 5.76823"/>
  <line class="cls-2" x1="29.87375" y1="159.49665" x2="47.0682" y2="159.49665"/>
  <line class="cls-2" x1="2.31074" y1="137.00418" x2="25.90086" y2="135.36021"/>
</svg>