<?xml version="1.0" encoding="UTF-8"?>
<svg id="fleche2" xmlns="http://www.w3.org/2000/svg" viewBox="0 0 115 320">
  <defs>
    <style>
      .cls-1 {
        fill: #fece30;
      }

      .cls-1, .cls-2 {
        stroke: #000;
        stroke-miterlimit: 10;
        stroke-width: 2px;
      }

      .cls-3 {
        fill: #472a72;
      }

      .cls-2 {
        fill: #000dff;
      }
    </style>
  </defs>
  <g>
    <polygon class="cls-3" points="38.56875 317.08093 38.7294 152.34411 34.30655 161.38659 26.03116 161.17614 3.74307 136.411 54.40127 8.98376 60.82754 3.77721 64.69473 27.0863 93.82022 127.94323 89.77285 159.39587 87.79922 161.40173 77.49942 161.12878 77.50674 153.37927 73.02774 151.04821 52.70987 317.08093 38.56875 317.08093"/>
    <path d="M60.12186,5.63598l3.5769,21.5564.01909.11523.03241.11218,29.05154,100.60144-3.97813,30.91345-1.43227,1.45605-8.89088-.23608.0058-6.16699.00114-1.21509-1.07787-.56091-2.66095-1.38477-2.55818-1.33118-.35027,2.86243-20.03498,163.7229h-12.25566l.15533-159.40564.00845-8.66052-3.80509,7.77979-2.23801,4.57593-7.20376-.18335-21.58466-23.98364L55.23395,9.59618l4.88792-3.96021M61.53244,1.91906l-7.96381,6.45227L2.58458,136.61852l22.99086,25.54614,9.34732.23792,2.80209-5.72913-.15727,161.40759h16.02777l20.25-165.47998,2.66095,1.38477-.00764,8.11646,11.70882.31079,2.51391-2.55566,4.117-31.99243-29.16663-101L61.53244,1.91906h0Z"/>
  </g>
  <polygon class="cls-1" points="61.53347 4.69422 10.65152 136.41644 34.59597 160.72199 45.54043 138.72199 45.54043 317.08313 61.53347 317.08313 77.52652 317.08313 77.52652 138.72199 88.47097 160.72199 112.41543 136.41644 61.53347 4.69422"/>
  <line class="cls-2" x1="3.57967" y1="136.14631" x2="11.22959" y2="136.29092"/>
</svg>