<?xml version="1.0" encoding="UTF-8"?>
<svg id="fleche16" xmlns="http://www.w3.org/2000/svg" viewBox="0 0 115 320">
  <defs>
    <style>
      .cls-1 {
        fill: #fece30;
      }

      .cls-1, .cls-2 {
        stroke: #000;
        stroke-miterlimit: 10;
        stroke-width: 2px;
      }

      .cls-3 {
        fill: #472a72;
      }

      .cls-2 {
        fill: #000dff;
      }
    </style>
  </defs>
  <g>
    <polygon class="cls-3" points="56.14241 316.34899 41.84554 152.22106 37.01351 154.73571 37.05159 160.37829 30.82698 159.85583 21.97542 159.78796 20.18831 157.6986 20.98226 129.21862 50.17855 28.11559 46.19124 6.11315 47.04378 3.71374 71.06429 5.78161 112.58382 136.99694 93.01253 159.48718 81.83773 159.50036 81.83089 182.87878 81.73714 316.34899 56.14241 316.34899"/>
    <path d="M47.73079,4.7766l22.58167,1.94397,41.14893,130.04346-18.90466,21.72363-9.7218.01184-1.99695.00244-.00061,1.99695-.00671,22.37891-.09277,132.47144h-23.67908l-14.08667-161.72351-.25977-2.98279-2.65601,1.3822-2.96228,1.54163-1.08484.5647.00818,1.22302.02661,3.93567-5.13367-.43066-.07605-.00635-.07642-.00061-8.31934-.06116-1.23975-1.45007.77979-27.96777L51.07479,28.61804l.13-.45032-.0835-.46118-3.89795-21.50842.32263-.90259.18481-.51892M46.3553,2.65075l-.48938,1.40112-.20398.57251-.50195,1.40405,3.99329,22.03479-29.16675,101-.80847,28.99231,2.33325,2.72913,9.23193.06787,7.31555.61365-.04138-6.12524,2.96228-1.54163,14.24573,163.54993h27.51099l.09424-134.46997.00671-22.37976,10.6311-.01294,20.23828-23.2561L71.816,4.84264l-25.46069-2.19189h0Z"/>
  </g>
  <polygon class="cls-1" points="46.33019 5.76823 89.09914 135.36021 68.20991 158.69628 58.7168 137.9609 57.70991 316.33509 46.33179 316.33509 30.40701 316.33509 30.99094 137.9609 21.27006 158.94166 1.29324 135.52961 46.33019 5.76823"/>
  <line class="cls-2" x1="85.12625" y1="159.49665" x2="67.9318" y2="159.49665"/>
  <line class="cls-2" x1="112.68926" y1="137.00418" x2="89.09914" y2="135.36021"/>
</svg>