<?xml version="1.0" encoding="UTF-8"?>
<svg id="fleche5" xmlns="http://www.w3.org/2000/svg" viewBox="0 0 115 320">
  <defs>
    <style>
      .cls-1 {
        fill: #fece30;
      }

      .cls-1, .cls-2 {
        stroke: #000;
        stroke-miterlimit: 10;
        stroke-width: 2px;
      }

      .cls-3 {
        fill: #472a72;
      }

      .cls-2 {
        fill: #000dff;
      }
    </style>
  </defs>
  <g>
    <polygon class="cls-3" points="32.50315 316.52087 31.91477 183.22302 31.9216 160.0487 21.45871 160.0487 3.42453 136.30554 40.90988 6.0946 71.58322 3.54284 73.75412 10.84411 71.73947 30.09948 93.37326 129.77087 98.20383 153.63854 93.83029 159.1488 83.44797 159.35632 77.28635 160.71569 77.32346 155.2318 72.45432 152.69811 62.28733 316.52087 32.50315 316.52087"/>
    <path d="M70.85648,4.60705l1.88196,6.33118-1.97675,18.89771-.03336.31897.06799.31335,21.59369,99.48767,4.74124,23.42529-3.79141,4.7771-9.81308.19629-.19775.00403-.19312.04248-4.84088,1.06799.02448-3.61865.00827-1.22302-1.08493-.5647-2.96225-1.54163-2.72891-1.42017-.19061,3.07043-10.01346,161.34949h-27.84869l-.58417-132.29309.00626-22.17847.00052-2.00061h-10.96643l-17.43066-22.94861L41.68012,7.03393l29.17636-2.42688M72.31043,2.47912l-32.17068,2.67603L2.32492,136.51086l18.63773,24.53784h9.95834l-.00626,22.17859.59296,134.29358h31.71964l10.12991-163.22559,2.96228,1.54163-.04141,6.12524,7.28864-1.60791,10.75436-.21521,4.95493-6.24304-4.92575-24.33679-21.59943-99.51514,2.01816-19.29395-2.45859-8.271h0Z"/>
  </g>
  <polygon class="cls-1" points="72.34227 5.94688 34.68221 135.53885 53.43255 159.04927 62.25841 138.13955 62.252 316.51373 71.67179 316.51373 87.59657 316.51373 86.42509 138.13955 94.59227 158.1951 112.67509 135.53885 72.34227 5.94688"/>
  <line class="cls-2" x1="32.01955" y1="160.03085" x2="53.70339" y2="160.00811"/>
  <line class="cls-2" x1="2.91172" y1="136.27844" x2="34.68221" y2="135.53885"/>
</svg>