<?xml version="1.0" encoding="UTF-8"?>
<svg id="fleche8" xmlns="http://www.w3.org/2000/svg" viewBox="0 0 115 320">
  <defs>
    <style>
      .cls-1 {
        fill: #fece30;
      }

      .cls-1, .cls-2 {
        stroke: #000;
        stroke-miterlimit: 10;
        stroke-width: 2px;
      }

      .cls-3 {
        fill: #472a72;
      }

      .cls-2 {
        fill: #000dff;
      }
    </style>
  </defs>
  <g>
    <polygon class="cls-3" points="32.66239 317.06579 31.74198 183.56823 31.09598 160.70983 25.74393 160.70983 17.5535 135.57555 32.71122 6.78259 78.2659 3.01305 78.90555 10.16345 79.17557 30.09655 93.17753 129.97595 93.15897 148.60046 90.60624 161.70934 80.45829 161.58239 79.96317 161.51403 80.00077 155.97643 77.00467 151.17516 78.50712 317.06579 32.66239 317.06579"/>
    <path d="M77.35819,4.09142l.54462,6.08582.27216,19.87012.00171.12573.01746.12451,13.98352,99.7478-.01855,18.45813-2.37463,12.19531-8.81476-.11023.02917-4.31531.00397-.58032-.30725-.49219-.96222-1.54163-3.76093-6.02551.06439,7.10266,1.46143,161.32922h-43.84265l-.91418-132.54712-.61859-21.86523-.05493-1.94348h-5.59827l-7.89716-24.23535L33.60874,7.71154l43.74945-3.62012M79.17319,1.93444l-47.3595,3.91882-15.27881,129.82336,8.48291,26.03308h5.1059l.61853,21.86523.92712,134.4906h47.84711l-1.47974-163.34741.96222,1.54163-.04138,6.12524,1.42603.19641,11.04498.13818,2.73035-14.02209.01886-18.79065-14.00299-99.88696-.27319-19.94568-.72839-8.13977h0Z"/>
  </g>
  <polygon class="cls-1" points="79.2429 9.33293 64.07623 135.63394 73.2429 158.21727 76.89132 139.80738 78.50652 317.07236 78.50652 317.07236 88.8512 317.08394 87.29845 140.99505 91.52068 158.77283 98.46512 134.60616 79.2429 9.33293"/>
  <line class="cls-2" x1="16.93191" y1="135.59376" x2="63.96876" y2="135.59376"/>
  <line class="cls-2" x1="25.90144" y1="160.69229" x2="73.57489" y2="160.69229"/>
</svg>