<?xml version="1.0" encoding="UTF-8"?>
<svg id="fleche14" xmlns="http://www.w3.org/2000/svg" viewBox="0 0 115 320">
  <defs>
    <style>
      .cls-1 {
        fill: #fece30;
      }

      .cls-1, .cls-2 {
        stroke: #000;
        stroke-miterlimit: 10;
        stroke-width: 2px;
      }

      .cls-3 {
        fill: #472a72;
      }

      .cls-2 {
        fill: #000dff;
      }
    </style>
  </defs>
  <g>
    <polygon class="cls-3" points="43.94222 317.08093 44.80062 153.05456 39.82601 155.64343 39.86214 161.09802 33.88851 159.63805 20.60433 159.68493 18.2137 155.80846 45.42855 30.42175 39.15609 8.61413 40.4139 2.97399 77.02425 5.42516 108.97933 135.54772 92.57015 159.90514 85.09749 159.92321 85.23421 183.64489 84.70296 317.08093 43.94222 317.08093"/>
    <path d="M41.20333,4.02929l35.02429,2.34509,31.67505,128.98169-15.86475,23.55029-5.93982.01428-2.00671.00488.0116,2.00671.13147,22.69885-.52759,132.44995h-38.75867l.84363-161.36353.01746-3.31482-2.94055,1.53015-2.96228,1.5415-1.08508.56458.0083,1.22314.02417,3.55994-4.60913-1.12659-.23755-.05798-.24438.00085-12.60144.04468-1.88501-3.05652,5.47705-25.23145L46.35286,30.88l.10693-.49255-.1394-.4845-6.13269-21.32007,1.01562-4.55359M39.62484,1.91906l-1.50024,6.72632,6.2738,21.81042-21.59949,99.51501-5.64807,26.01929,2.89673,4.69678,13.72229-.04858,7.10132,1.7356-.0415-6.12537,2.96228-1.5415-.85425,163.37402h42.76123l.53552-134.44202-.13147-22.71838,7.00085-.01685,16.95227-25.16467L77.821,4.47656,39.62484,1.91906h0Z"/>
  </g>
  <polygon class="cls-1" points="39.55361 5.99699 70.33272 135.69895 54.32404 158.69203 47.52612 138.89445 45.91092 317.0456 41.49113 317.0456 25.56635 317.0456 26.73782 137.27283 19.77717 158.36562 4.94383 135.1434 39.55361 5.99699"/>
  <line class="cls-2" x1="54.02745" y1="159.87894" x2="93.1038" y2="159.87894"/>
  <line class="cls-2" x1="70.04951" y1="135.73915" x2="109.12586" y2="135.73915"/>
</svg>