<?xml version="1.0" encoding="UTF-8"?>
<svg id="fleche18" xmlns="http://www.w3.org/2000/svg" viewBox="0 0 115 320">
  <defs>
    <style>
      .cls-1 {
        fill: #fece30;
      }

      .cls-1, .cls-2 {
        stroke: #000;
        stroke-miterlimit: 10;
        stroke-width: 2px;
      }

      .cls-3 {
        fill: #472a72;
      }

      .cls-2 {
        fill: #000dff;
      }
    </style>
  </defs>
  <g>
    <polygon class="cls-3" points="62.28987 317.08093 41.97249 151.04821 37.493 153.37927 37.50081 161.12878 27.20101 161.40173 25.22737 159.39587 21.1805 127.94323 50.30452 27.0863 54.17269 3.77721 60.59847 8.98376 111.25765 136.411 88.96956 161.17614 80.69319 161.38659 76.27132 152.34313 76.43148 317.08093 62.28987 317.08093"/>
    <path d="M54.87825,5.63598l4.88794,3.96021,50.33203,126.60742-21.58447,23.98364-7.20386.18335-2.23804-4.57581-3.80518-7.78015.00854,8.66077.15527,159.40564h-12.25562l-20.03516-163.7229-.3501-2.86255-2.55835,1.3313-2.66089,1.38477-1.07788.56104.00122,1.21497.00586,6.16699-8.89087.23608-1.43237-1.45605-3.97803-30.91345L51.24959,27.41979l.03247-.11218.01904-.11523,3.57715-21.5564M53.46761,1.91906l-4.1394,24.94592-29.1665,101,4.11694,31.99243,2.51392,2.55566,11.70874-.31079-.00757-8.11646,2.66089-1.38477,20.25,165.47998h16.02783l-.15723-161.40759,2.802,5.72913,9.34741-.23792,22.99072-25.54614L61.43148,8.37133l-7.96387-6.45227h0Z"/>
  </g>
  <polygon class="cls-1" points="53.46653 4.69422 104.34848 136.41644 80.40403 160.72199 69.45957 138.72199 69.45957 317.08313 53.46653 317.08313 37.47348 317.08313 37.47348 138.72199 26.52903 160.72199 2.58457 136.41644 53.46653 4.69422"/>
  <line class="cls-2" x1="111.42033" y1="136.14631" x2="103.77041" y2="136.29092"/>
</svg>