<?xml version="1.0" encoding="UTF-8"?>
<svg id="fleche13" xmlns="http://www.w3.org/2000/svg" viewBox="0 0 115 320">
  <defs>
    <style>
      .cls-1 {
        fill: none;
      }

      .cls-1, .cls-2 {
        stroke: #000;
        stroke-miterlimit: 10;
        stroke-width: 2px;
      }

      .cls-2 {
        fill: #fece30;
      }

      .cls-3 {
        fill: #472a72;
      }
    </style>
  </defs>
  <g>
    <polygon class="cls-3" points="40.83968 317.08093 41.75667 150.96716 38.77327 155.74792 38.80941 161.10046 35.82503 160.93737 22.6678 160.98229 19.41292 154.3988 22.73519 129.88757 33.1639 29.26403 37.03597 8.81188 38.07112 2.98278 80.14925 6.10095 104.28011 135.37243 91.55257 160.54333 84.1678 160.59948 84.17952 183.42223 83.59163 317.08093 40.83968 317.08093"/>
    <path d="M38.89742,4.04711l40.41028,2.99426,23.92676,128.18188-12.29956,24.32434-5.78149.04382-1.98584.01514.00098,1.98584.01099,21.82043-.58264,132.66821h-40.75183l.89185-161.58057.03906-7.05469-3.7356,5.98474-.96228,1.54163-.30725.49219.00391.58032.0271,3.9989-1.92297-.10486-.05798-.00305-.05798.00012-12.4751.04419-2.84265-5.75,3.28064-24.20801.00427-.03113.0033-.03125,10.41675-100.5094,3.8728-20.47498.87451-4.9281M37.24373,1.91906l-1.19006,6.70679-3.8844,20.53528-10.42529,100.59229-3.36292,24.81433,3.66663,7.41663,13.72229-.04858,4.04626.22058-.0415-6.12524.96228-1.54163-.90308,163.59155h44.75415l.59143-134.65942-.01099-21.8302,7.00085-.0531,13.1554-26.0166L80.99117,5.16064,37.24373,1.91906h0Z"/>
  </g>
  <polygon class="cls-2" points="37.17425 7.04499 60.8434 135.52169 48.09184 158.90016 43.13786 139.17932 41.48067 317.08094 39.07282 317.08878 25.1784 317.08875 26.34957 137.55771 21.67517 158.99738 9.67517 134.99738 37.17425 7.04499"/>
  <line class="cls-1" x1="104.32483" y1="135.52169" x2="60.8434" y2="135.52169"/>
  <line class="cls-1" x1="84.78281" y1="160.60937" x2="47.75491" y2="160.60937"/>
</svg>