<?xml version="1.0" encoding="UTF-8"?>
<svg id="fleche6" xmlns="http://www.w3.org/2000/svg" viewBox="0 0 115 320">
  <defs>
    <style>
      .cls-1 {
        fill: #fece30;
      }

      .cls-1, .cls-2 {
        stroke: #000;
        stroke-miterlimit: 10;
        stroke-width: 2px;
      }

      .cls-3 {
        fill: #472a72;
      }

      .cls-2 {
        fill: #000dff;
      }
    </style>
  </defs>
  <g>
    <polygon class="cls-3" points="30.29739 317.08093 29.76565 183.63513 29.90286 159.92321 22.42922 159.90514 6.02053 135.54772 37.9761 5.42516 74.58596 2.97399 75.84377 8.61413 69.57082 30.42175 96.78616 155.80846 94.39553 159.68493 81.11135 159.63805 75.13772 161.09802 75.17434 155.64343 70.19924 153.05456 71.05715 317.08093 30.29739 317.08093"/>
    <path d="M73.79672,4.02929l1.01562,4.55359-6.13275,21.32007-.13934.4845.10687.49255,21.59955,99.51501,5.47693,25.23145-1.88501,3.05652-12.60132-.04468-.24445-.00085-.23743.05798-4.60919,1.12659.02405-3.55994.0083-1.22314-1.08502-.56458-2.96222-1.5415-2.94055-1.53015.0174,3.31482.84369,161.36353H31.29318l-.52762-132.43042.13141-22.71838.01163-2.00671-2.00677-.00488-5.93973-.01428-15.86481-23.55029L38.77239,6.37438l35.02432-2.34509M75.37521,1.91906l-38.19617,2.5575L4.94384,135.73913l16.95236,25.16467,7.00079.01685-.13141,22.71838.53552,134.44202h42.76123l-.85425-163.37402,2.96222,1.5415-.04144,6.12537,7.10132-1.7356,13.72223.04858,2.89673-4.69678-5.64801-26.01929-21.59949-99.51501,6.2738-21.81042-1.50024-6.72632h0Z"/>
  </g>
  <polygon class="cls-1" points="75.44639 5.99699 44.66728 135.69895 60.67596 158.69203 67.47388 138.89445 69.08908 317.0456 73.50887 317.0456 89.43365 317.0456 88.26218 137.27283 95.22283 158.36562 110.05617 135.1434 75.44639 5.99699"/>
  <line class="cls-2" x1="60.97255" y1="159.87894" x2="21.8962" y2="159.87894"/>
  <line class="cls-2" x1="44.95049" y1="135.73915" x2="5.87414" y2="135.73915"/>
</svg>