<?xml version="1.0" encoding="UTF-8"?>
<svg id="fleche3" xmlns="http://www.w3.org/2000/svg" viewBox="0 0 115 320">
  <defs>
    <style>
      .cls-1 {
        fill: #fece30;
      }

      .cls-1, .cls-2 {
        stroke: #000;
        stroke-miterlimit: 10;
        stroke-width: 2px;
      }

      .cls-3 {
        fill: #472a72;
      }

      .cls-2 {
        fill: #000dff;
      }
    </style>
  </defs>
  <g>
    <polygon class="cls-3" points="36.67276 316.47448 36.39785 181.99157 36.15371 161.25329 24.59317 160.84606 2.0419 136.15221 48.49844 5.89684 63.93643 3.65563 67.90371 27.24157 97.03262 128.1112 94.29971 155.30065 89.52871 160.15563 80.69082 160.13708 80.6708 153.67272 76.24649 151.14147 55.72207 316.47448 36.67276 316.47448"/>
    <path d="M63.11258,4.786l3.79524,22.56494.01904.11304.03178.11011,29.05962,100.62927-2.67822,26.64722-4.22986,4.30444-7.42249-.0155-.01483-4.89148-.0035-1.15588-1.00318-.57397-2.61909-1.49878-2.60791-1.49219-.37019,2.98169-20.23071,162.96533h-17.16746l-.27319-133.50415-.23291-19.77429-.02246-1.90796-1.90691-.06726-10.18702-.35925-21.86288-23.93958L49.23805,6.79992l13.87454-2.01392M64.76055,2.52575l-17.00168,2.4679L.89773,136.38256l23.24041,25.44788,11.02673.38892.23291,19.77429.27714,135.48059h20.93045l20.44841-164.71887,2.61909,1.49866.02086,6.88135,10.25341.02136,5.3125-5.40613,2.78719-27.73132-29.16668-101-4.1196-24.49353h0Z"/>
  </g>
  <polygon class="cls-1" points="64.79036 5.42816 18.12557 136.58818 41.96783 160.78998 52.86558 138.88388 52.86558 316.48375 64.79036 316.48375 80.71514 316.48375 80.71514 138.88388 90.26 159.48548 114.10226 135.28368 64.79036 5.42816"/>
  <line class="cls-2" x1="2.05444" y1="136.23346" x2="18.70027" y2="136.48346"/>
  <line class="cls-2" x1="42.27592" y1="161.49592" x2="24.61145" y2="160.82494"/>
</svg>