<?xml version="1.0" encoding="UTF-8"?>
<svg id="fleche17" xmlns="http://www.w3.org/2000/svg" viewBox="0 0 115 320">
  <defs>
    <style>
      .cls-1 {
        fill: #fece30;
      }

      .cls-1, .cls-2 {
        stroke: #000;
        stroke-miterlimit: 10;
        stroke-width: 2px;
      }

      .cls-3 {
        fill: #472a72;
      }

      .cls-2 {
        fill: #000dff;
      }
    </style>
  </defs>
  <g>
    <polygon class="cls-3" points="59.27816 316.47448 38.75374 151.14147 34.32894 153.67272 34.30941 160.13708 25.47054 160.15563 20.70003 155.30065 17.96761 128.1112 47.09651 27.24157 51.06331 3.65563 66.50179 5.89684 112.95882 136.15221 90.40706 160.84606 78.84651 161.25329 78.60237 181.9818 78.32698 316.47448 59.27816 316.47448"/>
    <path d="M51.88741,4.786l13.87463,2.01392,46.05249,129.12183-21.86279,23.93958-10.18701.35925-1.90698.06726-.02246,1.90796-.23303,19.7937-.27295,133.48474h-17.1676l-20.23071-162.96533-.37012-2.98169-2.60791,1.49219-2.61914,1.49878-1.00317.57397-.00354,1.15576-.01489,4.8916-7.42249.0155-4.22986-4.30444-2.6781-26.64722L48.04134,27.57409l.03174-.11011.01904-.11304,3.79529-22.56494M50.23946,2.52575l-4.11963,24.49353-29.16663,101,2.78711,27.73132,5.3125,5.40613,10.25342-.02136.02087-6.88135,2.61914-1.49866,20.44836,164.71887h20.93054l.2771-135.48059.23291-19.77429,11.02673-.38892,23.24036-25.44788L67.24117,4.99365l-17.00171-2.4679h0Z"/>
  </g>
  <polygon class="cls-1" points="50.20964 5.42816 96.87443 136.58818 73.03217 160.78998 62.13442 138.88388 62.13442 316.48375 50.20964 316.48375 34.28486 316.48375 34.28486 138.88388 24.74 159.48548 .89774 135.28368 50.20964 5.42816"/>
  <line class="cls-2" x1="112.94556" y1="136.23346" x2="96.29973" y2="136.48346"/>
  <line class="cls-2" x1="72.72408" y1="161.49592" x2="90.38855" y2="160.82494"/>
</svg>