<?xml version="1.0" encoding="UTF-8"?>
<svg id="fleche12" xmlns="http://www.w3.org/2000/svg" viewBox="0 0 115 320">
  <defs>
    <style>
      .cls-1 {
        fill: #fece30;
      }

      .cls-1, .cls-2 {
        stroke: #000;
        stroke-miterlimit: 10;
        stroke-width: 2px;
      }

      .cls-3 {
        fill: #472a72;
      }

      .cls-2 {
        fill: #000dff;
      }
    </style>
  </defs>
  <g>
    <polygon class="cls-3" points="36.49202 317.06579 37.99593 151.17809 34.99886 155.97595 35.03694 161.51403 34.54183 161.58239 24.39339 161.70934 21.84066 148.60046 21.8221 129.97595 35.82405 30.09655 36.09847 10.08776 36.73421 3.01305 82.2889 6.78259 97.44612 135.57555 89.25667 160.70983 83.90511 160.70983 83.25765 183.54675 82.33773 317.06579 36.49202 317.06579"/>
    <path d="M37.6418,4.09142l43.74939,3.62012,15.03638,127.76282-7.89709,24.23535h-5.59839l-.05493,1.94348-.61938,21.90796-.91345,132.50439h-43.84253l1.46143-161.32922.06433-7.10242-3.76086,6.02527-.96228,1.54163-.30725.49219.00391.58032.02917,4.31531-8.8147.11023-2.37463-12.19531-.01855-18.45813,13.9834-99.7478.01746-.12451.00171-.12573.27234-19.87012.54456-6.08582M35.82686,1.93444l-.72839,8.13977-.27332,19.94568-14.00293,99.88696.01892,18.79065,2.73035,14.02209,11.04492-.13818,1.42603-.19641-.04138-6.12524.96228-1.54163-1.47974,163.34741h47.84705l.92712-134.4906.61853-21.86523h5.10596l8.48291-26.03308L83.18624,5.85326,35.82686,1.93444h0Z"/>
  </g>
  <polygon class="cls-1" points="35.7571 9.33293 50.92377 135.63394 41.7571 158.21727 38.10868 139.80738 36.49348 317.07236 36.49348 317.07236 26.1488 317.08394 27.70155 140.99505 23.47932 158.77283 16.53488 134.60616 35.7571 9.33293"/>
  <line class="cls-2" x1="98.06809" y1="135.59376" x2="51.03124" y2="135.59376"/>
  <line class="cls-2" x1="89.09856" y1="160.69229" x2="41.42511" y2="160.69229"/>
</svg>