<?xml version="1.0" encoding="UTF-8"?>
<svg id="fleche7" xmlns="http://www.w3.org/2000/svg" viewBox="0 0 115 320">
  <defs>
    <style>
      .cls-1 {
        fill: none;
      }

      .cls-1, .cls-2 {
        stroke: #000;
        stroke-miterlimit: 10;
        stroke-width: 2px;
      }

      .cls-2 {
        fill: #fece30;
      }

      .cls-3 {
        fill: #472a72;
      }
    </style>
  </defs>
  <g>
    <polygon class="cls-3" points="31.40742 317.08093 30.82051 183.41735 30.83174 160.59948 23.44795 160.54333 10.71992 135.37243 34.85078 6.10095 76.92988 2.98278 77.96162 8.80065 81.84834 29.34704 92.26142 129.85632 95.58662 154.3988 92.33222 160.98229 79.23359 160.93591 76.19111 161.10046 76.22724 155.74792 73.24336 150.96862 74.16084 317.08093 31.40742 317.08093"/>
    <path d="M76.10273,4.04711l.87848,4.95044,3.86877,20.45264,10.41669,100.5094.0033.03125.00421.03113,3.2807,24.20801-2.84271,5.75-12.47504-.04419-.05798-.00012-.05798.00305-1.92303.10486.02704-3.9989.00391-.58032-.30719-.49219-.96228-1.54163-3.73553-5.98499.039,7.05493.89197,161.58057h-40.75195l-.58258-132.65845.01093-21.8302.00104-1.98584-1.98584-.01514-5.78143-.04382-12.29974-24.32434L35.69233,7.04138l40.4104-2.99426M77.7563,1.91906l-43.74744,3.24158L9.67518,135.52172l13.15546,26.0166,7.00079.0531-.01093,21.8302.59137,134.65942h44.75421l-.90308-163.59155.96222,1.54163-.04144,6.12524,4.04626-.22058,13.72223.04858,3.66669-7.41663-3.36292-24.81433-10.42529-100.59229-3.8844-20.53528-1.19006-6.70679h0Z"/>
  </g>
  <polygon class="cls-2" points="77.82575 7.04499 54.1566 135.52169 66.90816 158.90016 71.86214 139.17932 73.51933 317.08094 75.92718 317.08878 89.8216 317.08875 88.65043 137.55771 93.32483 158.99738 105.32483 134.99738 77.82575 7.04499"/>
  <line class="cls-1" x1="10.67517" y1="135.52169" x2="54.1566" y2="135.52169"/>
  <line class="cls-1" x1="30.21719" y1="160.60937" x2="67.24509" y2="160.60937"/>
</svg>