<?xml version="1.0" encoding="UTF-8"?>
<svg id="fleche11" xmlns="http://www.w3.org/2000/svg" viewBox="0 0 115 320">
  <defs>
    <style>
      .cls-1 {
        fill: #fece30;
      }

      .cls-1, .cls-2 {
        stroke: #000;
        stroke-miterlimit: 10;
        stroke-width: 2px;
      }

      .cls-3 {
        fill: #472a72;
      }

      .cls-2 {
        fill: #000dff;
      }
    </style>
  </defs>
  <g>
    <polygon class="cls-3" points="31.15023 317.07311 33.40706 158.44616 32.71077 152.87731 30.72054 152.93737 30.39925 157.96716 28.95198 161.00085 26.41194 160.94909 25.36898 142.95788 24.40316 131.47106 35.5848 26.31481 35.48909 6.31725 35.81331 2.93005 82.01058 3.09411 90.59359 132.23669 83.55941 160.79675 83.01741 179.79089 81.59163 317.07311 31.15023 317.07311"/>
    <path d="M36.72188,3.93322l44.35181.15759,8.5116,128.05701-6.97156,28.30591-.05115.20764-.0061.21362-.53918,18.92346-1.41541,136.27478h-48.43799l2.24194-157.54333.00195-.13892-.01721-.13782-.68799-5.5-3.98047.12085-.30872,4.83716-1.08582,2.27649-.97168-.01978-.98828-17.06812-.00159-.02612-.0022-.026-.9563-11.36584,11.16577-105.00623.01172-.11011-.00061-.11084-.09497-19.89185.23242-2.42957M34.90474,1.92675l-.41577,4.34509.09558,19.99231-11.18591,105.19568.97229,11.55554,1.09534,18.91467,4.11108.08337,1.80737-3.78967.33337-5.22229.68799,5.5-2.27087,159.57178h52.44604l1.43591-138.25403.53845-18.88721,7.04578-28.60718L82.94564,2.09741l-48.04089-.17065h0Z"/>
  </g>
  <polygon class="cls-1" points="35.38011 1.97898 41.02419 132.89303 38.44086 155.68862 35.12142 139.9833 32.60611 313.74577 32.60627 317.0811 27.21184 317.07217 28.87142 142.14997 25.89919 155.41386 23.78808 131.39997 35.38011 1.97898"/>
  <line class="cls-2" x1="91.19282" y1="132.2918" x2="41.02419" y2="132.2918"/>
  <line class="cls-2" x1="84.39552" y1="160.93204" x2="38.74143" y2="160.93204"/>
</svg>