<?xml version="1.0" encoding="UTF-8"?>
<svg id="fleche15" xmlns="http://www.w3.org/2000/svg" viewBox="0 0 115 320">
  <defs>
    <style>
      .cls-1 {
        fill: #fece30;
      }

      .cls-1, .cls-2 {
        stroke: #000;
        stroke-miterlimit: 10;
        stroke-width: 2px;
      }

      .cls-3 {
        fill: #472a72;
      }

      .cls-2 {
        fill: #000dff;
      }
    </style>
  </defs>
  <g>
    <polygon class="cls-3" points="52.71175 316.52087 42.54476 152.69811 37.67659 155.2318 37.71273 160.71569 31.55257 159.35632 21.16878 159.1488 16.79671 153.63854 21.62972 129.7572 43.26058 30.09948 41.24691 10.84411 43.41683 3.54284 74.08968 6.0946 111.57503 136.30554 93.54085 160.0487 83.07894 160.0487 83.0848 183.2279 82.49691 316.52087 52.71175 316.52087"/>
    <path d="M44.14351,4.60705l29.17639,2.42688,37.15576,129.06616-17.43079,22.94861h-10.96643l.00061,2.00061.0061,22.16919-.58411,132.30237h-27.84863l-10.01343-161.34949-.19067-3.07043-2.72888,1.42017-2.96228,1.54163-1.08484.5647.00818,1.22302.02454,3.61865-4.84082-1.06799-.19312-.04248-.19775-.00403-9.81323-.19629-3.79138-4.7771,4.73535-23.39783L44.20357,30.46825l.06799-.31335-.03333-.31897-1.97681-18.89771,1.88208-6.33118M42.68953,2.47912l-2.45862,8.271,2.01819,19.29395-21.59949,99.51514-4.92566,24.33679,4.95496,6.24304,10.75439.21521,7.28857,1.60791-.04138-6.12524,2.96228-1.54163,10.12988,163.22559h31.7196l.5929-134.29358-.0061-22.17859h9.95825l18.63782-24.53784L74.86031,5.15514l-32.17078-2.67603h0Z"/>
  </g>
  <polygon class="cls-1" points="42.65773 5.94688 80.31779 135.53885 61.56745 159.04927 52.74159 138.13955 52.748 316.51373 43.32821 316.51373 27.40343 316.51373 28.57491 138.13955 20.40773 158.1951 2.32491 135.53885 42.65773 5.94688"/>
  <line class="cls-2" x1="82.98045" y1="160.03085" x2="61.29661" y2="160.00811"/>
  <line class="cls-2" x1="112.08828" y1="136.27844" x2="80.31779" y2="135.53885"/>
</svg>