<?xml version="1.0" encoding="UTF-8"?>
<svg id="fleche9" xmlns="http://www.w3.org/2000/svg" viewBox="0 0 115 320">
  <defs>
    <style>
      .cls-1 {
        fill: #fece30;
      }

      .cls-1, .cls-2 {
        stroke: #000;
        stroke-miterlimit: 10;
        stroke-width: 2px;
      }

      .cls-3 {
        fill: #472a72;
      }

      .cls-2 {
        fill: #000dff;
      }
    </style>
  </defs>
  <g>
    <polygon class="cls-3" points="33.40835 317.07311 31.98306 179.80895 31.44107 160.79675 24.40689 132.23669 32.99038 3.09411 79.18667 2.93005 79.51089 6.31725 79.41568 26.31481 90.59683 131.47057 89.63247 142.93151 88.58902 160.94909 86.04751 161.00085 84.60122 157.96716 84.27993 152.93737 82.2897 152.87731 81.59292 158.44616 83.85074 317.07311 33.40835 317.07311"/>
    <path d="M78.27816,3.93322l.23242,2.42957-.09509,19.89185-.00055.11084.01172.11011,11.16577,105.00623-.9563,11.36584-.00214.026-.00153.02612-.9884,17.06812-.9718.01978-1.08569-2.27637-.30872-4.83728-3.98053-.12085-.68805,5.5-.01721.13782.00195.13892,2.24213,157.54333h-48.43811l-1.41608-136.31104-.53845-18.88721-.00604-.21362-.05115-.20764-6.9715-28.30591L33.92624,4.09081l44.35193-.15759M80.0953,1.92675l-48.04095.17065-8.6557,130.22742,7.04572,28.60718.53845,18.88721,1.43591,138.25403h52.44611l-2.271-159.57178.68805-5.5.33331,5.22229,1.80743,3.78967,4.11115-.08337,1.09534-18.91467.97223-11.55554-11.18591-105.19568.09558-19.99231-.41571-4.34509h0Z"/>
  </g>
  <polygon class="cls-1" points="79.61989 1.97898 73.97581 132.89303 76.55914 155.68862 79.87858 139.9833 82.39388 313.74577 82.39373 317.0811 87.78816 317.07217 86.12858 142.14997 89.10081 155.41386 91.21192 131.39997 79.61989 1.97898"/>
  <line class="cls-2" x1="23.80718" y1="132.2918" x2="73.97581" y2="132.2918"/>
  <line class="cls-2" x1="30.60448" y1="160.93204" x2="76.25857" y2="160.93204"/>
</svg>