<?xml version="1.0" encoding="UTF-8"?>
<svg id="Calque_1" xmlns="http://www.w3.org/2000/svg" version="1.1" viewBox="0 0 548.4 510.8">
  <!-- Generator: Adobe Illustrator 29.3.1, SVG Export Plug-In . SVG Version: 2.1.0 Build 151)  -->
  <defs>
    <style>
      .st0 {
        fill: #070813;
      }

      .st1 {
        fill: #af7714;
      }

      .st2, .st3 {
        fill: #010101;
      }

      .st4 {
        fill: #fbc587;
      }

      .st5 {
        fill: #d76942;
      }

      .st6 {
        fill: #261f1a;
      }

      .st7 {
        fill: #3f3f3f;
      }

      .st8 {
        fill: #833c8f;
      }

      .st9 {
        fill: #443a32;
      }

      .st10 {
        fill: #fff;
      }

      .st11 {
        fill: #7567ac;
      }

      .st12 {
        fill: #fbb92e;
      }

      .st3 {
        stroke: #010101;
        stroke-miterlimit: 10;
        stroke-width: 2px;
      }

      .st13 {
        fill: #fbb92c;
      }

      .st14 {
        fill: #b07613;
      }

      .st15 {
        fill: #191919;
      }

      .st16 {
        fill: #ab5235;
      }

      .st17 {
        fill: #cf5d34;
      }

      .st18 {
        fill: #070913;
      }
    </style>
  </defs>
  <g id="Calque_2">
    <path class="st18" d="M157.8,370.4s-76,8.9-99.4,33.7c-23.5,24.8-33.3,78.8-33.3,78.8l144.9-.3-12.2-112.2h0Z"/>
    <path class="st14" d="M147.3,383.4s-47.8,3.4-74.7,22.7-38.4,76.8-38.4,76.8h97l16.1-99.5h0Z"/>
    <path class="st18" d="M43.1,482.9c29.1-54,71.1-78.1,71.1-78.1,0,0,15-25.6,36.7-38.5s115.6-65.5,152-57.9c27,0,41.8,2.6,48.5,19.3,5,12.9,5.7,40.7,5.7,40.7.9.7,99.6,11.5,130.3,30.9,30.7,19.4,47.7,82,47.7,82l-491.9,1.5s-29.1,54,0,0h0Z"/>
    <path class="st12" d="M80.1,474s44.4-84.1,74.3-101.6l4.8,2.3s-20.1,39.2-21.4,46.2,4.3-2.3,4.3-2.3l-14.8,33s9.3-7.8,11.4-11.4-7.3,42.2-7.3,42.2h-11.7l4.2-14.2s-46.7,8.7-43.8,5.7h0Z"/>
    <path class="st14" d="M80.6,457.7s-13.6,19.2-11.1,25h-7.4s6.5-19.9,18.5-25h0Z"/>
    <path class="st12" d="M238.3,481.9s81.9-145.1,84.5-158.1c0,0-11.5,40.8-19.4,57,0,0,39.4-35.4,26-59.2,0,0,7.2,2.9,8.7,11.1,1.4,8.2,3,26.6-18.5,92.2,0,0,19.1-42.6,23.9-63.6s-.6-31.5-.6-31.5c0,0,7.2-.8,8.1,20s-25.5,130.8-25.5,130.8c0,0-56.9-14.7-66.1-9s-11.9,10.3-11.9,10.3h-9.2Z"/>
    <path class="st18" d="M100,244.3s-64.6-8-70.1-43.1c-2.5-15.9,62-53.5,62-53.5,0,0-.9-20.7,1.8-22.8s4.3-3,4.3-3c0,0-5.2-20.7,7.8-31.9,0,0-1.8-25.8,3.9-31.4s9.6-10.5,61.3-20.7c51.7-10.2,92.5,6.6,92.5,6.6,0,0,34.4,13.9,39.2,21.4s3.9,35.8,6.4,45.1,3,18.7,3,18.7l6.4,4.6s1.1,26,0,27.3-1.6,2.7-1.6,2.7c0,0,54.9,47.8,55.6,61.4s-61.9,26.7-61.9,26.7l-10.9,14.5,1.1,28.2.5,6.1,6.1,51.1-75.6,130.6h-100.5l8.3-43.1-13.3,13,16.4-33.7-4.6,2.5,19.6-47.4s-12.7-1.5-21.8-13.5-12.3-27.3-18.2-42.3-4.7-17.1-7.4-27.3-10.2-25.4-10.1-46.8h-.2Z"/>
    <path class="st4" d="M104.3,204.2s-2.4,5-2.5,10.7c2.3,5.3,2.2,6.8,2.7,13.3s-3.5,22.5,2.6,37.3c6.1,14.7,6.6,19.7,14.2,34.5,1.4,5.9,9.4,30.1,11.4,33.7s1.2,14.4,8.1,21c6.8,6.5,18.4,15.8,44.2,9.4s50.7-27.8,61.5-36,33.4-20.8,29.6-64c0,0,7.3,6.5,14,3.3s23.7-23.9,24.1-31.9c.5-8.1-.3-25.1-7-31.1-6.7-6.1-2.9,2.7-2.9,2.7,0,0,5.2,10.6,5.2,14.1s.5,7.9-1.1,10.5c0,0-4.4-16.6-11.1-13.1s4.7,20.7,7.4,18.8-4.2,6.2-4.2,6.2c0,0-11.2,11.9-16.4,7-5.2-4.9,8.2-16.9,8.2-16.9l-1.4-18.4s8.4-12.9,7.4-13.2-2.3-1.7-4.7,2-4.1,9-3.6,10.6-3.5-3.8-4.7-3.8.8,6.1,1.7,8.1,1.5,9.3.3,9.7-6.2-1.4-7.4-3.5-1.4.8-.5,3,.3,7.8-.3,9.7-2.3,10.6-3.8,10.2-3-6.1-3.5-13.8c-.5-7.8-7-12.3-7.1-17.2s1.4-24.1-18.5-30.4-94.3-1.6-94.3-1.6l-49.5,18.9h2.1l-.2.2Z"/>
    <path class="st5" d="M307.1,204.5c-6.7-6.1-2.9,2.7-2.9,2.7,0,0,5.2,10.6,5.2,14.1s.5,7.9-1.1,10.5c0,0-4.4-16.6-11.1-13.1s4.7,20.7,7.4,18.8-4.2,6.2-4.2,6.2c0,0-11.2,11.9-16.4,7-5.2-4.9,8.2-16.9,8.2-16.9l-1.4-18.4s8.4-12.9,7.4-13.2-2.3-1.7-4.7,2-4.1,9-3.6,10.6c.5,1.7-3.5-3.8-4.7-3.8s.8,6.1,1.7,8.1,1.5,9.3.3,9.7-6.2-1.4-7.4-3.5c-1.2-2.1-1.4.8-.5,3s.3,7.8-.3,9.7-2.3,10.6-3.8,10.2c-1.5-.5-3-6.1-3.5-13.8s-7-12.3-7.1-17.2,1.4-24.1-18.5-30.4-80.8-5.3-93-3.3-49.4,17.7-49.7,20-2.1,3.3-1.9,7c0,0-.9,3.3,2.2,8.5,2.5,5.3,2.8,6.8,2.8,6.8,0,0,11.2,14,21.2,10.5,10-3.5,16.4-19.9,19.6-20.5,3.2-.6,12.3-4.7,12.3,2s-4.4,6.7-5,15.3c-.6,8.7-4.7,19.3-1.5,19.6s8.8-2.7,11.5-11.9c2.7-9.1,0-12.7,5.2-14.3s14.4.5,19.8-1.3,5.3-5.9,10.2-6.5,8.8-1.1,8.5,3-3.5,9.6,6.5,6.8,14.6-4.2,22.2-1.5c7.6,2.7,16.9,7.9,17.2,9s-2,1.8-5.6,6.7-12.8,19.9-14.6,29.9-12.3,46.2-1.5,41.2c4.8-2.2,21.4-7.5,39.2-13.6,3.8-8.9,5.9-20.5,4.5-36.2,0,0,7.3,6.5,14,3.3s23.7-23.9,24.1-31.9c.5-8.1-.3-25.1-7-31.1h0l-.2.2Z"/>
    <path class="st14" d="M168.5,436.7v7.1s8.6,18,73.6,2.9c0,0,10.3-12.1,10.1-14.1s-2.8-.3-6.2,1.4c-3.4,1.7-40.9,21.3-77.5,2.7h0Z"/>
    <path class="st17" d="M178.5,414.1s-5,9.5-2.3,16.4,61.5,9.3,82.7-13.3c21.2-22.7,39.3-60.6,39.3-60.6l-3.6-88s-4.1,3.4-9.1,4c0,0-10.2,72.4-21.6,90.4,0,0,5.6-32.2,6.6-42.7,0,0-13.3,42.4-33.9,58.6s-59.7,4.4-59.7,4.4l15,51s-9.2-9.5-11.2-14.5-1-7-2.3-5.8h.1Z"/>
    <path class="st14" d="M333.8,481.4s38.7-45.2,41.9-94.2c0,0,36.9,6.6,51.5,17.8,28.3,26.7-10.2,76.4-10.2,76.4h-83.2Z"/>
    <path class="st16" d="M298.2,356.6s-29.5,57.6-45,65.5c-24.5,7.1-64.3-21.9-76.4-38.7,0,0,32.9,7.6,56.2-11.1s33.6-45.2,40.2-58.6c0,0-4.5,32.9-8.7,46.9,5.4-6.3,13.3-45,20.9-88,0,0,5.4-.9,9.1-4l3.6,88h.1Z"/>
    <path class="st12" d="M76.3,232s-39.4-11.6-39.4-31.7,47.4-24.6,47.4-24.6c0,0,103-25.4,263.4,31.7,0,0-83.9-42-197.8-40.1,0,0-42.2,1.4-83.8,7.3,0,0,26.4-23,43.1-28.5s115.1-28.2,196.9,17.5c0,0,56.7,49.8,59,57.4s-14.8,17.1-14.8,17.1c0,0,15.2-12.1,13.1-14.5s-39.3-39.3-210.9-49.3c0,0-84.5-1.1-106.4,19.1s30.3,38.5,30.3,38.5h-.1Z"/>
    <path class="st8" d="M100,140.8s-2.2-10.8,1.4-13.4,70.3-43.9,208.1,10.6l2.6,17s-108.9-50.9-212.1-14.3h0Z"/>
    <path class="st12" d="M104.1,117.1s1.4-18.1,6.1-23.4,18.1-15.2,18.1-15.2c0,0-3.5-.9-5.5,0s-10.5,8.2-10.5,8.2c0,0-.2-9.7,1.2-13.2s.3-9.1,2.7-11.2,14.2-10.2,35.9-13.2,20.5-6.2,47.5-6.4,50.1,2.3,74.1,14.1c24,11.8,23.4,15.5,23.4,15.5,0,0,3.2,20.8,4.4,29.6,1.2,8.8.9,22.5.9,22.5,0,0-55.1-15.9-65.9-20.5s-61.5-19.9-58.5-15.7c0,0,24.3,5.3,42.2,16.7,0,0-76.9-7.8-116.2,12.2h.1Z"/>
    <path class="st18" d="M171.5,64c2.2-3.5,11.6-.5,29.5-6.8s30.4-6.7,44.2-4.9c13.8,1.8,26.4,9.6,26.6,10s10.1,2.1,13.1,3.8-12.6,2.9-20.4-2.6-24.3-6.5-30.4-5.4-7.7,4.8-19.7,5.3-45.1,4-42.9.5h0Z"/>
    <path class="st1" d="M74.8,191.7c2.8.8-4.9-2-11.8.4s-14.1,5.9-14.7,9.7c-1.1,7.7,15.4,21.8,51.1,33.1,0,0,1.2-8.9,0-9.4s-34.5-7.4-42.5-19.9c0,0,36.8,20.5,42.5,16.5l-2.6-8.5s-17.4-2.2-30.9-14.4c0,0,24.2,13.5,30.5,11.4,0,0,0-6.5.8-7.9,0,0-11-2.2-14.7-6.3,0,0,12.2,4.8,15.3,3.8l.3-2.1s-26.1-7.3-23.3-6.5h0Z"/>
    <path class="st18" d="M71.3,167.7s63.9-22.1,169.8-1.3c0,0-81.4-17.4-172.4,4.1,0,0,2.6-2.8,2.6-2.8Z"/>
    <path class="st18" d="M82.3,158.7s43.7-14.8,117.6-6.3c0,0-56.8-7.4-119.3,7.9l1.7-1.7h0Z"/>
    <polygon class="st18" points="142.4 291.1 123.1 307.4 148.1 354.6 201.2 352.8 204.9 301.7 163.3 288.5 142.4 291.1"/>
    <path class="st18" d="M279.8,231.7s.4,3.9-.6,9.7-1.1,23.4-1.1,26.8-8.6,3.5-8.3-1.5c.3-5,7.5-35.1,10-35h0Z"/>
    <path class="st18" d="M108.5,269.9s8.5,20.9,16.9,17.9c5.4-3.5,10.8-11,15.4-8.7s11.2.8,16.7-2.8,33,3,42.8,9,5.5,14.1,15.3,11.5,45.8-41.5,51.3-55c5.5-13.5,5.8-16.4,5.8-16.4l3.9,9.6s-6,30.9-9.7,38c-60,56.6-71,11.6-111.1,12.5-40.1.9-33.4,22.8-33.4,22.8,0,0-18.6-39.9-14.9-38.8l1,.3h0Z"/>
    <path class="st4" d="M137.9,261.6s-5.8,4.4-4.6,9.1,4.8,11,10.5,11.4,10,2.4,12.2-1.5-3-6,1.5-5.2,16.1,3.5,18,2.7,4.7-2.5,3.6-5.2-37.6-15-41.1-11.2h-.1Z"/>
    <path class="st6" d="M273.1,232.8c.9,11.1-39.1,64.3-62.6,68.1-5.5.4-2.9-7.6-11.1-13.2-8.2-5.6-35.6-9.7-42.1-5.9s-12.8,0-17.4,0-8,5.9-13.8,8.7-10.6-4.7-12.8-6.4c.4,21.5,9.7,37.9,16.3,56.5s13.2,26,37.2,31.5,44.4-2.1,59.9-12.9,31-22.5,40.6-44.6c9.6-22.1,10-37.7,9.3-48.3,0,0-.6-16.9.1-21.5s-2.9-13.3-3.6-11.9h0ZM198.8,306.4c-.2,1.4-3.1,11.5-8.9,22.6s-9.7,21-23.2,16.2c-12-6.3,10.2-12.9,8.7-23-.3-1.5-31.8-.2-30.7,2.3,2.1,10.7,11.8,9.1,8.6,18.5-8.5,10.8-13.4-13.1-14.6-17.2-1.2-4.1-4.4-10-7.5-12.4s-4.9-4.4-3.5-5.5c1.5-4,10-11.6,20.7-12.5,5.9-.3,5.8.8,7.2,1.4,0,0,3.4-2.6,10.4-2.9s12,1.1,16.3,3.8c4.3,2.7,17,6.4,17,6.4,0,0-.3,1.9-.3,2.1l-.2.2Z"/>
    <path class="st4" d="M131.5,307.4s8.8-8,14.7-8.5,4.8,1.2,8.6,1.4,4-1.7,9-2.3c4.9-.6,10.9.3,14.4,1.9,3.6,1.7,13.8,5.4,15.8,5.7s.7,2.4.7,2.4c0,0-7.6,25.5-14.4,31.2s-11.5,5.6-12.9,2.3,3.1-2.8,7.7-10c2.2-3.7,4-9.7,3.7-11.2s-35.9.5-35.9.5c0,0-1,2.8,0,6s1.4,5.8,3.8,8.2,6.2,4.9,2.7,6c-3.6,1.1-5.6-8.4-6.4-11.3s-2.5-13-7-17.1-4.4-5.4-4.4-5.4h0v.2Z"/>
    <path class="st18" d="M127.9,307.3s1.3-3.8,7.8-3.8c7.6,2.1,17.1-1.1,20.7-1.1s3.1-.2,10.7.8,12-2.7,17.4-2.7,14.7,3.7,14.7,3.7c0,0-10.1,5.3-14.3,3.9-6.7-.3-13.2-.9-16.8-.7s-10.1,1.5-13.2,1.5-11.4-1.7-14.7-.7-14,2.3-12.3-1h0Z"/>
    <path class="st18" d="M140.5,319.8l39.4-.5s-2.6,3-11.7,5.6-20.5,6.5-27.7-5.1h0Z"/>
    <path class="st9" d="M122.7,297.2s-1.2,8.8.7,14c0,0,0-7.7.7-8s1.4,4.9,2.4,4.8c0,0-1.7-4.8-.5-8.2s1.2-4.9,1.2-4.9c0,0-2.6,3.8-3.3,4.5s-1.2-2.2-1.2-2.2h0Z"/>
    <path class="st9" d="M157.4,330s-1.2,8.8.7,14c0,0,0-7.7.7-8s1.4,4.9,2.4,4.8c0,0-1.7-4.8-.5-8.2s1.2-4.9,1.2-4.9c0,0-2.6,3.8-3.3,4.5s-1.2-2.2-1.2-2.2h0Z"/>
    <path class="st9" d="M131.7,325.4s.4,9.7,3.2,12.6,4.8,4.5,4.8,4.5c0,0-3.6-5.6-3.7-7.4s1.6,1.5,1.8,1.5-1.6-3.4-1.9-5.2-4.2-6-4.2-6h0Z"/>
    <path class="st9" d="M149.2,284.9s-5.4,3.8-4.2,8.2c-1.7-1.1-2,2-2.3-.3s-4.7-3-2.9,2.5c-4.3-.3.8-5.3.8-5.3,0,0-6,1.7-6.3,6.7-1-1.9-1.6-2.9,1.9-7.1-6.2,2-5,8-5,8,0,0-5.3-4.4,2.6-8.8,7.8-4.5,5-4,6.1-3.9s-1.5,3.1-1.1,4.2,3.5-2.2,3.5-2.2c0,0,0,3.1,1.4,4.5s-1.6-5.2,5.4-6.4h.1Z"/>
    <path class="st9" d="M214.6,346.7s8.1-7,9.3-17.1c1.2,2.9,3.3-4,2.2,1.4s3.3,7.9,4.6-4.7c4.4,1.9-4,11.7-4,11.7,0,0,7.4-2.1,10.7-13.2,0,4.6,0,6.8-6.3,15.4,7.8-2.7,10.1-16.5,10.1-16.5,0,0,3,11.2-8,19s-7.7,7.5-8.9,7,3.5-6.5,3.7-9.1-5.1,3.8-5.1,3.8c0,0,2-7,1.1-10.5s-1.4,12.2-9.6,12.8h.2Z"/>
    <path class="st9" d="M144.6,359.8s6.2-7.3,6.4-11c0,0,3,5.1,2.7,7.6s3.8-4.4,3.8-4.4c0,0,2.3,4.3,1.5,6.4,0,0,2.7-2.3,2.5-3.9s1.3,7.6,1.3,7.6c0,0,2.4-1.9,1.4-5s.5-7.3.5-7.3c0,0,.8,5.5,2.2,6.9,1.3,1.5,8.9,3.8,7.4,6.7,0,0-3.9-4.3-6.1-3.5s-5.8,5.5-7.1,5.4-1-5.5-1-5.5c0,0-3.8,3.6-4.2,4s1.6-6.2,1.2-6.7-4.1,5.6-5.6,5.4.6-6.2-.5-6.3-6.4,3.7-6.4,3.7h0Z"/>
    <path class="st9" d="M160.8,289c-1.9.2,10.7-1.1,11.6,3.4,0,0,3.5-.5,2.4-2.1s2.5-1.6,2.5-1.6c0,0,3.1,1.6.8,4.6,1.2-.3,2.2-2,2.7-3.7s4.1,2.3,4.6,3,2.2,3.9,2.2,3.9c0,0,.3-3.7-.1-5.1s7.6,2.3,8.7,7.4c1.1-5-1.2-10.5-4.9-13.2,0,0,5,8.8,1.9,7s-1.4-4.2-6.4-5.8c1.4,1.9,3.4,2.5.6,2.8s-2.2-3.5-5.5-4.1c2.7,2.3,1,2.3,1,2.3,0,0-3-2.5-8-3.2,4.5,1.8,6.1,3.6.8,3.4,1.8-.3-3.2-3-4.7-2.7,2.8,1.8,1.4,2.8,1.4,2.8,0,0-1.5.4-2.7-.3s-.4-2.9-5.1-2.6c2.9,1.5,3.8,2.7,3.8,2.7,0,1.9-3.5-.6-5.1-1.5.8,1.6,2.8,1.4-2.5,2.7h0Z"/>
    <path class="st9" d="M213.6,312.9s5.4,7.5.1,21.8c-5.3,14.3-13.5,25-13.5,25,0,0,9.3-19.7,9.8-25.1s-3.8-7.1-3.8-7.1c0,0-.7,10.4-5.3,13.6,0,0,2.1-3.1,1.5-8.7-.7-5.6-.8-5.8,2.1-11.8s3.6-16.5,3.6-16.5c0,0,.7,10.4-.4,14.6s.9,12.1,3.3,9.3,2.7-15.1,2.7-15.1h-.1Z"/>
    <path class="st9" d="M233.5,290.4s3.2,4.6,1.4,8.7-9.6,5.3-8.7,10.6c.9,5.3,0,10-1.3,11.9s6.7-9.1,5.8-11.7.5-3.2,2.8-4.6,4.7-.8,3.5,1.7-.4,9.5-.4,9.5c0,0,1.1-8.9,3.4-11.2s5.2-9.8,5.1-11.3-3.3,9.2-6.1,9,0-7.2-5.4-12.7h-.1Z"/>
    <path class="st9" d="M247.7,301.3c.9,7.2-1.6,19.3.7,19.1-.4-7.4,3.4-14.4,3.4-14.4,0,0,3.6,11.2,2.7,13.7,1.6,2.9,1.5-22.2,1.5-22.2,0,0,5,6.9,2.8,10.2,2.9,1.6,2-16,2-16,0,0,2.7,4.9,2.7,10.1,1.8,3.8,11.5-42.4,8.4-46.5-3.9,18.8-8.9,34.2-8.9,34.2,0,0-.9-12.2.3-25.6-2-.6-3.1,25-3.1,25,0,0-1.4-5.9-2.3-6.4,1.1,9-.6,13.4-.6,13.4,0,0-1.2-14.1-4.2-14.5,2,12.3-1.2,20-1.2,20,0,0-2.6-4.5-3-12.8-1.6,9,2,15.6.9,16.8s-2.2-4.2-2.2-4.2h.1Z"/>
    <path class="st9" d="M182.2,366.3c5.1-3.3,5-20.6,7.5-20.2s2.4,3.6,1.8,5c2.5,0,3.7-9,3.7-9,0,0-1.8,4.5-3.4,3.5s2-4.6,1.7-7.6c-2.2,4.5-4.1,3.6-4.1,3.6,0,0,2.9-5.6,1.4-9-1.6,8.2-8,19.3-10.1,20.2,2.6,1.4,5-5.5,5.4-4.2.8,2.6-1.8,10.5-4,17.5h0v.2Z"/>
    <path class="st15" d="M255.1,187.7s4.9,4.7,8.3,10.2,2.9,17.4,4,20.5,5.2,10,5.2,10c0,0,4.7,6.4,4.6,1.9s-1-8.4,2.1-8.5,1-10.2,5.2-12.2c2.7-1.5,2.7,3.9,7.3-6.9,2.3-5,6.5-4.6,6.5-4.6,0,0-9.4-3.6-43.2-10.4h0Z"/>
    <path class="st7" d="M264.1,191.8s4,3.5,4.6,9.4,0,14.5,2.4,18.1c0,0-1-9.1.2-12.6s.7-6.2.7-6.2c0,0,2.2,2.4,2.1,7.6s.8,7,.8,7c0,0,.1-7,.9-8.4s.4-6.5-1.1-8,4.4,0,4.2,2.9.5,7,.5,7c0,0,0-4.9,1-6.8s.8-2.9-.7-4.1-8.2-5.4-9.6-5.9c4.1,4.5,6,5,4.1,5.1s-1.1,1.9-1.1,1.9c0,0-1.8-1.6-3.6-4.4,1.2,3.8,1.2,5.9,1.2,5.9,0,0-2.7-6.9-6.5-8.5h-.1Z"/>
    <path class="st18" d="M273.4,116s-3.2,29.8-5.9,30.7,19.8,8.9,23.5,8.2,8.1-34.8,4.7-37-21.7-6.9-22.3-2h0Z"/>
    <path class="st1" d="M277.8,119.2c-.3,1.1-4.1,24.4-5.3,25.9s13.8,5.8,15.5,5.1,6.3-27.6,4.6-29.4-14.1-4.3-14.8-1.6h0Z"/>
    <path class="st5" d="M132.8,309.4s16.2,5.1,22.3,3.8,3.2-1,3.2-1c0,0,2.8,1.2,5.7.9,20.9-1.5,30.9-6.8,30.9-6.8,0,0-16.3.3-24.5.5s-13.4,2.1-13.4,2.1c0,0-8-2-10.6-1.8s-13.7,2.3-13.7,2.3h.1Z"/>
    <g>
      <g>
        <path class="st2" d="M148.4,79.5c-1.3,0-2.4-.3-3.2-.9-.6-.5-1.4-1.4-1.4-3v-1.2c0-.9.2-1.6.6-2.2.4-.6,1-1.1,1.7-1.3.6-.2,1.4-.4,2.2-.4s1.5,0,2.2.4,1.3.7,1.7,1.3c.4.6.6,1.3.6,2.2v1.2c0,1.7-.8,2.6-1.4,3-.8.6-1.9.9-3.2.9h.2Z"/>
        <path class="st2" d="M148.4,71.5c.7,0,1.3,0,1.8.3s1,.5,1.3,1,.5,1,.5,1.6v1.2c0,1-.3,1.7-1,2.2-.6.5-1.5.7-2.6.7s-1.9-.2-2.6-.7c-.6-.5-1-1.2-1-2.2v-1.2c0-.7.1-1.2.5-1.7.3-.4.7-.8,1.3-1,.5-.2,1.1-.3,1.8-.3M148.4,76.6c.3,0,.5,0,.7-.2s.3-.4.3-.6v-1.5c0-.3,0-.5-.3-.6-.2-.2-.4-.2-.7-.2s-.5,0-.7.2c-.2,0-.3.3-.3.6v1.6c0,.3,0,.5.3.6.2,0,.4.2.7.2M148.4,69.5c-.9,0-1.8.2-2.6.4-.9.3-1.6.9-2.2,1.7-.6.8-.8,1.7-.8,2.8v1.2c0,2.1,1,3.2,1.8,3.8,1,.7,2.3,1.1,3.8,1.1s2.8-.4,3.8-1.1c.8-.6,1.8-1.7,1.8-3.8v-1.2c0-1.1-.3-2-.8-2.8s-1.3-1.3-2.2-1.7c-.8-.3-1.6-.4-2.5-.4h-.1Z"/>
      </g>
      <g>
        <path class="st2" d="M156.5,79.5c-1.3,0-2.4-.3-3.2-.9-.6-.5-1.4-1.4-1.4-3v-1.2c0-.9.2-1.6.6-2.2.4-.6,1-1.1,1.7-1.3.6-.2,1.4-.4,2.2-.4s1.5,0,2.2.4,1.3.7,1.7,1.3c.4.6.6,1.3.6,2.2v1.2c0,1.7-.8,2.6-1.4,3-.8.6-1.9.9-3.2.9h.2Z"/>
        <path class="st2" d="M156.5,71.5c.7,0,1.3,0,1.8.3s1,.5,1.3,1,.5,1,.5,1.6v1.2c0,1-.3,1.7-1,2.2-.6.5-1.5.7-2.6.7s-1.9-.2-2.6-.7c-.6-.5-1-1.2-1-2.2v-1.2c0-.7.1-1.2.5-1.7.3-.4.7-.8,1.3-1,.5-.2,1.1-.3,1.8-.3M156.5,76.6c.3,0,.5,0,.7-.2s.3-.4.3-.6v-1.5c0-.3,0-.5-.3-.6-.2-.2-.4-.2-.7-.2s-.5,0-.7.2c-.2,0-.3.3-.3.6v1.6c0,.3,0,.5.3.6.2,0,.4.2.7.2M156.5,69.5c-.9,0-1.8.2-2.6.4-.9.3-1.6.9-2.2,1.7-.6.8-.8,1.7-.8,2.8v1.2c0,2.1,1,3.2,1.8,3.8,1,.7,2.3,1.1,3.8,1.1s2.8-.4,3.8-1.1c.8-.6,1.8-1.7,1.8-3.8v-1.2c0-1.1-.3-2-.8-2.8s-1.3-1.3-2.2-1.7c-.8-.3-1.6-.4-2.5-.4h-.1Z"/>
      </g>
      <g>
        <path class="st2" d="M141.1,88.1c-.4,0-.9-.2-1.1-.5h0s-.1,0-.2.2c-.2.2-.6.4-.9.4h-2c-.3,0-.7,0-.9-.4-.2-.2-.4-.6-.4-.9v-6.3c0-.3.1-.7.4-.9.2-.2.6-.4.9-.4h2c.3,0,.7,0,.9.4h.1c.3-.2.7-.4,1.1-.4h2.3c.3,0,.6,0,.9.4.2.2.4.5.4.8s0,.6-.3.8l-1.8,2.2,2.1,2.7c.2.3.2.5.2.7s-.1.6-.4.9-.5.3-.9.3h-2.5,0Z"/>
        <path class="st2" d="M138.9,80.3h.2v2l1.5-1.9c.1,0,.2-.2.4-.2h2.4v.2c0,.2,0,0,0,0l-2.3,2.8,2.6,3.3h0v.3h-2.6c-.1,0-.3,0-.3-.2l-1.7-2.1v2.2c0,0-.1,0-.2,0h-2.2v-6.7c0,0,.1,0,.2,0h2M138.9,78.3h-2c-.6,0-1.2.2-1.6.7-.4.4-.6,1-.6,1.6v6.3c0,.6.2,1.2.6,1.6.4.4,1,.7,1.6.7h2c.4,0,.8,0,1.1-.3.4.2.8.3,1.2.3h2.5c.6,0,1.1-.2,1.6-.7.4-.4.6-1,.6-1.6s-.1-.9-.4-1.2h-.1c0,0-1.6-2.1-1.6-2.1l1.3-1.6c.3-.4.5-.9.5-1.4s-.2-1.1-.6-1.6c-.4-.4-1-.7-1.6-.7h-2.3c-.4,0-.8,0-1.1.2-.3-.2-.7-.2-1-.2h0Z"/>
      </g>
      <g>
        <path class="st2" d="M145,88.1c-.3,0-.6,0-.9-.4-.2-.2-.4-.6-.4-.9v-6.3c0-.3.1-.7.4-.9.2-.2.6-.4.9-.4h5.9c.3,0,.7,0,.9.4.2.2.4.6.4.9v1.4c0,.3-.1.7-.4.9,0,0-.1,0-.2,0h0v1.4s.2,0,.3.2c.2.2.4.6.4.9v1.4c0,.3-.1.7-.4.9-.2.2-.6.4-.9.4h-6Z"/>
        <path class="st2" d="M150.9,80.3h.2v1.8c0,0-.1,0-.2,0h-3.7v.6h3.4v1.7c0,0-.1,0-.2,0h-3.2v.6h4v1.8c0,0-.1,0-.2,0h-6.2v-6.7c0,0,.1,0,.2,0h5.9M150.9,78.3h-5.9c-.6,0-1.2.2-1.6.7-.4.4-.6,1-.6,1.6v6.3c0,.6.2,1.2.6,1.6.4.4,1,.7,1.6.7h6c.6,0,1.2-.2,1.6-.7.4-.4.6-1,.6-1.6v-1.4c0-.6-.2-1.1-.6-1.6v-.5c.3-.4.5-.9.5-1.4v-1.4c0-.6-.2-1.2-.6-1.6-.4-.4-1-.7-1.6-.7h0Z"/>
      </g>
      <g>
        <path class="st2" d="M138.9,97.9c-2.7,0-4.9-.8-6.5-2.4-4.2-4.3-2.8-13.1,3.4-21.5v-2.1c0-.3.1-.7.4-.9.2-.2.6-.4.9-.4h1.5c.4-.4.8-.9,1.3-1.3.6-.6,1.2-1.2,1.8-1.7-1-.8-2.2-1.2-3.4-1.2s-1-.4-1-1,.4-1,1-1c3.1,0,5.6-2.5,5.6-5.7s.4-1,1-1,1,.5,1,1c0,1.7.7,3.2,1.9,4.3,4-2.4,8-3.7,11.3-3.7s4.9.8,6.5,2.4c4.6,4.7,2.4,14.9-5.3,23.9l.5.6c.2.3.2.5.2.7s-.1.6-.4.9-.5.3-.9.3h-1.9c-.8.8-1.7,1.6-2.6,2.4.5.2,1,.3,1.5.3s1,.4,1,1-.4,1-1,1c-2,0-3.6,1.7-3.6,3.7s-.4,1-1,1-1-.4-1-1c0-.9-.3-1.7-.9-2.4-4,2.4-8,3.7-11.4,3.7h0ZM138.1,75.7c-4.4,6.5-5.5,13.2-2.4,16.4,1.2,1.2,2.8,1.8,4.9,1.8s4-.5,6.2-1.4c-.1-.2-.2-.4-.2-.6,0-.6.4-1,1-1,2,0,3.6-1.7,3.6-3.7s.3-.8.6-.9v-5.6c0-.3.1-.7.4-.9.2-.2.6-.4.9-.4h2c.3,0,.7,0,.9.4h.1c.3-.2.7-.4,1.1-.4h2.3c.3,0,.6,0,.9.4.1.2.2.3.3.5,3.9-6.2,4.8-12.5,1.8-15.5-1.2-1.2-2.8-1.8-4.9-1.8s-3.9.5-6.1,1.4c.5,0,.9.5.9,1s-.4,1-1,1c-3.1,0-5.6,2.6-5.6,5.7s-.4.9-.9,1v.4c0,.3-.1.7-.4.9-.2.2-.6.4-.9.4h-1.1v3.5c0,.3-.1.7-.4.9-.2.2-.6.4-.9.4h-2c-.3,0-.7,0-.9-.4-.2-.2-.4-.6-.4-.9v-2.4h0l.2-.2ZM153.4,88.4s.2-.2.3-.2h-.3v.2h0ZM143.6,70.6c0-.3-.2-.6-.3-.8-.3.3-.6.6-.9.8h1.2Z"/>
        <path class="st2" d="M144.7,58.6c0,2.3,1.1,4.3,2.9,5.5,4-2.6,8.1-3.9,11.4-3.9s4.4.7,5.8,2.1c4.4,4.5,1.8,14.6-5.9,23.2l1,1.3h0v.3h-2.4c-1.2,1.3-2.5,2.4-3.8,3.4.8.8,1.9,1.3,3.1,1.3-2.5,0-4.6,2.1-4.6,4.7,0-1.5-.7-2.8-1.7-3.7-4.1,2.6-8.1,4-11.5,4s-4.4-.7-5.8-2.1c-4-4.1-2.1-12.9,4.1-21h-.4v-2h2.2c.5-.6,1-1.1,1.5-1.6.8-.8,1.7-1.7,2.6-2.4-1.2-1.4-2.9-2.2-4.9-2.2,3.6,0,6.6-3,6.6-6.7M144.7,72c0-1.4-.4-2.8-1.2-3.8-.8.7-1.6,1.4-2.4,2.2-.4.4-.8.8-1.1,1.2h3.8v2h-2.3v4.7h-2.4v-4.7h-.8c-5.5,7.2-7.1,15.3-3.3,19.1,1.4,1.4,3.3,2.1,5.6,2.1s5.7-.9,8.9-2.7c-.6-.3-1.2-.4-1.9-.4,2.5,0,4.6-2.1,4.6-4.7,0,1,.3,2,.9,2.7,1.2-.9,2.5-2,3.7-3.2l-1.4-1.8v2.2c0,0-.1,0-.2,0h-2.2v-6.7c0,0,.1,0,.2,0h2.2v2l1.5-1.9c.1,0,.2-.2.4-.2h2.4v.2c0,.2,0,0,0,0l-2.3,2.8,1.1,1.3c6.6-7.7,8.8-16.7,4.7-20.8-1.4-1.4-3.3-2.1-5.6-2.1s-5.9,1-9,2.8c.9.4,1.8.6,2.8.6-3.6,0-6.6,3-6.6,6.7M144.7,56.6c-1.1,0-2,.9-2,2,0,2.6-2.1,4.7-4.6,4.7s-2,.9-2,2,.9,2,2,2,1.2,0,1.8.4c-.3.3-.6.6-.9.9l-1,1h-1.1c-.6,0-1.2.2-1.6.7-.4.4-.6,1-.6,1.6v1.8c-6.3,8.8-7.6,17.9-3.1,22.5,1.8,1.8,4.3,2.7,7.2,2.7s7.2-1.2,11-3.4c.1.3.2.7.2,1,0,1.1.9,2,2,2s2-.9,2-2,1.2-2.7,2.6-2.7,2-.9,2-2-.6-1.6-1.4-1.9c.3-.3.6-.5.9-.8h1.5c.6,0,1.1-.2,1.6-.7.4-.4.6-1,.6-1.6s-.1-.9-.4-1.2h0c7.7-9.5,9.7-19.7,4.7-24.7-1.8-1.8-4.3-2.7-7.2-2.7s-7.3,1.2-11.2,3.5c-.7-.8-1.1-1.9-1.1-3s-.9-2-2-2h.1ZM153.2,64.7c1.5-.5,3-.8,4.3-.8s3.2.5,4.2,1.5c2.4,2.5,1.8,7.8-1.3,13.2-.3-.2-.6-.2-1-.2h-2.3c-.4,0-.8,0-1.1.2-.3-.2-.7-.2-1-.2h-2c-.6,0-1.2.2-1.6.7-.4.4-.6,1-.6,1.6v5.1c-.4.4-.6.9-.6,1.5,0,1.5-1.2,2.7-2.6,2.7s-2,.9-2,2h0c-1.8.7-3.5,1.1-5,1.1s-3.2-.5-4.2-1.5c-2.3-2.3-1.9-7.2.8-12.4.1.3.3.5.5.7.4.4,1,.7,1.6.7h2c.6,0,1.2-.2,1.6-.7.4-.4.6-1,.6-1.6v-2.5h0c.6,0,1.2-.2,1.6-.7.4-.4.6-.8.6-1.3.5-.4.9-1,.9-1.7,0-2.6,2.1-4.7,4.6-4.7s2-.9,2-2,0-.4,0-.6h0Z"/>
      </g>
    </g>
    <polygon class="st3" points="145.2 66.9 158 62.8 164 65.8 164.8 70.6 162.8 78.7 159.4 84.1 153.7 89.3 146.7 93.5 140.3 95.8 135.3 95 132 90.2 132.8 83.7 134.7 78 139 72.4 145.2 66.9"/>
    <path class="st13" d="M144.7,58.6c0,3.7-2.9,6.7-6.6,6.7,3.6,0,6.6,3,6.6,6.7,0-3.7,2.9-6.7,6.6-6.7-3.6,0-6.6-3-6.6-6.7Z"/>
    <path class="st13" d="M147.6,91.8c2.5,0,4.6,2.1,4.6,4.7,0-2.6,2.1-4.7,4.6-4.7-2.5,0-4.6-2.1-4.6-4.7,0,2.6-2.1,4.7-4.6,4.7Z"/>
    <path class="st13" d="M164.8,62.4c-4.7-4.8-15.6-1.3-24.3,7.6s-12,20-7.4,24.8,15.6,1.3,24.3-7.6,12-20,7.4-24.8ZM157,86.4c-7.8,7.9-17.6,10.8-22,6.4s-1.6-14.5,6.2-22.4c7.8-8,17.6-10.8,22-6.4,4.4,4.4,1.6,14.5-6.2,22.4Z"/>
    <path class="st11" d="M143.6,71.6h.2v2h-2.3v4.7h-2.4v-4.7h-2.3v-2h6.8Z"/>
    <path class="st11" d="M151.9,75.6c0,1-.3,1.7-1,2.2-.6.5-1.5.7-2.6.7s-1.9-.2-2.6-.7c-.6-.5-1-1.2-1-2.2v-1.2c0-.7.1-1.2.5-1.7.3-.4.7-.8,1.3-1,.5-.2,1.1-.3,1.8-.3s1.3,0,1.8.3,1,.5,1.3,1,.5,1,.5,1.6v1.2h0ZM147.4,75.8c0,.3,0,.5.3.6.2,0,.4.2.7.2s.5,0,.7-.2.3-.4.3-.6v-1.5c0-.3,0-.5-.3-.6-.2-.2-.4-.2-.7-.2s-.5,0-.7.2c-.2,0-.3.3-.3.6v1.6h0Z"/>
    <path class="st11" d="M160,75.6c0,1-.3,1.7-1,2.2-.6.5-1.5.7-2.6.7s-1.9-.2-2.6-.7c-.6-.5-1-1.2-1-2.2v-1.2c0-.7.1-1.2.5-1.7.3-.4.7-.8,1.3-1,.5-.2,1.1-.3,1.8-.3s1.3,0,1.8.3,1,.5,1.3,1,.5,1,.5,1.6v1.2h0ZM155.5,75.8c0,.3,0,.5.3.6.2,0,.4.2.7.2s.5,0,.7-.2.3-.4.3-.6v-1.5c0-.3,0-.5-.3-.6-.2-.2-.4-.2-.7-.2s-.5,0-.7.2c-.2,0-.3.3-.3.6v1.6h0Z"/>
    <path class="st10" d="M143.7,86.8h0v.3h-2.6c-.1,0-.3,0-.3-.2l-1.7-2.1v2.2c0,0-.1,0-.2,0h-2.2v-6.7c0,0,.1,0,.2,0h2.2v2l1.5-1.9c.1,0,.2-.2.4-.2h2.4v.2c0,.2,0,0,0,0l-2.3,2.8,2.6,3.3h0v.2Z"/>
    <path class="st10" d="M151,85.2h.2v1.8c0,0-.1,0-.2,0h-6.2v-6.7c0,0,.1,0,.2,0h6.1v1.8c0,0-.1,0-.2,0h-3.7v.6h3.4v1.7c0,0-.1,0-.2,0h-3.2v.6h3.8v.2Z"/>
    <path class="st10" d="M159.9,86.8h0v.3h-2.6c-.1,0-.3,0-.3-.2l-1.7-2.1v2.2c0,0-.1,0-.2,0h-2.2v-6.7c0,0,.1,0,.2,0h2.2v2l1.5-1.9c.1,0,.2-.2.4-.2h2.4v.2c0,.2,0,0,0,0l-2.3,2.8,2.6,3.3h0v.2Z"/>
    <path class="st0" d="M100.9,215.6s11.4-2.8,13.1-1.4c1.7,1.4,2.3,2.9,0,3.3-2.3.5-5.8,1.8-5.7,5,0,3.2,3.3,8.8,14.2,9.3s17.8-4.6,17.8-4.6c0,0-3.8,8.7-4.8,16.6s2.1,13.6.9,15.6c-1.2,2-6.2,7.7-5.6,12s3.7,8.4,7.3,9.9,9.3,4.7,10.3,6.1,7.1-.5,8.7-3.6,1.2-3.5,3.2-3.3,9.9,2.1,13.8,0c3.9-2.1,11.7-8.5-2.4-21,0,0,10.5,16.2,3.8,17.5s-23.5-12-20.4,3c0,0-1.7,2.1-4.9,1.5s-14.5-4.4-15-9.5,4.2-8.4,5.4-11.7-2.6-8.5-1.7-16.4c.9-7.9,6.9-16.9,7.8-23.4s-3.2-8.8-4.7-10.2-4.1-4.7-4.1-10.5c0,0-2.4,4-2.3,7.1,0,0-2.5-4.5-7-4.9-11.9,1.8-18.2.8-26.8,1.2l-.8,9.3-.2,3.3v-.2Z"/>
    <path class="st0" d="M165.8,228.4s3.8-11.1,10.8-14.9,9.7-3.7,9.7-3.7c0,0-6.5,5.6-7,8.2s-.6,3.5-.6,3.5c0,0,2.3-.4,3.5.5s6.4,4.5,15.6,3.7,13-.4,21.1-4.5,10-4,11.6-4.8,1.9-2.1,1.9-2.1c0,0-3-.1-5.5-1.4s-13-8.4-21.3-7.3c4.4-.9,7.1.4,12.5-.3,9-.6,25.9,1.4,25.9,1.4,0,0-16.4-9.6-22.8-9.8s-17.6-2.8-24.4-.1-15.7-1.1-26.5,2.1c0,0-7.5,3.2-6.9,6.3,0,0-5.2-2.7-5.2-6.6,0,0-3.6,9.7,2.3,13.8s5.5,4.3,5.5,4.3c0,0,1.4,3-.2,11.9h0Z"/>
    <path class="st0" d="M407.8,251.2"/>
  </g>
  <path class="st5" d="M178.5,219.3s2.3-1.5,5.5,0,7.9,5.2,15.2,4,28.8-8.2,28.8-8.2c0,0,14.2-3.9,13.1-3.8s-23-7.8-23-7.8c0,0-29.3.1-37.4,7.9s-2.2,7.8-2.2,7.8Z"/>
  <path class="st5" d="M109.1,214.8l1.7-1s22.6-2.4,24.9-.9,5.3,3.9,5,7.7-.5,5.1-.5,5.1c0,0-13,5.6-20.5,3.2s-13.6-6.1-12.7-9,2.1-5.3,2.1-5.3Z"/>
</svg>