<?xml version="1.0" encoding="utf-8"?>
<!-- Generator: Adobe Illustrator 16.0.0, SVG Export Plug-In . SVG Version: 6.00 Build 0)  -->
<!DOCTYPE svg PUBLIC "-//W3C//DTD SVG 1.1//EN" "http://www.w3.org/Graphics/SVG/1.1/DTD/svg11.dtd">
<svg version="1.1" xmlns="http://www.w3.org/2000/svg" xmlns:xlink="http://www.w3.org/1999/xlink" x="0px" y="0px"
	 width="239.59px" height="69.665px" viewBox="0 0 239.59 69.665" enable-background="new 0 0 239.59 69.665" xml:space="preserve">
<g id="Layer_1" display="none">
	<path display="inline" fill="#EDB577" d="M369.697,380.459c0,0,27.848,2.71,28.007,8.708S374.746,407.1,264.97,408.966
		c-109.774,1.866-208.911-4.444-236.009-6.456s-100.358-14.018,22.688-32.515C174.697,351.498,356.697,380.586,369.697,380.459z"/>
	<path display="inline" fill="#010101" stroke="#010101" stroke-width="12" stroke-miterlimit="10" d="M359.751,381.239
		c0,0,29.703,5.876-3.926,9.067c-33.631,3.191-79.914,1.143-112.439,0c-32.523-1.143-39.93-2.04-56.643,0.992
		c-16.714,3.032-87.549,6.652-108.215,5.259s-68.833-4.496-66.333-9.611s36.207-10.114,36.207-10.114l115.293-37.834
		c0,0,47.595,28.587,88.88,32.46C293.863,375.331,359.751,381.239,359.751,381.239z"/>
	<path display="inline" fill="#010101" stroke="#010101" stroke-width="12" stroke-miterlimit="10" d="M290.722,252.211
		c0,0,24.371,5.872,25.068,11.407c0.699,5.535-0.219,38.626-0.219,38.626s43.668,5.472,53.479,26.529
		c9.813,21.058,9.285,33.704,4.527,35.756s0,0.177,0,0.177s3.326,1.126,3.492,6.167c0.168,5.041,5.201,15.057-6.773,17.466
		c-11.977,2.409-49.027,5.267-68.939,3.838c-19.91-1.429-79.994-10.621-95.078-19.566c-4.752-5.385-2.066-48.287,9.176-69.949
		l4.99-8.913c0,0-9.346-1.771-10.381-5.261s-2.047-23.345,1.459-25.792s17.172-5.091,17.172-5.091S275.414,249.924,290.722,252.211z
		"/>
	<g display="inline">
		<path fill="#FECE30" d="M215.455,302.661l43.533,3.375v0.295c-4.166,14.625,4.666,15,7.998,16.029s4.043,6.471,8.418,7.432
			s14.625-10.586,22.217-15.197s44.533-13.514,66.326,7.004v0.001c2.129,2.162,3.879,4.547,5.104,7.174
			c6.461,13.867,8.438,24.084,7.678,30.032c-0.811,2.674-1.859,4.579-2.65,5.454c-0.162,0.103-0.326,0.195-0.5,0.27
			c-1.115,0.48-1.693,0.74-1.947,0.864c-8.607,2.444-42.572,8.425-76.998,5.063c-38.398-3.749-86.104-19.751-87.568-21.501
			c-1.467-1.75-0.285-14.625,1.006-23.925c0.166-1.198,0.414-2.46,0.717-3.747c0.314-1.25,0.645-2.483,0.99-3.7
			C212.035,309.995,215.455,302.661,215.455,302.661z"/>
	</g>
	<path display="inline" fill="#E27A3C" d="M258.988,306.331c-0.41,1.438-0.689,2.733-0.865,3.91
		c-5.707-1.703-17.285-4.105-20.746,3.07c-4.654,9.647,8.402,27.52,15.818,33.02s13.75,3,17.334,0s3.75-1.834,15.588,2.517
		s33.078,6.483,63.578,1.555c13.729-2.219,19.926-8.16,22.602-14.024c0.023,0.063,0.045,0.123,0.068,0.185
		c0.33,0.858,0.637,1.696,0.926,2.519c0.086,0.24,0.166,0.477,0.248,0.714c0.238,0.693,0.463,1.373,0.674,2.039
		c0.064,0.203,0.131,0.409,0.193,0.609c0.26,0.844,0.502,1.671,0.719,2.47c0.018,0.064,0.031,0.124,0.049,0.188
		c0.193,0.723,0.365,1.425,0.525,2.11c0.049,0.217,0.096,0.429,0.143,0.641c0.121,0.552,0.23,1.09,0.33,1.615
		c0.035,0.192,0.074,0.389,0.109,0.578c0.119,0.682,0.225,1.348,0.309,1.985c0.008,0.063,0.012,0.119,0.02,0.181
		c0.072,0.572,0.127,1.123,0.17,1.658c0.016,0.188,0.025,0.372,0.037,0.557c0.025,0.412,0.043,0.813,0.051,1.201
		c0.004,0.172,0.01,0.347,0.01,0.514c0.002,0.516-0.01,1.015-0.039,1.485c-0.004,0.059-0.01,0.111-0.014,0.17
		c-0.027,0.37-0.068,0.72-0.113,1.062c-0.797,2.609-1.818,4.477-2.6,5.361c-0.174,0.113-0.346,0.229-0.533,0.31
		c-0.299,0.129-0.553,0.239-0.779,0.338c-0.02,0.009-0.033,0.015-0.053,0.023c-0.186,0.081-0.354,0.155-0.492,0.218
		c-0.102,0.045-0.176,0.078-0.256,0.114c-0.039,0.019-0.09,0.041-0.125,0.057c-0.086,0.04-0.15,0.07-0.207,0.098
		c-0.01,0.005-0.025,0.013-0.035,0.017c-8.607,2.444-42.572,8.425-76.998,5.063c-38.398-3.749-86.104-19.751-87.568-21.501
		c-1.467-1.75-0.285-14.625,1.006-23.925c0.166-1.198,0.414-2.46,0.717-3.747c0.314-1.25,0.645-2.483,0.99-3.7
		c2.258-7.589,5.678-14.923,5.678-14.923l43.533,3.375V306.331z"/>
	<path display="inline" fill="#EBE2D3" d="M311.695,289.247c-0.996,0.758-40.033,6.365-42.141,6.225
		c-2.109-0.141-5.072-1.443-3.465-3.167c1.605-1.724,41.186-4.901,41.186-4.901S313.779,287.663,311.695,289.247z"/>
	<path display="inline" fill="#EBE2D3" d="M320.566,301.831c0,0,0.631-3.245-9.287-2.581c-9.916,0.664-29.25,4.248-34.166,5.831
		c-4.918,1.583-15.086,4.834-13.459,7.25c1.625,2.416,47.367-9.917,56.912-10.167"/>
	<path display="inline" fill="#EBE2D3" d="M204.056,360.075c0.99-0.896,1.643-1.434,1.643-1.434
		c36.045,13.186,79.83,19.814,113.811,20.052c21.451,0.149,43.912-4.366,57.566-7.719c0.229,5.072,5.117,14.971-6.779,17.364
		c-11.977,2.409-49.027,5.267-68.939,3.838c-11.686-0.839-37.203-4.352-59.346-8.918c0.195-5.352-0.488-11.145-4.232-11.801
		c-3.914-0.686-6.09,4.466-7.26,9.25c-10.686-2.567-19.598-5.344-24.24-8.098C204.916,371.064,204.167,366.416,204.056,360.075z"/>
	<path display="inline" fill="#010101" stroke="#010101" stroke-width="12" stroke-miterlimit="10" d="M141.12,254.583
		c0,0,37.93-0.229,44.92,7.635c0,0,3.387,1.789,2.246,14.137s-0.637,15.67-6.033,17.295s-6.199,1.825-6.199,1.825
		s6.695,19.828,7.236,32.213c0.543,12.385,0.5,24.937-3.506,29.54c0,0,3.748,0.604,4.121,3.104s2.969,15.733-2.861,19.288
		c-5.828,3.555-25.64,17.456-57.515,17.646s-77.359-4.435-82.492-10.935c0,0-1.596-11.127,1.948-13.001c0,0-5.149-25.116,2.51-37.37
		s25.284-21.902,29.784-23.453s13.875-21.264,13.875-21.264s-4.125-0.037-3.875-6.037s-2.031-21.197,5.734-24.661
		S124.836,249.46,141.12,254.583z"/>
	<path display="inline" fill="#FECE30" d="M96.717,279.952c-4.938,0.37-9.938,7.317-9.938,7.317s-0.493,0.117-1.294,0.309
		c-0.161-0.693-0.247-1.511-0.206-2.506c0.25-6-2.031-21.197,5.734-24.661c3.282-1.464,9.838-3.669,17.537-5.342
		c-0.208,4.003-1.186,7.531-4.021,7.351c-6.438-0.41-9.16,0-9.16,0s-1.84,4.154,1.535,5.122s13.5,2.593,13.5,2.593
		s2.902,3.068,14.639,3.409s50.523,0.192,55.005-8.452l-21.144-4.677l-2.055-5.419c11.306,0.771,25.226,2.627,29.191,7.088
		c0,0,3.387,1.789,2.246,14.137c-0.994,10.754-0.742,14.66-4.227,16.563l-31.529,7.577c0,0,4.123-13.414-3.252-15.914
		S101.654,279.582,96.717,279.952z"/>
	<path display="inline" fill="#FECE30" d="M210.064,287.968c1.035,3.489,10.381,5.261,10.381,5.261s39.75,9.103,38.543,6.649
		s0.041-11.047,3.68-15.01s30.027-4.204,40.643-4.782c4.896-0.267,9.309,1.556,12.646,3.596c0.131-8.73,0.174-17.898-0.166-20.583
		c-0.697-5.535-25.068-11.407-25.068-11.407c-15.309-2.287-62.027,5.394-62.027,5.394s-6.445,1.247-11.619,2.82
		c-2.447,1.143-4.699,2.182-6.037,2.77C208.121,266.561,209.08,284.651,210.064,287.968z M256.697,260.549l32.172-0.301l4.494,2.839
		c0,0,11.084-0.628,12.584,0.725s7.676,7.215-19.83,4.992C258.613,266.581,256.697,260.549,256.697,260.549z"/>
	<path display="inline" fill="#FECE30" d="M109.695,374.734c-22.584-0.402-60.917-5.651-67.167-10.485
		c-0.293-0.227-0.59-0.498-0.887-0.791c-0.727-8.396-0.697-20.217,3.854-27.498c5.513-8.819,16.187-16.288,23.415-20.361
		c11.477-5.712,31.662-11.692,56.709-2.076c27.682,10.628,31.685,15.872,32.568,16.955c0.55-4.126-5.322-9.029-5.322-9.029
		l2.209-11.4l-2.963-2.745l26.521-3.396c1.949,6.873,4.344,16.582,4.658,23.781c0.543,12.385,0.5,24.937-3.506,29.54l-3.34,3.695
		c0,0-4.102-29.091-10.8-29.841c-6.699-0.75,0,8.167,0,8.167s8.472,26.349-2.863,29.091
		C151.445,371.082,132.279,375.137,109.695,374.734z"/>
	<path display="inline" fill="#FDF3AB" d="M233.74,274.919c9.879,3.087,53.873,2.913,66.699-0.478
		c11.666-3.084,13.283-9.402,14.547-12.929c-4.316-5.015-24.264-9.821-24.264-9.821c-15.309-2.287-62.027,5.394-62.027,5.394
		s-6.445,1.247-11.619,2.82c-2.447,1.143-4.699,2.182-6.037,2.77c-0.533,0.709-0.936,1.896-1.232,3.376
		C217.455,269.068,227.931,273.104,233.74,274.919z M256.697,260.549l32.172-0.301l4.494,2.839c0,0,11.084-0.628,12.584,0.725
		s7.676,7.215-19.83,4.992C258.613,266.581,256.697,260.549,256.697,260.549z"/>
	<path display="inline" fill="#E27A3C" d="M229.363,266.831l4.166,7.004l4.512,23.206c-9.047-1.855-17.596-3.813-17.596-3.813
		s-9.346-1.771-10.381-5.261c-0.486-1.641-0.967-6.895-0.975-12.256c0.023-5.881,0.094-12.37,1.898-13.63
		c3.033-2.117,13.998-4.245,16.811-4.817L229.363,266.831z"/>
	<path display="inline" fill="#EBE2D3" d="M335.902,328.258c2.705-5.616,27.648-5.465,25.752,6.967S333.65,332.935,335.902,328.258z
		"/>
	<path display="inline" fill="#EBE2D3" d="M320.566,314.647c-9.787,0.809-25.072,10.457,0.008,7.445
		S330.353,313.839,320.566,314.647z"/>
	<g display="inline">
		<path fill="#E27A3C" d="M153.503,295.534c5.208,1.541,10.29-0.664,19.692-3.67c6.705-2.144,11.807-9.256,15.057-15.259
			c-0.951,10.453-0.75,14.299-4.191,16.179l-31.529,7.577C152.531,300.361,153.181,298.242,153.503,295.534z"/>
		<path fill="#E27A3C" d="M140.715,282.89c-14.396-1.827-40.115-3.229-43.998-2.938c-4.938,0.37-9.938,7.317-9.938,7.317
			s-0.493,0.117-1.294,0.309c-0.161-0.693-0.247-1.511-0.206-2.506c0.25-6-2.031-21.197,5.734-24.661
			c3.282-1.464,9.838-3.669,17.537-5.342c-0.208,4.003-1.186,7.531-4.021,7.351c-6.438-0.41-9.16,0-9.16,0s-1.84,4.154,1.535,5.122
			s13.5,2.593,13.5,2.593s2.902,3.068,14.639,3.409c2.641,0.076,6.657,0.128,11.338,0.063
			C137.304,275.914,138.81,279.408,140.715,282.89z"/>
	</g>
	<g display="inline">
		<path fill="#E27A3C" d="M178.632,303.906c0.277,0.979,0.564,2.022,0.854,3.102l-24.488,3.433l0.076-0.393l-2.963-2.745
			L178.632,303.906z"/>
		<path fill="#E27A3C" d="M179.3,325.8c0.652-6.775-0.74-8.234,2.031-11.25c0.996,4.548,1.787,9.215,1.959,13.138
			c0.543,12.385,0.5,24.937-3.506,29.54l-3.34,3.695c0,0-1.744-12.356-4.813-21.171C174.607,336.308,178.833,330.643,179.3,325.8z"
			/>
		<path fill="#E27A3C" d="M41.642,363.458c-0.727-8.396-0.697-20.217,3.854-27.498c4.234-6.774,11.51-12.744,17.935-16.998
			c1.313,0.192,2.038,0.813-0.371,2.535c-4.78,3.417-18.978,17.773-6.004,26.762s66.362,8.962,80.918,6.434
			c14.008-2.434,24.794-5.616,25.513-18.998c0.882,1.854,2.159,3.555,2.159,3.555s8.472,26.349-2.863,29.091
			c-11.336,2.742-30.502,6.797-53.086,6.395s-60.917-5.651-67.167-10.485C42.235,364.022,41.938,363.751,41.642,363.458z"/>
	</g>
	<path display="inline" fill="#EBE2D3" d="M61.529,377.282c24.083,5.951,87.25,2.299,97.641,0.054
		c8.408-1.817,20.904-9.649,25.367-12.572c0.539,4.977,0.635,12.339-3.492,14.855c-5.828,3.555-25.64,17.456-57.515,17.646
		s-77.359-4.435-82.492-10.935c0,0-1.596-11.127,1.948-13.001c0,0-0.042-0.205-0.11-0.571
		C47.439,373.837,53.521,375.304,61.529,377.282z"/>
	<path display="inline" fill="#C9AED1" d="M246.031,370.166c16.85,7.308,52.617,10.374,57.943,11.15
		c2.844,0.414,2.859,5.608,2.049,11.105c-1.635-0.061-3.201-0.14-4.666-0.245c-11.686-0.839-37.203-4.352-59.346-8.918
		c0.195-5.352-0.488-11.145-4.232-11.801c-3.914-0.686-6.09,4.466-7.26,9.25c-10.686-2.567-19.598-5.344-24.24-8.098
		c-1.363-1.546-2.111-6.194-2.223-12.535c0.99-0.896,1.643-1.434,1.643-1.434C218.435,363.301,232.138,367.137,246.031,370.166z"/>
	<g display="inline">
		<path fill="#C9AED1" d="M73.398,394.443c-16.534-1.95-29.734-4.785-32.361-8.112c0,0-1.136-7.919,0.637-11.521
			c8.507,1.786,22.771,4.826,27.989,6.207C74.363,382.261,74.21,389.252,73.398,394.443z"/>
		<path fill="#C9AED1" d="M158.211,377.521c0.354-0.063,0.68-0.124,0.959-0.185c8.408-1.817,20.904-9.649,25.367-12.572
			c0.539,4.977,0.635,12.339-3.492,14.855c-3.338,2.036-11.273,7.464-23.425,11.769L158.211,377.521z"/>
	</g>
	<path display="inline" fill="#EBE2D3" d="M115.578,316.175c-18.635-4.874-34.389,0.035-35.281,0.533s-13.492,4.814,6.245,6.406
		s42.487,5.588,46.362,6.152S138.877,322.269,115.578,316.175z"/>
	<path display="inline" fill="#FDF3AB" d="M91.014,260.411c1.253-0.559,2.986-1.227,5.075-1.931
		c-0.358,0.969-0.842,2.576-0.745,4.001c-0.206,0.504-1.58,4.16,1.561,5.061c3.375,0.968,13.5,2.593,13.5,2.593
		s2.902,3.068,14.639,3.409s50.523,0.192,55.005-8.452l-13.583-3.004l4.177-2.177l2.978-2.87c5.645,1.124,10.367,2.733,12.42,5.043
		c0,0,0.207,0.11,0.5,0.461c0.619,2.164-0.086,4.493-3.428,6.704c-10.834,7.166-25.944,8.063-38.597,8.531
		s-38.483,0.513-51.403-9.094c-3.386-2.518-4.756-4.472-4.952-5.992C88.915,261.718,89.85,260.931,91.014,260.411z"/>
	<path display="inline" fill="#EBE2D3" d="M146.279,293.269c0.19,3.237-4.438,2.059-12.625,1.061s-38.169-2.561-38.169-2.561
		s-0.356-2.59,1.5-3.795s40.544,1.295,43.388,2.045S146.217,292.206,146.279,293.269z"/>
	<path display="inline" fill="#EBE2D3" d="M146.397,314.382c0.444-1.426,2.419-3.797-1.318-5.33s-29.396-8.814-37.629-9.174
		s-20.077-0.543-22.3,0.923s-4.809,2.593-2.684,2.405s26.25,0.063,34.375,1.813s28.375,9.727,29.75,9.363"/>
	<path display="inline" fill="#010101" stroke="#010101" stroke-width="12" stroke-miterlimit="10" d="M280.863,173.14
		c0,0,10.689,87.673,5.254,89.947s-50.918,10.347-52.17-2.538s-1.668-82.612-1.668-82.612l-55.75,9.963
		c0,0-10.808,77.486-14.821,78.459s-45.39,2.335-47.284-0.43s24.506-109.77,24.889-110.684
		c0.228-0.545,45.718-111.032,85.271-111.164C251.359,43.992,275.413,143.862,280.863,173.14z"/>
	<path display="inline" fill="#8B69AD" d="M286.179,224.024c1.588,19.476,2.346,37.238-0.063,38.246
		c-5.436,2.274-50.918,10.347-52.17-2.538c-0.244-2.517-0.457-7.209-0.641-13.121C246.437,243.481,271.072,236.335,286.179,224.024z
		"/>
	<path display="inline" fill="#8B69AD" d="M167.914,242.464c-2.403,13.129-4.751,23.542-6.206,23.895
		c-4.013,0.973-45.39,2.335-47.284-0.43c-0.56-0.816,1.352-10.736,4.331-24.328c8.151,1.587,17.022,3.066,24.961,3.842
		C152.197,246.271,160.664,244.715,167.914,242.464z"/>
	<path display="inline" fill="#010101" stroke="#010101" stroke-width="12" stroke-miterlimit="10" d="M14.027-115.479
		c0,0-25.922,24.925-1.391,39.617C30.167-61.085,124.713-42.692,202.44-47.764c77.728-5.072,189.827-40.631,196.664-52.133
		s2.898-18.092-21.042-38.016c-23.939-19.924-103.957-57.987-160.025-52.625S28.888-129.455,14.027-115.479z"/>
	<path display="inline" fill="#010101" stroke="#010101" stroke-width="12" stroke-miterlimit="10" d="M279.794,30.753
		l50.416,53.436c0,0-21.438,18.068-21.761,19.48C308.127,105.08,268.603,35.455,279.794,30.753z"/>
	<path display="inline" fill="#8B69AD" d="M280.875,32.218l49.336,51.97c0,0-21.438,18.068-21.761,19.48
		C308.127,105.08,269.683,36.92,280.875,32.218z"/>
	<path display="inline" fill="#010101" stroke="#010101" stroke-width="12" stroke-miterlimit="10" d="M297.651,141.548
		l-9.722,5.565c3.451-10.15,5.768-20.443,7.156-30.729c7.23-6.733,26.416-24.045,38.398-29.65
		c14.994-7.015,29.066,4.528,18.485,19.323c0,0,0.658,4.701,1.121,5.213c0.462,0.509,23.251,15.694,29.23,40.59
		s1.184,50.698-16.197,47.483c0,0,0.963-8.599,1.45-19.228c-2.188,1.062-5.1,2.437-8.415,3.914c0.253,6.89-0.655,21.3-12.346,23.652
		c-10.993,2.213-13.669-7.989-14.329-14.155c-4.102,0.872-7.694,1.161-10.23,0.491c-12.33-3.251-20.804-18.824-21.635-31.071
		C300.118,155.562,298.699,147.103,297.651,141.548z"/>
	<path display="inline" fill="#FAF7ED" d="M343.502,117.944l-3.886-0.413l-51.688,29.582c3.451-10.15,5.768-20.443,7.156-30.729
		c7.23-6.733,26.416-24.045,38.398-29.65c14.994-7.015,29.066,4.528,18.485,19.323c0,0,0.658,4.701,1.121,5.213
		c0.462,0.509,23.251,15.694,29.23,40.59s1.184,50.698-16.197,47.483c0,0,6.763-60.338-6.501-58.946c0,0,1.362,26.352-11.064,30.808
		c-12.426,4.456-29.911-7.94-25.48-26.905C327.509,125.337,343.502,117.944,343.502,117.944z"/>
	<g display="inline">
		<path fill="#E27A3C" d="M367.64,199.55c-0.496-0.045-1-0.111-1.517-0.206c0,0,4.182-37.33-0.487-52.586
			C377.953,164.106,370.907,189.994,367.64,199.55z"/>
		<path fill="#E27A3C" d="M338.384,118.237l-50.455,28.876c3.451-10.15,5.768-20.443,7.156-30.729
			c3.211-2.99,8.779-8.065,15.027-13.275c8.9,19.247,16.457,12.449,31.293,2.641c8.994-5.946,10.496-13.142,10.15-18.19
			c3.691,2.933,5.282,7.832,3.09,13.594c-2.925,8.975-15.245,16.502-15.245,16.502L338.384,118.237z"/>
		<path fill="#E27A3C" d="M323.078,144.3c2.935-12.557,10.936-20.035,16.008-23.658c-2.066,3.855-7.194,13.737-8.664,19.479
			c-1.855,7.244-2.048,19.581,10.34,23.92c8.17,2.861,14.532-4.31,17.918-9.525c-1.246,7.034-4.018,14.503-10.121,16.69
			C336.132,175.661,318.647,163.265,323.078,144.3z"/>
	</g>
	<path display="inline" fill="#E27A3C" d="M358.876,180.365c0,0,3.396,24.206-12.063,27.317
		c-15.46,3.11-14.473-18.335-14.561-18.569C332.166,188.879,349.911,190.755,358.876,180.365z"/>
	<path display="inline" fill="#010101" stroke="#010101" stroke-width="12" stroke-miterlimit="10" d="M123.186-153.168
		l-40.614,12.716c0,0,0.619,287.24,0.44,294.033s-3.173,49.959,26.574,49.729s61.07,3.266,61.07,3.266l1.549-369.719
		C172.206-163.143,131.966-155.917,123.186-153.168z"/>
	<path display="inline" fill="#E27A3C" d="M123.186-153.168l-40.614,12.716c0,0,0.619,287.24,0.44,294.033
		s-3.173,49.959,26.574,49.729s61.07,3.266,61.07,3.266l1.549-369.719C172.206-163.143,131.966-155.917,123.186-153.168z"/>
	<path display="inline" fill="#B56035" d="M122.833,119.263c-20.501-23.067-22.469-104.877-22.469-104.877l-17.479,4.193
		c0.12,67.611,0.21,131.832,0.127,135.002c-0.179,6.793-3.173,49.959,26.574,49.729c9.773-0.075,19.709,0.252,28.656,0.725
		C136.379,166.729,132.133,129.729,122.833,119.263z"/>
	<path display="inline" fill="#B56035" d="M82.572-140.452c0,0,0.032,14.63,0.078,37.362c25.631-10.751,60.47-24.584,89.443-33.29
		l0.112-26.763c0,0-40.239,7.226-49.02,9.975L82.572-140.452z"/>
	<path display="inline" fill="#010101" stroke="#010101" stroke-width="12" stroke-miterlimit="10" d="M131.319-153.169
		l-0.539,323.507c0,0,2.396,35.2,38.225,34.847s45.338-22.396,45.338-42.5s0.199-112.137,0.199-112.137l49.299,133.815
		c0,0,23.085,32.491,55.499,16.796s13.475-47.702,7.445-64.679S276.292-5.688,276.292-5.688l70.881-128.206
		c0,0,5.217-17.574-12.309-21.603c-17.524-4.028-49.47-8.584-49.47-8.584s-5.665-1.51-7.738,1.407s-64.232,88.846-64.232,88.846
		l-1.262-73.866c0,0-0.162-17.686-20.995-16.997C170.333-164.002,132.333-157.835,131.319-153.169z"/>
	<path display="inline" fill="#FECE30" d="M131.319-153.169l-0.539,323.507c0,0,2.396,35.2,38.225,34.847s45.338-22.396,45.338-42.5
		s0.199-112.137,0.199-112.137s47.743,129.66,49.299,133.815s23.085,32.491,55.499,16.796s13.475-47.702,7.445-64.679
		S276.292-5.688,276.292-5.688l70.881-128.206c0,0,5.217-17.574-12.309-21.603c-17.524-4.028-49.47-8.584-49.47-8.584
		s-5.665-1.51-7.738,1.407s-64.232,88.846-64.232,88.846l-1.262-73.866c0,0-0.162-17.686-20.995-16.997
		C170.333-164.002,132.333-157.835,131.319-153.169z"/>
	<path display="inline" fill="none" stroke="#010101" stroke-width="10" stroke-miterlimit="10" d="M205.333-35.794
		c0,0,21.43,19.375,40.715-3.375"/>
	<g display="inline">
		<path fill="#E27A3C" d="M334.865-155.497c-17.524-4.028-49.47-8.584-49.47-8.584s-5.665-1.51-7.738,1.407
			c-0.574,0.808-5.755,7.979-12.942,17.922c28.539,2.153,58.188,7.679,78.754,17.558l3.705-6.7
			C347.173-133.895,352.39-151.469,334.865-155.497z"/>
		<path fill="#E27A3C" d="M191.167-164.691c-20.834,0.689-58.834,6.856-59.849,11.522l-0.051,30.73
			c28.225-10.53,57.136-19.854,75.577-21.897c1.729-0.192,3.525-0.363,5.366-0.519l-0.048-2.84
			C212.163-147.694,212-165.38,191.167-164.691z"/>
	</g>
	<path display="inline" fill="#FDF3AB" d="M136.244-112.803c0,0-2.162,221.259-1.786,253.259s2.958,39.335,6,42.521
		s1.069-0.563-0.34-8.167c-3.659-15.354,0-289.126,0-289.126L136.244-112.803z"/>
	<path display="inline" fill="#E27A3C" d="M327.152,196.343c-0.71-1.756-1.518-3.386-2.27-4.038
		c-1.95-1.693-3.049-0.231-3.049-0.231s-2.666,5.758-20.833,6.425s-29.5-17.071-29.5-17.071s-52-134.262-53.464-143.791
		c-1.464-9.528-3.536-3.638-4.612-3.18s-0.757,13.709-1.753,64.813s14.162,96.229-40.985,100.206
		c-24.214,1.746-35.185-21.269-39.876-47.637l-0.031,18.499c0,0,2.396,35.2,38.225,34.847s45.338-22.396,45.338-42.5
		s0.199-112.137,0.199-112.137s47.743,129.66,49.299,133.815s23.085,32.491,55.499,16.796
		C322.376,199.688,324.963,198.074,327.152,196.343z"/>
	<path display="inline" fill="#FDF3AB" d="M220.24,47.097c0,0,41.785,123.021,50.83,135.073s21.295,15.274,21.295,15.274
		s-15.75-9.037-21.125-20.88s-47.5-127.343-47.5-127.343L220.24,47.097z"/>
	<path display="inline" fill="#E27A3C" d="M341.229-130.663L278.916-14.502c0,0-2.556,4.792-2.121,7.906l69.428-125.58
		C344.707-131.951,343.049-131.463,341.229-130.663z"/>
	<path display="inline" fill="#010101" stroke="#010101" stroke-width="12" stroke-miterlimit="10" d="M35.129,99.022
		c0,0,18.995-50.794,47.481-77.602s30.717,2.365,19.689,19.355c-11.027,16.991-24.763,68.549-24.763,68.549
		S53.829,101.933,35.129,99.022z"/>
	<path display="inline" fill="#8B69AD" d="M35.129,99.022c0,0,18.995-50.794,47.481-77.602s30.717,2.365,19.689,19.355
		c-11.027,16.991-24.763,68.549-24.763,68.549S53.829,101.933,35.129,99.022z"/>
	<path display="inline" fill="#010101" stroke="#010101" stroke-width="12" stroke-miterlimit="10" d="M8.591,115.446
		c2.331-5.646,13.152-12.615,47.829-4.744c34.677,7.869,30.606,25.381,28.454,29.188s-6.464,1.023-14.009-1.072
		c-7.545-2.098-22.332-4.775-22.332-4.775l0.106,4.773c0,0,32.258,5.66,37.17,24.271c4.912,18.609,1.891,24.09,3.214,32.287
		s-0.401,25.959-10.414,27.766s-23.013-0.068-21.763-34.193c0,0-5.47-1.596-6.163,2.088c-0.693,3.682-1.24,23.83,1.906,27.615
		s7.187,7.432,5.284,10.24c-1.902,2.807-18.438,10.178-27.545-0.008s-14.688-26.994-14.688-26.994l-5.056,2.256l4.44,17.656
		c0,0-8.877-2.133-14.212-12.896s-4.431-9.172-6.762-13.002s-2.935-39.326,19.68-58.516c0,0,18.239,2.125,25.614,4.531
		c7.375,2.404,5.147-2.479-0.686-3.83C32.829,136.737,3.586,127.571,8.591,115.446z"/>
	<path display="inline" fill="#FAF7ED" d="M8.591,115.446c2.331-5.646,13.152-12.615,47.829-4.744
		c34.677,7.869,30.606,25.381,28.454,29.188s-6.464,1.023-14.009-1.072c-7.545-2.098-20.729-4.514-22.332-4.775
		s-1.038,4.547,0.106,4.773s32.258,5.66,37.17,24.271c4.912,18.609,1.891,24.09,3.214,32.287s-0.401,25.959-10.414,27.766
		s-23.013-0.068-21.763-34.193c0,0-5.47-1.596-6.163,2.088c-0.693,3.682-0.681,18.82,3.427,26.094s5.666,8.953,3.764,11.762
		c-1.902,2.807-18.438,10.178-27.545-0.008s-13.809-25.344-14.688-26.994c-0.879-1.648-5.795,0.527-5.056,2.256
		s7.552,17.656,7.552,17.656S6.15,219.667,0.815,208.903s-4.431-9.172-6.762-13.002s-2.935-39.326,19.68-58.516
		c0,0,18.239,2.125,25.614,4.531c1.083,0.572,0.559-3.473-0.686-3.83C32.829,136.737,3.586,127.571,8.591,115.446z"/>
	<g display="inline">
		<path fill="#E27A3C" d="M84.875,139.89c-2.152,3.807-6.464,1.023-14.009-1.072c-0.251-0.07-0.509-0.141-0.771-0.211
			c1.044-1.164,2.981-2.898,6.566-5.139c3.752-2.346,5.839-5.549,6.978-8.035C87.743,131.796,86.036,137.837,84.875,139.89z"/>
		<path fill="#E27A3C" d="M48.534,134.042c-1.497-0.244-1.103,3.928-0.112,4.668l-8.683,1.006c-0.212-0.775-0.588-1.488-1.077-1.629
			c-5.833-1.35-35.075-10.516-30.07-22.641c1.472-3.564,6.335-7.651,18.438-8.204C-1.086,131.214,48.534,134.042,48.534,134.042z"/>
		<path fill="#E27A3C" d="M13.733,137.386c0,0,18.239,2.125,25.614,4.531c0.263,0.139-1.589-0.471-1.589-0.471
			s0.049-0.102-1.228-0.316c-2.784-0.473-11.996,1.191-25.944,17.986c-13.948,16.793-8.677,39.33-5.938,42.264
			c1.53,1.639,3.959,1.785,6.157,1.635c-0.266,0.369-0.377,0.76-0.219,1.129c0.739,1.729,7.552,17.656,7.552,17.656
			S6.15,219.667,0.815,208.903s-4.431-9.172-6.762-13.002S-8.881,156.575,13.733,137.386z"/>
		<path fill="#E27A3C" d="M30.33,228.882c-7.824-8.75-12.394-21.162-14.084-25.535c2.762,2.107,8.285,9.158,14.932,16.996
			c7.835,9.238,23.232-1.834,23.232-1.834l1.104,1.068c3.036,5.256,4.029,6.852,2.361,9.313
			C55.972,231.696,39.437,239.067,30.33,228.882z"/>
		<path fill="#E27A3C" d="M78.61,223.14c-10.013,1.807-23.013-0.068-21.763-34.193c0,0-5.104-1.479-6.066,1.758
			c0.83-3.77,3.047-4.789,6.219-6.156c4.84-2.086,6.16,8.523,10.908,24.855c2.719,9.354,12.036,7.594,19.507,4.385
			C85.766,218.528,82.976,222.353,78.61,223.14z"/>
	</g>
	<path display="inline" fill="#472A72" d="M35.129,99.022c0,0,18.995-50.794,47.481-77.602c20.861-19.632,27.641-9.241,25.444,4.401
		c-4.973-6.482-14.059-9.542-29.445,11.25c-17.408,23.523-26.203,49.207-30.258,64.5C43.911,100.583,39.39,99.687,35.129,99.022z"/>
	<path display="inline" fill="#010101" d="M23.978,151.149c3.733,0.846-3.432,23.164-6.844,22.543S19.359,150.103,23.978,151.149z"
		/>
	<path display="inline" fill="#E27A3C" d="M131.206-85.335L139-75.169c0,0,10.152,13.708,20.167,16.833s36.728,6.912,47.728,2.229
		s14.188-12.188,18.438-15.188s8.625,9.813,18.375,15.188c10.452-5.058,42.936-6.813,52.875-6.188
		c17.625-16,23.001-18.125,29.251-29.625C313.958-92.752,147.956-98.96,131.206-85.335z"/>
	<path display="inline" fill="#010101" stroke="#010101" stroke-width="12" stroke-miterlimit="10" d="M333.145-104.495
		c-3.115-2.628-203.613-2.076-213.65,0s-5.963,13.912,0,13.912s15.777,0,15.777,0s21.846,25.616,29.391,29.39s32.582,1.976,38.563,0
		s16.657-21.414,21.819-21.82s18.065,20.617,21.82,21.82s32.035,1.976,38.563,0s29.39-29.39,29.39-29.39s15.514-0.415,18.326,0
		S336.26-101.867,333.145-104.495z"/>
	<path display="inline" fill="#8B69AD" d="M333.145-104.495c-3.115-2.628-203.613-2.076-213.65,0s-5.963,13.912,0,13.912
		s15.777,0,15.777,0s21.846,25.616,29.391,29.39s32.582,1.976,38.563,0s16.657-21.414,21.819-21.82s18.065,20.617,21.82,21.82
		s32.035,1.976,38.563,0s29.39-29.39,29.39-29.39s15.514-0.415,18.326,0S336.26-101.867,333.145-104.495z"/>
	<g display="inline">
		<path fill="#010101" d="M237.149-90.583c-3.316,3.665,10.789,15.058,17.299,17.299s23.385,3.991,29.76,1.866
			s14.375-14.579,10.938-19.165S240.465-94.248,237.149-90.583z"/>
	</g>
	<g display="inline">
		<path fill="#010101" d="M212.411-90.864c3.289,3.69-10.904,14.974-17.432,17.164c-6.527,2.19-23.415,3.81-29.773,1.636
			s-14.262-14.69-10.789-19.249C157.89-95.872,209.124-94.555,212.411-90.864z"/>
	</g>
	<path display="inline" fill="#472A72" d="M119.495-104.495c-6.109,1.264-6.985,6.141-5.396,9.766
		c9.713-0.722,24.247-1.694,45.952-2.999c73.906-4.441,117.818-0.178,132.487-1.81c7.558-0.841,9.499-3.699,6.198-6.375
		C240.225-106.743,126.974-106.042,119.495-104.495z"/>
	<g display="inline">
		<path fill="#BF91C0" d="M149.208-82.626c-8.625-10.582-11.625-7.543-13.936-7.958c0,0,21.846,25.616,29.391,29.39
			c2.282,1.142,6.17,1.771,10.643,2.042C165.422-64.763,155.184-75.293,149.208-82.626z"/>
		<path fill="#BF91C0" d="M230.708-86.669c-3.07-2.069-4.5,0.673-5.168,3.679c5.448,0.838,17.686,20.631,21.326,21.797
			c2.862,0.917,19.968,1.582,30.834,0.973c-6.864-1.933-21.719-3.35-25.479-4.198C247.233-65.544,236.458-82.794,230.708-86.669z"/>
	</g>
	<path display="inline" fill="#FAF7ED" d="M154.668-83.697c0.835,2.017,2.084,4.097,3.541,5.947l13.951-16.362
		c-1.835,0.058-3.597,0.14-5.256,0.247L154.668-83.697z"/>
	<path display="inline" fill="#FAF7ED" d="M168.876-71.311l9.587-22.905c-1.501,0.004-2.982,0.022-4.432,0.055l-12.619,19.782
		c1.26,1.072,2.555,1.891,3.793,2.314C166.199-71.725,167.449-71.478,168.876-71.311z"/>
	<path display="inline" fill="#FAF7ED" d="M259.381-93.536c-1.922,0.064-3.802,0.148-5.605,0.252l-12.891,10.711
		c1.561,1.551,3.408,3.11,5.301,4.511L259.381-93.536z"/>
	<path display="inline" fill="#FAF7ED" d="M261.469-93.598l-11.527,18.071c1.667,1.012,3.232,1.804,4.506,2.242
		c0.794,0.273,1.744,0.539,2.809,0.792l8.867-21.184C264.566-93.664,263.009-93.637,261.469-93.598z"/>
	<g display="inline">
		<path fill="none" stroke="#010101" stroke-width="6" stroke-miterlimit="10" d="M295.145-90.583
			c-3.438-4.585-54.68-3.665-57.996,0s10.789,15.058,17.299,17.299s23.385,3.991,29.76,1.866S298.583-85.998,295.145-90.583z"/>
		<path fill="none" stroke="#010101" stroke-width="6" stroke-miterlimit="10" d="M154.417-91.313
			c-3.473,4.559,4.431,17.075,10.789,19.249s23.246,0.555,29.773-1.636c6.527-2.19,20.721-13.474,17.432-17.164
			C209.124-94.555,157.89-95.872,154.417-91.313z"/>
	</g>
	<path display="inline" fill="#010101" stroke="#010101" stroke-width="12" stroke-miterlimit="10" d="M399.104-99.896
		c0,0-21.351-68.576-162.309-65.268S19.364-98.551,17.292-94.123c-4.7,9.411-4.655,18.262-4.655,18.262
		s-24.778-14.416-15.223-30.167s54.146-65.617,54.146-65.617l1.452-68.751c0,0-7.244-36.201,23.856-54.917
		s85.101-37.692,151.101-32.704s96.709,36.473,97.411,39.508s6.654,51.415,6.654,51.415l9.084,51.317
		c0,0,63.638,48.181,65.261,60.595S409.256-105.382,399.104-99.896z"/>
	<path display="inline" fill="#FECE30" d="M-3.086-106.976c9.556-15.75,54.146-65.617,54.146-65.617l1.452-68.751
		c0,0-7.244-36.201,23.856-54.917s85.101-37.692,151.101-32.704s96.709,36.473,97.411,39.508c0.003,0.015,0.008,0.037,0.012,0.054
		c0.281,0.401,0.444,0.704,0.488,0.895c0.702,3.035,6.654,51.415,6.654,51.415l8.968,50.661
		c4.979,3.791,57.323,43.857,64.165,58.155c0.674,1.185,1.099,2.23,1.212,3.096c1.623,12.414,2.877,19.8-7.275,25.285
		c0,0-0.115-0.364-0.371-1.021c-0.045,0.024-0.084,0.048-0.129,0.072c0,0-0.575-1.835-2.14-4.878
		c-8.889-16.488-44.018-62.156-159.669-59.441C95.837-161.855,19.364-98.551,17.292-94.123c-4.7,9.411-4.655,18.262-4.655,18.262
		S0.66-82.837-3.424-92.383C-5.658-96.712-6.281-101.712-3.086-106.976z"/>
	<g display="inline">
		<path fill="#E27A3C" d="M51.06-172.593l1.452-68.751c0,0-7.244-36.201,23.856-54.917c15.1-9.087,35.609-18.227,60.257-24.663
			c-20.851,10.935-41.149,22.298-44.853,26.896c-8.054,10,4.595,34.607,6.146,56.804s-10.926,52.96-23.313,76.828
			c-9.488,18.282-14.883,18.248-16.379,38.512C32.051-108.13,18.159-95.976,17.292-94.123c-4.7,9.411-4.655,18.262-4.655,18.262
			S0.66-82.837-3.424-92.383c-2.233-4.329-2.856-9.329,0.338-14.593C6.469-122.727,51.06-172.593,51.06-172.593z"/>
		<path fill="#E27A3C" d="M324.88-289.457c0.003,0.015,0.008,0.037,0.012,0.054c0.281,0.401,0.444,0.704,0.488,0.895
			c0.702,3.035,6.654,51.415,6.654,51.415l5.424,30.638l-17.521-9.733c0,0-1.36-50.087-18.524-91.86
			C316.91-299.329,324.535-290.95,324.88-289.457z"/>
	</g>
	<path display="inline" fill="#FDF3AB" d="M319.466-175.02c-89.996-17.141-175.375,1.011-175.375,1.011s67.381-17.076,138.937-9.18
		c34.879,3.101,65.101,11.396,86.584,20.099c17.17,14.288,35.896,31.247,36.768,37.908c0.005,0.041,0.01,0.079,0.016,0.12
		C393.456-143.507,368.185-165.741,319.466-175.02z"/>
	<g display="inline">
		<path fill="#010101" d="M10.446-126.55c20.015-9.802,66.817-32.439,70.326-31.524c4.473,1.167,12.811-3.083-35.542,18.217
			c-20.96,9.233-34.285,17.153-42.661,23.164C4.945-119.757,7.617-123.091,10.446-126.55z"/>
		<path fill="#010101" d="M64.829-158.101c-3.984,1.332-29.139,12.708-44.52,19.71c1.836-2.171,3.672-4.326,5.479-6.434
			c9.565-4.029,21.403-8.964,28.483-11.727C67.631-161.766,70.632-160.042,64.829-158.101z"/>
	</g>
	<path display="inline" fill="#E27A3C" d="M218.162-173.983c96.876,0,176.869,27.773,189.045,63.735
		c-0.697,4.229-2.9,7.541-8.103,10.352c0,0-21.351-68.576-162.309-65.268S19.114-99.968,17.292-94.123
		c-4.405,7.178-4.906,17.261-4.906,17.261s-3.402-1.863-7.179-5.012l0,0C5.207-122.348,112.866-173.983,218.162-173.983z"/>
	<path display="inline" fill="#010101" stroke="#010101" stroke-width="12" stroke-miterlimit="10" d="M342.617-219.938
		c0,0-11.581-13.848-32.034-20.458s-97.928-29.243-176.688-3.104s-87.707,35.818-89.983,38.312s-1.446,21.147-1.232,24.158
		s0.046,6.253,5.423,3.265s76.938-33.029,153.246-35.225s99.762,4.299,142.774,22.714
		C344.123-190.276,346.264-203.347,342.617-219.938z"/>
	<path display="inline" fill="#8B69AD" d="M342.617-219.938c0,0-11.581-13.848-32.034-20.458s-97.928-29.243-176.688-3.104
		s-87.707,35.818-89.983,38.312s-1.446,21.147-1.232,24.158s0.046,6.253,5.423,3.265s76.938-33.029,153.246-35.225
		s99.762,4.299,142.774,22.714C344.123-190.276,346.264-203.347,342.617-219.938z"/>
	<path display="inline" fill="#FDF3AB" d="M361.976-169.361c-21.17-8.353-47.614-17.018-70.623-19.24
		c-47.551-4.594-97.719-3.22-129.385,3.426s16.168-7.85,67.001-8.602c41.66-0.616,73.945,2.645,123.451,16.772
		C355.279-174.748,358.526-172.159,361.976-169.361z"/>
	<g display="inline">
		<path fill="#FDF3AB" d="M122.309-160.099c-0.795,0.221-1.588,0.435-2.383,0.661C119.926-159.438,120.745-159.68,122.309-160.099z"
			/>
		<path fill="#FDF3AB" d="M122.309-160.099c107.381-29.821,206.896-12.729,250.66,10.611c15.724,8.386,26.716,20.386,34.355,32.355
			c0.244,3.035,0.224,5.692-0.354,8.051c-5.381-12.93-16.471-25.217-34.972-36.333C263.686-194.946,140.806-165.059,122.309-160.099
			z"/>
	</g>
	<path display="inline" fill="#BF91C0" d="M42.679-181.03c-0.214-3.011-1.044-21.665,1.232-24.158s11.224-12.173,89.983-38.312
		s156.234-3.506,176.688,3.104s32.034,20.458,32.034,20.458c0.162,0.736,0.309,1.463,0.448,2.186
		c-16.67-15.951-53.384-37.315-128.858-33.206c-118.071,6.429-164.857,43.956-168.288,48.614c-2.122,2.881-1.879,16.09-1.385,25.751
		C42.794-176.762,42.827-178.95,42.679-181.03z"/>
	<path display="inline" fill="#472A72" d="M42.782-179.555c51.402-23.762,127.918-36.607,190.105-37.314
		c51.225-0.583,91.673,13.477,111.684,22.166c-0.185,2.81-0.448,4.427-0.448,4.427c-43.013-18.415-66.467-24.909-142.774-22.714
		S53.479-180.754,48.102-177.766C43.611-175.27,42.99-177.123,42.782-179.555z"/>
	<path display="inline" fill="#010101" stroke="#010101" stroke-width="12" stroke-miterlimit="10" d="M72.552-226.528
		c0,0-5.001,0.402-5.084,9.659s0.232,30.804,2.908,33.031s5.202,1,3.855-1.678s-3.328-33.683-1.671-36.722
		S73.374-226.752,72.552-226.528z"/>
	<path display="inline" fill="#FECE30" d="M72.552-226.528c0,0-5.001,0.402-5.084,9.659s0.232,30.804,2.908,33.031
		s5.202,1,3.855-1.678s-3.328-33.683-1.671-36.722S73.374-226.752,72.552-226.528z"/>
	<path display="inline" fill="#FAF7ED" d="M275.243-307.506c9.465,2.578,6.262,7.228-1.318,5.103S262.016-311.108,275.243-307.506z"
		/>
	<path display="inline" fill="#FAF7ED" d="M232.806-317.404c15.748,2.431,29.831,3.93,29.06,8.84s-16.368,2.082-29.06,0.514
		s-33.854-1.443-33.658-6.336S223.893-318.78,232.806-317.404z"/>
	<path display="inline" fill="#FAF7ED" d="M194.969-313.752c0.135,2.473-2.195,3.673-12.086,4.515s-18.291,1.039-18.853-1.751
		s5.091-5.581,14.327-5.936S194.719-318.351,194.969-313.752z"/>
	<g display="inline">
		<g>
			<path fill="#010101" d="M126.644-280.306c-1.917,0-3.532-0.471-4.798-1.4c-1.034-0.765-2.258-2.227-2.258-4.876v-1.481
				c0-1.371,0.35-2.566,1.039-3.553c0.691-0.982,1.622-1.704,2.769-2.152c0.975-0.38,2.068-0.572,3.249-0.572
				c1.185,0,2.277,0.194,3.245,0.576c1.133,0.441,2.061,1.154,2.746,2.114c0.708,0.992,1.066,2.189,1.066,3.562v1.532
				c0,2.634-1.236,4.092-2.272,4.852C130.179-280.779,128.566-280.306,126.644-280.306z"/>
			<path fill="#010101" d="M126.644-291.841c0.874,0,1.649,0.134,2.327,0.401c0.687,0.268,1.229,0.682,1.63,1.242
				c0.4,0.561,0.601,1.264,0.601,2.108v1.532c0,1.28-0.417,2.225-1.25,2.835c-0.825,0.611-1.928,0.916-3.308,0.916
				s-2.486-0.305-3.319-0.916c-0.825-0.61-1.237-1.564-1.237-2.861v-1.481c0-0.854,0.196-1.561,0.588-2.121
				c0.4-0.569,0.943-0.987,1.629-1.255C124.991-291.707,125.77-291.841,126.644-291.841 M126.644-285.252
				c0.384,0,0.687-0.092,0.906-0.276c0.229-0.192,0.343-0.46,0.343-0.803v-1.983c0-0.343-0.114-0.606-0.343-0.791
				c-0.22-0.192-0.522-0.289-0.906-0.289s-0.69,0.092-0.919,0.276c-0.22,0.184-0.33,0.448-0.33,0.791v2.007
				c0,0.343,0.11,0.607,0.33,0.791C125.954-285.344,126.26-285.252,126.644-285.252 M126.644-296.841
				c-1.493,0-2.891,0.25-4.156,0.743c-1.593,0.622-2.941,1.671-3.902,3.036c-0.998,1.429-1.499,3.106-1.499,4.999v1.481
				c0,2.88,1.159,5.324,3.264,6.881c1.719,1.262,3.832,1.896,6.292,1.896c2.469,0,4.583-0.639,6.284-1.898
				c2.104-1.541,3.273-3.98,3.273-6.853v-1.532c0-1.903-0.515-3.59-1.531-5.013c-0.96-1.345-2.303-2.38-3.884-2.997
				C129.545-296.588,128.145-296.841,126.644-296.841L126.644-296.841z"/>
		</g>
		<g>
			<path fill="#010101" d="M137.051-280.306c-1.917,0-3.532-0.471-4.798-1.4c-1.034-0.765-2.258-2.227-2.258-4.876v-1.481
				c0-1.371,0.35-2.566,1.039-3.553c0.691-0.982,1.622-1.704,2.769-2.152c0.977-0.38,2.069-0.572,3.249-0.572
				c1.186,0,2.278,0.194,3.246,0.576c1.133,0.442,2.06,1.155,2.745,2.114c0.708,0.992,1.066,2.189,1.066,3.562v1.532
				c0,2.633-1.234,4.091-2.271,4.851C140.586-280.779,138.972-280.306,137.051-280.306z"/>
			<path fill="#010101" d="M137.051-291.841c0.874,0,1.65,0.134,2.328,0.401c0.686,0.268,1.229,0.682,1.629,1.242
				c0.4,0.561,0.601,1.264,0.601,2.108v1.532c0,1.28-0.417,2.225-1.249,2.835c-0.826,0.611-1.928,0.916-3.309,0.916
				c-1.38,0-2.486-0.305-3.319-0.916c-0.825-0.61-1.237-1.564-1.237-2.861v-1.481c0-0.854,0.196-1.561,0.588-2.121
				c0.4-0.569,0.943-0.987,1.629-1.255C135.399-291.707,136.178-291.841,137.051-291.841 M137.051-285.252
				c0.385,0,0.687-0.092,0.907-0.276c0.228-0.192,0.343-0.46,0.343-0.803v-1.983c0-0.343-0.115-0.606-0.343-0.791
				c-0.221-0.192-0.522-0.289-0.907-0.289c-0.384,0-0.689,0.092-0.919,0.276c-0.22,0.184-0.33,0.448-0.33,0.791v2.007
				c0,0.343,0.11,0.607,0.33,0.791C136.362-285.344,136.667-285.252,137.051-285.252 M137.051-296.841
				c-1.491,0-2.889,0.25-4.153,0.742c-1.595,0.623-2.944,1.672-3.904,3.037c-0.998,1.429-1.499,3.106-1.499,4.999v1.481
				c0,2.88,1.159,5.324,3.264,6.881c1.719,1.262,3.832,1.896,6.292,1.896c2.468,0,4.582-0.638,6.283-1.896
				c2.106-1.545,3.275-3.984,3.275-6.855v-1.532c0-1.903-0.515-3.59-1.531-5.013c-0.96-1.344-2.301-2.379-3.881-2.996
				C139.954-296.588,138.553-296.841,137.051-296.841L137.051-296.841z"/>
		</g>
		<g>
			<path fill="#010101" d="M117.284-269.227c-0.533,0-1.043-0.132-1.491-0.378c-0.425,0.247-0.908,0.378-1.412,0.378h-2.524
				c-0.761,0-1.477-0.3-2.013-0.845c-0.527-0.535-0.818-1.242-0.818-1.991v-8.048c0-0.749,0.291-1.456,0.818-1.992
				c0.537-0.544,1.252-0.845,2.013-0.845h2.524c0.469,0,0.921,0.114,1.325,0.329c0.425-0.215,0.898-0.329,1.395-0.329h2.952
				c0.744,0,1.451,0.302,1.966,0.833c0.513,0.514,0.803,1.211,0.803,1.941c0,0.638-0.222,1.261-0.624,1.754l-1.649,2.045
				l2.087,2.673c0.045,0.058,0.088,0.118,0.129,0.181c0.294,0.455,0.45,0.98,0.45,1.52c0,0.732-0.285,1.425-0.803,1.952
				c-0.535,0.535-1.229,0.822-1.966,0.822H117.284z"/>
			<path fill="#010101" d="M120.052-280.448c0.073,0,0.135,0.029,0.184,0.087c0.058,0.05,0.086,0.113,0.086,0.188
				c0,0.066-0.021,0.124-0.062,0.174l-2.903,3.6l3.309,4.236c0.032,0.05,0.049,0.104,0.049,0.162c0,0.075-0.029,0.142-0.086,0.199
				c-0.05,0.05-0.11,0.075-0.184,0.075h-3.161c-0.188,0-0.335-0.066-0.441-0.199l-2.132-2.679v2.542c0,0.092-0.032,0.17-0.098,0.237
				s-0.143,0.1-0.232,0.1h-2.524c-0.09,0-0.167-0.033-0.232-0.1s-0.099-0.145-0.099-0.237v-8.048c0-0.091,0.033-0.17,0.099-0.237
				s0.143-0.1,0.232-0.1h2.524c0.09,0,0.167,0.033,0.232,0.1s0.098,0.146,0.098,0.237v2.342l1.936-2.467
				c0.123-0.142,0.274-0.212,0.454-0.212H120.052 M120.052-285.448H117.1c-0.467,0-0.928,0.059-1.372,0.171
				c-0.435-0.113-0.887-0.171-1.348-0.171h-2.524c-1.436,0-2.784,0.565-3.794,1.59c-0.991,1.006-1.537,2.336-1.537,3.746v8.048
				c0,1.41,0.546,2.74,1.537,3.746c1.01,1.025,2.358,1.59,3.794,1.59h2.524c0.491,0,0.971-0.066,1.431-0.194
				c0.473,0.127,0.967,0.194,1.472,0.194h3.161c1.406,0,2.727-0.546,3.719-1.539c1.01-1.028,1.55-2.343,1.55-3.735
				c0-1.023-0.294-2.018-0.851-2.878c-0.081-0.125-0.166-0.245-0.257-0.361l-0.866-1.109l0.412-0.511
				c0.748-0.917,1.169-2.101,1.169-3.313c0-1.387-0.549-2.711-1.518-3.691C122.82-284.875,121.472-285.448,120.052-285.448
				L120.052-285.448z"/>
		</g>
		<g>
			<path fill="#010101" d="M122.241-269.227c-0.762,0-1.478-0.3-2.014-0.845c-0.527-0.535-0.817-1.242-0.817-1.991v-8.048
				c0-0.75,0.29-1.457,0.817-1.992c0.537-0.544,1.252-0.845,2.014-0.845h7.62c0.761,0,1.477,0.3,2.013,0.845
				c0.527,0.535,0.818,1.242,0.818,1.991v1.757c0,0.677-0.238,1.321-0.674,1.834v0.731c0.514,0.532,0.796,1.23,0.796,1.969v1.757
				c0,0.75-0.29,1.457-0.817,1.991c-0.537,0.545-1.252,0.845-2.014,0.845H122.241z"/>
			<path fill="#010101" d="M129.861-280.448c0.091,0,0.167,0.033,0.232,0.1s0.099,0.146,0.099,0.237v1.757
				c0,0.091-0.033,0.17-0.099,0.237c-0.065,0.066-0.142,0.1-0.232,0.1h-4.766v0.785h4.092c0.09,0,0.167,0.033,0.232,0.1
				c0.065,0.066,0.099,0.145,0.099,0.236v1.62c0,0.091-0.033,0.17-0.099,0.236s-0.143,0.1-0.232,0.1h-4.092v0.785h4.888
				c0.091,0,0.168,0.033,0.233,0.1s0.098,0.145,0.098,0.236v1.757c0,0.092-0.032,0.17-0.098,0.237s-0.143,0.1-0.233,0.1h-7.742
				c-0.09,0-0.168-0.033-0.233-0.1s-0.098-0.145-0.098-0.237v-8.048c0-0.091,0.032-0.17,0.098-0.237s0.144-0.1,0.233-0.1H129.861
				 M129.861-285.448h-7.62c-1.437,0-2.785,0.565-3.795,1.59c-0.991,1.005-1.536,2.335-1.536,3.746v8.048
				c0,1.41,0.545,2.741,1.536,3.746c1.01,1.025,2.358,1.59,3.795,1.59h7.742c1.437,0,2.785-0.565,3.795-1.59
				c0.991-1.005,1.536-2.336,1.536-3.746v-1.757c0-0.846-0.196-1.663-0.567-2.399c0.292-0.667,0.445-1.391,0.445-2.136v-1.757
				c0-1.41-0.546-2.741-1.538-3.747C132.645-284.883,131.297-285.448,129.861-285.448L129.861-285.448z"/>
		</g>
		<g>
			<path fill="#010101" d="M114.505-256.705c-3.793,0-6.992-1.211-9.25-3.503c-5.784-5.869-4.123-17.545,3.944-28.816
				c-0.013-0.109-0.019-0.22-0.019-0.332v-2.02c0-0.75,0.291-1.458,0.818-1.994c0.531-0.542,1.249-0.845,2.013-0.845h1.406
				c0.422-0.461,0.854-0.917,1.289-1.362c0.389-0.397,0.785-0.791,1.186-1.178c-0.748-0.339-1.564-0.52-2.396-0.52
				c-1.381,0-2.5-1.119-2.5-2.5s1.119-2.5,2.5-2.5c3.276,0,5.941-2.736,5.941-6.099c0-1.381,1.119-2.5,2.5-2.5s2.5,1.119,2.5,2.5
				c0,1.488,0.529,2.905,1.461,4.003c5.024-2.894,10.072-4.472,14.375-4.472c3.793,0,6.992,1.211,9.251,3.503
				c6.292,6.385,3.633,19.735-6.089,31.615c0,0,0.094,0.124,0.128,0.176c0.307,0.461,0.47,0.997,0.47,1.549
				c0,0.732-0.285,1.425-0.803,1.952c-0.519,0.529-1.218,0.822-1.966,0.822h-1.932c-0.398,0.393-0.802,0.78-1.21,1.159
				c1.041,0.302,1.802,1.263,1.802,2.401c0,1.38-1.119,2.5-2.5,2.5c-1.879,0-3.409,1.578-3.41,3.516c0,1.38-1.119,2.499-2.499,2.499
				c0,0-0.001,0-0.001,0c-1.38,0-2.499-1.118-2.5-2.498c0-0.503-0.104-0.99-0.296-1.435
				C123.746-258.249,118.763-256.705,114.505-256.705z M112.309-282.313c-3.55,6.669-4.145,13.078-1.135,16.132
				c1.266,1.285,3.094,1.937,5.433,1.937c1.947,0,4.176-0.475,6.497-1.368c0-0.018,0-0.037,0-0.055c0-1.381,1.119-2.5,2.5-2.5
				c1.878,0,3.409-1.578,3.41-3.518c0-0.737,0.321-1.4,0.829-1.857v-6.571c0-0.749,0.291-1.456,0.818-1.991
				c0.537-0.545,1.252-0.845,2.013-0.845h2.523c0.47,0,0.922,0.114,1.326,0.33c0.425-0.216,0.898-0.33,1.395-0.33h2.952
				c0.454,0,0.895,0.112,1.286,0.321c3.968-6.957,4.844-13.855,1.671-17.073c-1.266-1.285-3.095-1.937-5.434-1.937
				c-1.71,0-3.633,0.365-5.646,1.057c0.086,0.252,0.132,0.523,0.132,0.805c0,1.381-1.119,2.5-2.5,2.5
				c-3.277,0-5.943,2.736-5.943,6.1c0,0.886-0.461,1.665-1.157,2.109c-0.064,0.642-0.344,1.238-0.802,1.704
				c-0.525,0.541-1.245,0.846-2.014,0.846h-0.133v3.248c0,0.746-0.288,1.452-0.812,1.986c-0.538,0.55-1.255,0.853-2.02,0.853h-2.523
				c-0.765,0-1.483-0.303-2.021-0.853C112.664-281.581,112.445-281.932,112.309-282.313z"/>
			<path fill="#010101" d="M121.936-308.375c0,2.947,1.457,5.547,3.676,7.097c5.185-3.286,10.364-5.066,14.66-5.066
				c3.033,0,5.626,0.887,7.47,2.758c5.66,5.743,2.249,18.708-7.532,29.793l1.272,1.629c0.033,0.05,0.05,0.104,0.05,0.162
				c0,0.075-0.029,0.142-0.086,0.199c-0.049,0.05-0.11,0.075-0.184,0.075h-2.971c-0.002,0.003-0.005,0.005-0.008,0.008
				c-1.586,1.623-3.228,3.103-4.895,4.432c1.057,1.005,2.474,1.621,4.033,1.621c-3.263,0-5.908,2.693-5.909,6.015
				c-0.002-1.902-0.87-3.596-2.224-4.698c-5.227,3.336-10.455,5.145-14.785,5.145c-3.032,0-5.625-0.887-7.47-2.758
				c-5.199-5.276-2.743-16.646,5.272-27.055h-0.297c-0.09,0-0.167-0.033-0.232-0.101c-0.065-0.066-0.099-0.146-0.099-0.238v-2.02
				c0-0.092,0.032-0.171,0.099-0.239c0.065-0.067,0.143-0.1,0.232-0.1h2.521c0.628-0.713,1.282-1.419,1.962-2.115
				c1.072-1.097,2.17-2.127,3.282-3.091c-1.545-1.752-3.786-2.855-6.28-2.855C118.157-299.776,121.936-303.625,121.936-308.375
				 M121.936-291.176c0-1.839-0.568-3.542-1.533-4.94c-1.043,0.888-2.067,1.842-3.065,2.863c-0.496,0.506-0.975,1.02-1.438,1.538
				h4.563c0.09,0,0.168,0.033,0.233,0.1c0.065,0.067,0.098,0.146,0.098,0.239v2.02c0,0.093-0.032,0.172-0.098,0.238
				c-0.065,0.067-0.144,0.101-0.233,0.101h-2.633v5.748c0,0.092-0.033,0.171-0.099,0.238s-0.143,0.101-0.232,0.101h-2.523
				c-0.09,0-0.168-0.034-0.233-0.101s-0.098-0.146-0.098-0.238v-5.748h-0.976c-7.12,9.323-9.136,19.66-4.275,24.592
				c1.792,1.818,4.302,2.682,7.214,2.682c3.412,0,7.377-1.186,11.386-3.408c-0.73-0.329-1.539-0.514-2.39-0.514
				c3.262,0,5.907-2.692,5.91-6.015c0,1.308,0.412,2.517,1.108,3.504c1.612-1.22,3.201-2.602,4.729-4.136l-1.822-2.291v2.542
				c0,0.092-0.033,0.17-0.099,0.237s-0.144,0.1-0.233,0.1h-2.523c-0.09,0-0.167-0.033-0.232-0.1s-0.099-0.145-0.099-0.237v-8.048
				c0-0.091,0.033-0.17,0.099-0.237s0.143-0.1,0.232-0.1h2.523c0.09,0,0.168,0.033,0.233,0.1s0.099,0.146,0.099,0.237v2.342
				l1.935-2.467c0.123-0.142,0.274-0.212,0.454-0.212h2.952c0.074,0,0.135,0.029,0.184,0.087c0.058,0.05,0.087,0.113,0.087,0.188
				c0,0.066-0.021,0.124-0.062,0.174l-2.904,3.6l1.359,1.741c8.555-9.847,11.321-21.474,6.074-26.797
				c-1.792-1.819-4.302-2.682-7.215-2.682c-3.479,0-7.532,1.232-11.621,3.539c1.095,0.527,2.316,0.823,3.607,0.823
				C125.716-299.776,121.936-295.926,121.936-291.176 M121.936-313.375c-2.761,0-5,2.239-5,5c0,1.984-1.544,3.599-3.441,3.599
				c-2.761,0-5,2.239-5,5c0,1.357,0.541,2.587,1.418,3.488c-0.632,0.271-1.212,0.668-1.709,1.177
				c-0.978,0.992-1.524,2.323-1.524,3.734v1.583c-8.501,12.229-9.849,24.599-3.206,31.34c2.74,2.779,6.555,4.249,11.031,4.249
				c3.902,0,8.17-1.089,12.55-3.182c0.826,1.623,2.513,2.735,4.458,2.735c0,0,0.001,0,0.002,0c2.76-0.001,4.997-2.238,4.998-4.999
				c0-0.561,0.408-1.017,0.91-1.017c2.761,0,4.999-2.239,4.999-5c0-0.399-0.047-0.787-0.135-1.159
				c1.033-0.202,1.978-0.709,2.73-1.477c0.975-0.991,1.515-2.307,1.515-3.699c0-0.467-0.061-0.927-0.18-1.372
				c9.876-12.726,12.042-26.529,4.951-33.723c-2.739-2.779-6.554-4.249-11.031-4.249c-4.12,0-8.651,1.215-13.292,3.545
				c-0.029-0.189-0.044-0.381-0.044-0.576C126.936-311.136,124.697-313.375,121.936-313.375L121.936-313.375z M135.269-298.726
				c1.11-0.271,2.162-0.412,3.124-0.412c1.645,0,2.875,0.401,3.653,1.191c1.944,1.972,1.612,6.897-1.195,12.498h-2.934
				c-0.467,0-0.928,0.059-1.372,0.171c-0.435-0.113-0.887-0.171-1.349-0.171h-2.523c-1.436,0-2.784,0.565-3.794,1.59
				c-0.991,1.006-1.537,2.336-1.537,3.746v5.671c-0.523,0.79-0.828,1.736-0.829,2.754c0,0.562-0.409,1.02-0.91,1.02
				c-2.114,0-3.922,1.312-4.653,3.167c-1.563,0.496-3.037,0.756-4.343,0.756c-1.645,0-2.874-0.401-3.653-1.191
				c-1.633-1.657-1.705-5.56,0.198-10.314c0.577,0.209,1.191,0.319,1.823,0.319h2.523c1.443,0,2.795-0.57,3.807-1.604
				c0.983-1.005,1.524-2.331,1.524-3.734v-1.3c0.534-0.266,1.024-0.624,1.454-1.065c0.576-0.584,1.002-1.293,1.252-2.071
				c0.867-0.899,1.4-2.123,1.4-3.47c0-1.985,1.545-3.6,3.443-3.6C132.78-294.776,134.786-296.469,135.269-298.726L135.269-298.726z"
				/>
		</g>
	</g>
	<polygon display="inline" fill="#010101" stroke="#010101" stroke-width="5" stroke-miterlimit="10" points="122.595,-297.758 
		138.991,-303.037 146.706,-299.115 147.736,-292.941 145.133,-282.557 140.766,-275.665 133.453,-268.906 124.462,-263.553 
		116.207,-260.551 109.773,-261.598 105.552,-267.795 106.588,-276.153 109.075,-283.485 114.567,-290.646 	"/>
	
		<polyline display="inline" fill="#FDB925" stroke="#010101" stroke-width="5" stroke-linecap="round" stroke-linejoin="round" stroke-miterlimit="10" points="
		120.082,-295.055 120.051,-294.999 118.639,-292.384 120.586,-291.914 	"/>
	<g display="inline">
		<path fill="#FDB925" d="M121.936-308.375c0,4.75-3.779,8.599-8.441,8.599c4.662,0,8.441,3.85,8.441,8.6c0-4.75,3.78-8.6,8.443-8.6
			C125.716-299.776,121.936-303.625,121.936-308.375z"/>
	</g>
	<g display="inline">
		<path fill="#FDB925" d="M125.603-265.667c3.262,0,5.907,2.693,5.91,6.015c0.001-3.322,2.646-6.015,5.909-6.015
			c-3.263,0-5.908-2.692-5.909-6.015C131.51-268.359,128.865-265.667,125.603-265.667z"/>
	</g>
	<path display="inline" fill="#FDB925" d="M147.742-303.586c-6.018-6.106-20.009-1.738-31.249,9.756s-15.475,25.761-9.458,31.867
		c6.019,6.105,20.009,1.737,31.249-9.756C149.526-283.213,153.759-297.48,147.742-303.586z M137.664-272.629
		c-10,10.226-22.657,13.898-28.271,8.203s-2.057-18.602,7.944-28.827c10-10.226,22.657-13.898,28.271-8.203
		C151.221-295.761,147.665-282.854,137.664-272.629z"/>
	<path display="inline" fill="#7D6AAF" d="M120.462-291.715c0.09,0,0.168,0.033,0.233,0.1c0.065,0.067,0.098,0.146,0.098,0.239v2.02
		c0,0.093-0.032,0.172-0.098,0.238c-0.065,0.067-0.144,0.101-0.233,0.101h-2.633v5.748c0,0.092-0.033,0.171-0.099,0.238
		s-0.143,0.101-0.232,0.101h-2.523c-0.09,0-0.168-0.034-0.233-0.101s-0.098-0.146-0.098-0.238v-5.748h-2.634
		c-0.09,0-0.167-0.033-0.232-0.101c-0.065-0.066-0.099-0.146-0.099-0.238v-2.02c0-0.092,0.032-0.171,0.099-0.239
		c0.065-0.067,0.143-0.1,0.232-0.1H120.462z"/>
	<path display="inline" fill="#7D6AAF" d="M131.202-286.557c0,1.28-0.417,2.225-1.25,2.835c-0.825,0.611-1.928,0.916-3.308,0.916
		s-2.486-0.305-3.319-0.916c-0.825-0.61-1.237-1.564-1.237-2.861v-1.481c0-0.854,0.196-1.561,0.588-2.121
		c0.4-0.569,0.943-0.987,1.629-1.255c0.687-0.268,1.466-0.401,2.34-0.401s1.649,0.134,2.327,0.401
		c0.687,0.268,1.229,0.682,1.63,1.242c0.4,0.561,0.601,1.264,0.601,2.108V-286.557L131.202-286.557z M125.395-286.319
		c0,0.343,0.11,0.607,0.33,0.791c0.229,0.184,0.535,0.276,0.919,0.276s0.687-0.092,0.906-0.276c0.229-0.192,0.343-0.46,0.343-0.803
		v-1.983c0-0.343-0.114-0.606-0.343-0.791c-0.22-0.192-0.522-0.289-0.906-0.289s-0.69,0.092-0.919,0.276
		c-0.22,0.184-0.33,0.448-0.33,0.791V-286.319z"/>
	<path display="inline" fill="#7D6AAF" d="M141.609-286.557c0,1.28-0.417,2.225-1.249,2.835c-0.826,0.611-1.928,0.916-3.309,0.916
		c-1.38,0-2.486-0.305-3.319-0.916c-0.825-0.61-1.237-1.564-1.237-2.861v-1.481c0-0.854,0.196-1.561,0.588-2.121
		c0.4-0.569,0.943-0.987,1.629-1.255c0.688-0.268,1.467-0.401,2.34-0.401c0.874,0,1.65,0.134,2.328,0.401
		c0.686,0.268,1.229,0.682,1.629,1.242c0.4,0.561,0.601,1.264,0.601,2.108V-286.557z M135.802-286.319
		c0,0.343,0.11,0.607,0.33,0.791c0.229,0.184,0.535,0.276,0.919,0.276c0.385,0,0.687-0.092,0.907-0.276
		c0.228-0.192,0.343-0.46,0.343-0.803v-1.983c0-0.343-0.115-0.606-0.343-0.791c-0.221-0.192-0.522-0.289-0.907-0.289
		c-0.384,0-0.689,0.092-0.919,0.276c-0.22,0.184-0.33,0.448-0.33,0.791V-286.319z"/>
	<path display="inline" fill="#FFFFFF" d="M120.666-272.163c0.032,0.05,0.049,0.104,0.049,0.162c0,0.075-0.029,0.142-0.086,0.199
		c-0.05,0.05-0.11,0.075-0.184,0.075h-3.161c-0.188,0-0.335-0.066-0.441-0.199l-2.132-2.679v2.542c0,0.092-0.032,0.17-0.098,0.237
		s-0.143,0.1-0.232,0.1h-2.524c-0.09,0-0.167-0.033-0.232-0.1s-0.099-0.145-0.099-0.237v-8.048c0-0.091,0.033-0.17,0.099-0.237
		s0.143-0.1,0.232-0.1h2.524c0.09,0,0.167,0.033,0.232,0.1s0.098,0.146,0.098,0.237v2.342l1.936-2.467
		c0.123-0.142,0.274-0.212,0.454-0.212h2.952c0.073,0,0.135,0.029,0.184,0.087c0.058,0.05,0.086,0.113,0.086,0.188
		c0,0.066-0.021,0.124-0.062,0.174l-2.903,3.6L120.666-272.163z"/>
	<path display="inline" fill="#FFFFFF" d="M129.983-274.156c0.091,0,0.168,0.033,0.233,0.1s0.098,0.145,0.098,0.236v1.757
		c0,0.092-0.032,0.17-0.098,0.237s-0.143,0.1-0.233,0.1h-7.742c-0.09,0-0.168-0.033-0.233-0.1s-0.098-0.145-0.098-0.237v-8.048
		c0-0.091,0.032-0.17,0.098-0.237s0.144-0.1,0.233-0.1h7.62c0.091,0,0.167,0.033,0.232,0.1s0.099,0.146,0.099,0.237v1.757
		c0,0.091-0.033,0.17-0.099,0.237c-0.065,0.066-0.142,0.1-0.232,0.1h-4.766v0.785h4.092c0.09,0,0.167,0.033,0.232,0.1
		c0.065,0.066,0.099,0.145,0.099,0.236v1.62c0,0.091-0.033,0.17-0.099,0.236s-0.143,0.1-0.232,0.1h-4.092v0.785H129.983
		L129.983-274.156z"/>
	<path display="inline" fill="#FFFFFF" d="M141.482-272.163c0.033,0.05,0.05,0.104,0.05,0.162c0,0.075-0.029,0.142-0.086,0.199
		c-0.049,0.05-0.11,0.075-0.184,0.075h-3.161c-0.188,0-0.335-0.066-0.44-0.199l-2.132-2.679v2.542c0,0.092-0.033,0.17-0.099,0.237
		s-0.144,0.1-0.233,0.1h-2.523c-0.09,0-0.167-0.033-0.232-0.1s-0.099-0.145-0.099-0.237v-8.048c0-0.091,0.033-0.17,0.099-0.237
		s0.143-0.1,0.232-0.1h2.523c0.09,0,0.168,0.033,0.233,0.1s0.099,0.146,0.099,0.237v2.342l1.935-2.467
		c0.123-0.142,0.274-0.212,0.454-0.212h2.952c0.074,0,0.135,0.029,0.184,0.087c0.058,0.05,0.087,0.113,0.087,0.188
		c0,0.066-0.021,0.124-0.062,0.174l-2.904,3.6L141.482-272.163z"/>
</g>
<g id="Layer_2" display="none">
	<path display="inline" fill="#010101" stroke="#010101" stroke-width="12" stroke-miterlimit="10" d="M206.15,199.417
		c0,0,89.631,16.604,101.631-15.229s-5.412-215.61-5.412-215.61l33.93,5.744c0,0,37.521,5.428,44.064,1.219s5.154-5.654,4.83-47.904
		c-2.412-44.449-11.195-62.789-11.195-62.789l-146.342-41.449l-99.268-5.545l-77.275,28.334l-39.768,52.648l137.268,56.685
		L206.15,199.417z"/>
	<path display="inline" fill="#010101" stroke="#010101" stroke-width="12" stroke-miterlimit="10" d="M13.52-118.349
		c0,0-1.929,2.81-2.364,23.131c-0.434,20.322-1.742,44.555,2.124,45.156s79.083-2.043,79.083-2.043s10.5,219.459,35.75,232.709
		s97,21.512,97,21.512s48.66,4.441,50.33-41.16s-7.205-199.727-7.205-199.727s71.51,16.528,77.244,12.955
		c5.734-3.574,7.318-87.762,4.131-92.33C350.488-137.896,142.427-233.554,13.52-118.349z"/>
	<path display="inline" fill="#8B69AD" d="M13.52-118.349c0,0-1.929,2.81-2.364,23.131c-0.434,20.322-1.742,44.555,2.124,45.156
		s79.083-2.043,79.083-2.043s10.5,219.459,35.75,232.709s97,21.512,97,21.512s48.66,4.441,50.33-41.16s-7.205-199.727-7.205-199.727
		s71.51,16.528,77.244,12.955c5.734-3.574,7.318-87.762,4.131-92.33C350.488-137.896,142.427-233.554,13.52-118.349z"/>
	<path display="inline" fill="#472A72" d="M13.52-118.349c0,0-1.929,2.81-2.364,23.131c-0.036,1.715-0.079,3.457-0.125,5.211
		c38.189-18.457,104.398-45.186,159.77-40.509c83.313,7.038,177.861,42.854,177.861,42.854l36.354,8.648
		c0.014-10.732-0.48-19.133-1.527-20.633C384.363-119.396,142.427-233.554,13.52-118.349z"/>
	<path display="inline" fill="#010101" stroke="#010101" stroke-width="12" stroke-miterlimit="10" d="M351.234-114.146
		c0,0-0.725,84.035-5.09,87.518c0.115,0.275-2.275,1.717-2.275,1.717s33.83,4.658,38.037-0.621s4.377-52.92,2.375-59.517
		c-2-6.597-3.834-36.263-3.834-36.263S349.023-133.812,351.234-114.146z"/>
	<path display="inline" fill="#472A72" d="M351.234-114.146c0,0-0.725,84.035-5.09,87.518c-4.363,3.482-4.363,3.482-4.363,3.482
		s35.918,2.893,40.125-2.387s4.377-52.92,2.375-59.517c-2-6.597-3.834-36.263-3.834-36.263S349.023-133.812,351.234-114.146z"/>
	<path display="inline" fill="none" stroke="#010101" stroke-width="10" stroke-miterlimit="10" d="M148.613-38.771
		c0,0,21.43,19.375,40.715-3.375"/>
	<path display="inline" fill="#301F56" d="M385.355-73.448c-0.197-5.603-0.566-9.927-1.074-11.602
		c-2-6.597-3.834-36.263-3.834-36.263s-31.424-12.5-29.213,7.166c0,0-0.104,12.088-0.473,27.28
		C359.304-83.662,376.882-77.017,385.355-73.448z"/>
	<path display="inline" fill="#BF91C0" d="M13.052-54.7c0,0-2.28,2.536,3.055,2.508c5.334-0.028,71.992-1.104,73.148-1.554
		c1.158-0.449,2.375-2.305-1.008-2.551C84.863-56.543,14.553-54.667,13.052-54.7z"/>
	<path display="inline" fill="#472A72" d="M258.363,188.354c-9.75,6.75-30.75,6.25-65.5,1.5s-52.125-9.25-65.75-23.5
		S96.539-14.321,94.318-30.503c-0.32-2.324-0.949-4.117-1.102-5.982c2.957,50.379,13.758,205.999,34.896,217.09
		c25.25,13.25,97,21.512,97,21.512s38.188,3.479,48.061-27.434C267.746,180.321,262.15,185.733,258.363,188.354z"/>
	<path display="inline" fill="#BF91C0" d="M124.613,158.022c-1.75-2.5-10-46.879-13.313-75.148
		c-2.395-20.443-9.398-73.735-13.094-101.676c-0.592-1.654-2.842-2.779-2.623-0.002c0.4,2.854,0.688,4.891,0.688,4.891
		s15.217,146.893,25.967,172.643c0,0,3.518,8.625,12.268,14.25C136.21,171.325,126.947,165.772,124.613,158.022z"/>
	<path display="inline" fill="#010101" stroke="#010101" stroke-width="12" stroke-miterlimit="10" d="M4.478-102.513
		c0,0,21.352-68.576,162.309-65.268c140.959,3.309,217.432,66.612,219.504,71.041c4.158,11.59,4.656,19.512,4.656,19.512
		s24.777-15.666,15.223-31.417c-9.557-15.751-54.146-65.616-54.146-65.616l-1.453-68.752c0,0,7.244-36.201-23.855-54.916
		c-31.102-18.717-85.102-37.693-151.102-32.705s-96.709,36.473-97.41,39.508c-0.703,3.035-6.654,51.416-6.654,51.416l-9.084,51.316
		c0,0-63.638,48.182-65.261,60.596S-5.674-108,4.478-102.513z"/>
	<path display="inline" fill="#75579B" d="M406.669-109.593c-9.557-15.75-54.146-65.617-54.146-65.617l-1.453-68.75
		c0,0,7.244-36.201-23.855-54.918c-31.102-18.715-85.102-37.691-151.102-32.703s-96.709,36.473-97.41,39.508
		c-0.004,0.014-0.008,0.037-0.012,0.053c-0.281,0.401-0.445,0.705-0.488,0.895c-0.703,3.035-6.654,51.416-6.654,51.416l-8.969,50.66
		c-4.979,3.791-57.322,43.857-64.164,58.155c-0.674,1.185-1.099,2.23-1.212,3.097C-4.419-115.384-5.674-108,4.478-102.513
		c0,0,0.115-0.365,0.372-1.021c0.044,0.024,0.084,0.049,0.128,0.072c0,0,0.576-1.834,2.141-4.877
		c8.889-16.488,44.018-62.156,159.668-59.441c140.959,3.309,215.244,67.07,219.504,71.041c4.26,3.969,4.656,18.262,4.656,18.262
		S402.923-85.455,407.007-95C409.24-99.33,409.863-104.33,406.669-109.593z"/>
	<g display="inline">
		<path fill="#472A72" d="M352.523-175.21l-1.453-68.75c0,0,7.244-36.201-23.855-54.918c-15.1-9.086-35.609-18.227-60.258-24.662
			c20.852,10.934,41.15,22.297,44.854,26.895c8.053,10-4.596,34.607-6.146,56.805c-1.551,22.195,10.926,52.959,23.313,76.828
			c9.488,18.281,14.883,18.248,16.379,38.512c26.176,13.754,40.068,25.908,40.936,27.762c4.701,9.41,4.656,18.262,4.656,18.262
			S402.923-85.455,407.007-95c2.232-4.33,2.855-9.33-0.338-14.594C397.113-125.343,352.523-175.21,352.523-175.21z"/>
		<path fill="#472A72" d="M78.703-292.074c-0.004,0.014-0.008,0.037-0.012,0.053c-0.281,0.401-0.445,0.705-0.488,0.895
			c-0.703,3.035-6.654,51.416-6.654,51.416l-5.424,30.637l17.521-9.732c0,0,1.359-50.088,18.523-91.861
			C86.673-301.946,79.048-293.568,78.703-292.074z"/>
	</g>
	<path display="inline" fill="#BF91C0" d="M84.117-177.637c89.996-17.142,175.375,1.011,175.375,1.011s-67.381-17.076-138.938-9.18
		c-34.879,3.102-65.1,11.396-86.584,20.1C16.801-151.419-1.925-134.46-2.796-127.798c-0.005,0.04-0.011,0.078-0.016,0.119
		C10.126-146.125,35.398-168.358,84.117-177.637z"/>
	<g display="inline">
		<path fill="#010101" d="M393.136-129.167c-20.014-9.801-66.816-32.439-70.326-31.523c-4.473,1.166-12.811-3.084,35.543,18.217
			c20.959,9.232,34.285,17.152,42.66,23.164C398.638-122.375,395.966-125.708,393.136-129.167z"/>
		<path fill="#010101" d="M338.753-160.718c3.984,1.332,29.139,12.709,44.52,19.711c-1.836-2.172-3.672-4.326-5.479-6.434
			c-9.564-4.029-21.402-8.965-28.482-11.728C335.951-164.382,332.951-162.659,338.753-160.718z"/>
	</g>
	<path display="inline" fill="#472A72" d="M185.421-176.601c-96.877,0-176.869,27.773-189.045,63.736
		c0.697,4.229,2.9,7.541,8.102,10.352c0,0,21.352-68.576,162.309-65.268c140.959,3.309,209.07,65.129,215.355,67.883
		c6.283,2.752,9.055,20.419,9.055,20.419s3.402-1.862,7.18-5.012l0,0C398.376-124.965,290.716-176.601,185.421-176.601z"/>
	<path display="inline" fill="#010101" stroke="#010101" stroke-width="12" stroke-miterlimit="10" d="M60.966-222.554
		c0,0,11.58-13.848,32.033-20.459c20.453-6.609,97.928-29.242,176.688-3.104c78.76,26.138,87.707,35.817,89.984,38.311
		c2.275,2.494,1.445,21.148,1.232,24.158c-0.215,3.012-0.047,6.254-5.424,3.266s-76.938-33.029-153.246-35.225
		c-76.307-2.195-99.762,4.299-142.773,22.713C59.46-192.894,57.318-205.964,60.966-222.554z"/>
	<path display="inline" fill="#FECE30" d="M60.966-222.554c0,0,11.58-13.848,32.033-20.459
		c20.453-6.609,97.928-29.242,176.688-3.104c78.76,26.138,87.707,35.817,89.984,38.311c2.275,2.494,1.445,21.148,1.232,24.158
		c-0.215,3.012-0.047,6.254-5.424,3.266s-76.938-33.029-153.246-35.225c-76.307-2.195-99.762,4.299-142.773,22.713
		C59.46-192.894,57.318-205.964,60.966-222.554z"/>
	<path display="inline" fill="#BF91C0" d="M41.607-171.978c21.17-8.353,47.613-17.018,70.623-19.24
		c47.551-4.594,97.719-3.221,129.385,3.426s-16.168-7.85-67.002-8.602c-41.66-0.615-73.945,2.645-123.451,16.773
		C48.304-177.365,45.056-174.777,41.607-171.978z"/>
	<g display="inline">
		<path fill="#BF91C0" d="M281.273-162.716c0.795,0.221,1.588,0.436,2.383,0.661C283.656-162.055,282.837-162.296,281.273-162.716z"
			/>
		<path fill="#BF91C0" d="M281.273-162.716c-107.381-29.82-206.896-12.729-250.66,10.611C14.89-143.718,3.898-131.718-3.742-119.75
			c-0.245,3.035-0.224,5.692,0.353,8.051c5.381-12.93,16.471-25.217,34.973-36.332C139.896-197.564,262.777-167.675,281.273-162.716
			z"/>
	</g>
	<path display="inline" fill="#FDF3AB" d="M360.904-183.648c0.213-3.01,1.043-21.664-1.232-24.158
		c-2.277-2.493-11.225-12.173-89.984-38.311c-78.76-26.139-156.234-3.506-176.688,3.104c-20.453,6.611-32.033,20.459-32.033,20.459
		c-0.162,0.736-0.309,1.463-0.449,2.186c16.67-15.951,53.385-37.316,128.859-33.206c118.07,6.429,164.857,43.956,168.287,48.614
		c2.123,2.881,1.879,16.09,1.385,25.751C360.789-179.378,360.755-181.567,360.904-183.648z"/>
	<path display="inline" fill="#E27A3B" d="M360.8-182.171c-51.402-23.762-127.918-36.607-190.105-37.314
		c-51.225-0.584-91.672,13.477-111.684,22.166c0.186,2.809,0.449,4.426,0.449,4.426c43.012-18.414,66.467-24.908,142.773-22.713
		c76.309,2.195,147.869,32.236,153.246,35.225C359.972-177.886,360.593-179.74,360.8-182.171z"/>
	<path display="inline" fill="#010101" stroke="#010101" stroke-width="12" stroke-miterlimit="10" d="M331.031-229.146
		c0,0,5,0.402,5.084,9.66c0.082,9.257-0.232,30.804-2.908,33.03s-5.203,1-3.855-1.679c1.346-2.678,3.328-33.682,1.67-36.722
		C329.365-227.896,330.208-229.369,331.031-229.146z"/>
	<path display="inline" fill="#8B69AD" d="M331.031-229.146c0,0,5,0.402,5.084,9.66c0.082,9.257-0.232,30.804-2.908,33.03
		s-5.203,1-3.855-1.679c1.346-2.678,3.328-33.682,1.67-36.722C329.365-227.896,330.208-229.369,331.031-229.146z"/>
	<path display="inline" fill="#FAF7ED" d="M128.339-310.123c-9.465,2.577-6.262,7.227,1.318,5.102S141.566-313.726,128.339-310.123z
		"/>
	<path display="inline" fill="#FAF7ED" d="M170.777-320.021c-15.748,2.431-29.832,3.93-29.061,8.84s16.369,2.082,29.061,0.514
		c12.691-1.566,33.854-1.443,33.658-6.336C204.238-321.896,179.689-321.398,170.777-320.021z"/>
	<path display="inline" fill="#FAF7ED" d="M208.613-316.369c-0.135,2.473,2.195,3.673,12.086,4.514
		c9.891,0.842,18.291,1.039,18.854-1.75c0.561-2.791-5.092-5.582-14.328-5.936C215.988-319.896,208.863-320.968,208.613-316.369z"/>
	<g display="inline">
		<g>
			<path fill="#010101" d="M263.474-286.624c-1.917,0-3.531-0.471-4.798-1.399c-1.036-0.768-2.259-2.229-2.259-4.877v-1.481
				c0-1.374,0.35-2.569,1.04-3.556c0.688-0.979,1.619-1.701,2.768-2.149c0.974-0.38,2.066-0.572,3.249-0.572
				c1.185,0,2.276,0.193,3.244,0.576c1.133,0.44,2.062,1.153,2.747,2.114c0.707,0.989,1.065,2.188,1.065,3.562v1.532
				c0,2.636-1.236,4.094-2.273,4.853C267.01-287.097,265.397-286.624,263.474-286.624z"/>
			<path fill="#010101" d="M263.474-298.159c0.873,0,1.648,0.134,2.326,0.401c0.688,0.268,1.23,0.682,1.631,1.242
				s0.6,1.264,0.6,2.108v1.532c0,1.279-0.416,2.225-1.25,2.835c-0.824,0.611-1.928,0.916-3.307,0.916
				c-1.381,0-2.486-0.305-3.32-0.916c-0.824-0.61-1.236-1.564-1.236-2.86v-1.481c0-0.854,0.195-1.561,0.588-2.121
				c0.4-0.569,0.943-0.987,1.629-1.255S262.599-298.159,263.474-298.159 M263.474-291.57c0.383,0,0.686-0.092,0.906-0.276
				c0.229-0.192,0.342-0.46,0.342-0.804v-1.982c0-0.343-0.113-0.606-0.342-0.791c-0.221-0.191-0.523-0.288-0.906-0.288
				c-0.385,0-0.691,0.092-0.92,0.276c-0.219,0.184-0.33,0.447-0.33,0.791v2.007c0,0.343,0.111,0.606,0.33,0.791
				C262.783-291.662,263.089-291.57,263.474-291.57 M263.474-303.159c-1.495,0-2.894,0.25-4.158,0.743
				c-1.592,0.622-2.94,1.672-3.9,3.037c-0.996,1.422-1.498,3.101-1.498,4.997v1.481c0,2.879,1.158,5.321,3.261,6.879
				c1.725,1.264,3.836,1.897,6.296,1.897c2.471,0,4.586-0.64,6.285-1.9c2.101-1.537,3.271-3.977,3.271-6.851v-1.532
				c0-1.905-0.516-3.593-1.531-5.015c-0.959-1.344-2.303-2.38-3.886-2.995C266.375-302.906,264.974-303.159,263.474-303.159
				L263.474-303.159z"/>
		</g>
		<g>
			<path fill="#010101" d="M273.88-286.624c-1.919,0-3.533-0.472-4.799-1.401c-1.033-0.763-2.258-2.225-2.258-4.875v-1.481
				c0-1.368,0.349-2.563,1.037-3.551c0.691-0.983,1.622-1.706,2.771-2.154c0.977-0.38,2.069-0.572,3.249-0.572
				c1.186,0,2.278,0.193,3.246,0.576c1.133,0.442,2.06,1.154,2.745,2.114c0.708,0.991,1.067,2.189,1.067,3.562v1.532
				c0,2.632-1.235,4.091-2.271,4.851C277.415-287.097,275.801-286.624,273.88-286.624z"/>
			<path fill="#010101" d="M273.88-298.159c0.875,0,1.65,0.134,2.328,0.401c0.686,0.268,1.229,0.682,1.629,1.242
				s0.602,1.264,0.602,2.108v1.532c0,1.279-0.418,2.225-1.25,2.835c-0.826,0.611-1.928,0.916-3.309,0.916
				c-1.379,0-2.486-0.305-3.318-0.916c-0.826-0.61-1.238-1.564-1.238-2.86v-1.481c0-0.854,0.197-1.561,0.588-2.121
				c0.4-0.569,0.943-0.987,1.629-1.255C272.228-298.025,273.007-298.159,273.88-298.159 M273.88-291.57
				c0.385,0,0.688-0.092,0.908-0.276c0.227-0.192,0.342-0.46,0.342-0.804v-1.982c0-0.343-0.115-0.606-0.342-0.791
				c-0.221-0.191-0.523-0.288-0.908-0.288c-0.383,0-0.689,0.092-0.918,0.276c-0.221,0.184-0.33,0.447-0.33,0.791v2.007
				c0,0.343,0.109,0.606,0.33,0.791C273.191-291.662,273.498-291.57,273.88-291.57 M273.88-303.159c-1.491,0-2.889,0.25-4.153,0.742
				c-1.597,0.623-2.945,1.673-3.905,3.038c-0.998,1.432-1.498,3.107-1.498,4.997v1.481c0,2.881,1.16,5.325,3.268,6.882
				c1.714,1.26,3.826,1.895,6.289,1.895c2.468,0,4.582-0.638,6.283-1.896c2.106-1.546,3.275-3.984,3.275-6.854v-1.532
				c0-1.877-0.53-3.61-1.533-5.015c-0.958-1.342-2.3-2.377-3.879-2.994C276.783-302.906,275.382-303.159,273.88-303.159
				L273.88-303.159z"/>
		</g>
		<g>
			<path fill="#010101" d="M254.113-275.544c-0.533,0-1.045-0.133-1.493-0.38c-0.431,0.25-0.91,0.38-1.409,0.38h-2.525
				c-0.754,0-1.464-0.296-2-0.832c-0.545-0.561-0.83-1.263-0.83-2.005v-8.048c0-0.742,0.285-1.444,0.804-1.979
				c0.563-0.563,1.272-0.858,2.026-0.858h2.525c0.469,0,0.92,0.114,1.324,0.329c0.425-0.216,0.898-0.329,1.395-0.329h2.953
				c0.75,0,1.462,0.306,1.978,0.846c0.506,0.514,0.792,1.207,0.792,1.929c0,0.642-0.225,1.268-0.633,1.763l-1.641,2.036l2.088,2.673
				c0.053,0.067,0.102,0.138,0.147,0.21c0.281,0.45,0.431,0.966,0.431,1.491c0,0.731-0.285,1.425-0.804,1.952
				c-0.551,0.542-1.238,0.822-1.966,0.822H254.113z"/>
			<path fill="#010101" d="M256.882-286.766c0.072,0,0.135,0.029,0.184,0.087c0.057,0.051,0.086,0.113,0.086,0.188
				c0,0.066-0.021,0.124-0.063,0.174l-2.902,3.601l3.309,4.236c0.031,0.05,0.049,0.104,0.049,0.162c0,0.075-0.029,0.142-0.086,0.199
				c-0.051,0.05-0.111,0.075-0.184,0.075h-3.162c-0.188,0-0.334-0.066-0.441-0.199l-2.131-2.68v2.542
				c0,0.092-0.033,0.171-0.098,0.237c-0.066,0.066-0.143,0.1-0.232,0.1h-2.525c-0.09,0-0.166-0.033-0.232-0.1
				c-0.064-0.066-0.098-0.146-0.098-0.237v-8.048c0-0.092,0.033-0.171,0.098-0.237c0.066-0.066,0.143-0.1,0.232-0.1h2.525
				c0.09,0,0.166,0.033,0.232,0.1c0.064,0.066,0.098,0.146,0.098,0.237v2.342l1.936-2.467c0.123-0.142,0.273-0.212,0.453-0.212
				H256.882 M256.882-291.766h-2.953c-0.467,0-0.928,0.059-1.372,0.171c-0.435-0.112-0.886-0.171-1.347-0.171h-2.525
				c-1.422,0-2.76,0.556-3.769,1.564c-0.018,0.018-0.034,0.035-0.052,0.053c-0.974,1.003-1.51,2.324-1.51,3.72v8.048
				c0,1.396,0.536,2.717,1.51,3.72c0.018,0.018,0.034,0.035,0.052,0.053c1.009,1.009,2.347,1.564,3.769,1.564h2.525
				c0.49,0,0.971-0.066,1.432-0.194c0.474,0.128,0.967,0.194,1.471,0.194h3.162c1.387,0,2.695-0.535,3.686-1.506
				c0.021-0.021,0.043-0.043,0.063-0.064c0.98-0.997,1.521-2.313,1.521-3.704c0-0.996-0.281-1.972-0.813-2.82
				c-0.091-0.145-0.189-0.284-0.295-0.419l-0.866-1.11l0.406-0.504c0.759-0.937,1.176-2.113,1.176-3.319
				c0-1.371-0.54-2.688-1.492-3.665C259.673-291.183,258.314-291.766,256.882-291.766L256.882-291.766z"/>
		</g>
		<g>
			<path fill="#010101" d="M259.07-275.544c-0.77,0-1.489-0.305-2.026-0.858c-0.509-0.509-0.804-1.221-0.804-1.979v-8.048
				c0-0.758,0.295-1.47,0.83-2.005c0.511-0.527,1.23-0.832,2-0.832h7.621c0.753,0,1.464,0.296,2,0.832
				c0.545,0.561,0.83,1.263,0.83,2.005v1.756c0,0.676-0.238,1.321-0.674,1.835v0.73c0.522,0.555,0.797,1.243,0.797,1.97v1.757
				c0,0.742-0.285,1.444-0.804,1.979c-0.563,0.563-1.273,0.858-2.028,0.858H259.07z"/>
			<path fill="#010101" d="M266.691-286.766c0.09,0,0.166,0.033,0.232,0.1c0.064,0.066,0.098,0.146,0.098,0.237v1.756
				c0,0.092-0.033,0.17-0.098,0.237c-0.066,0.066-0.143,0.1-0.232,0.1h-4.766v0.784h4.092c0.09,0,0.166,0.033,0.232,0.101
				c0.064,0.066,0.098,0.146,0.098,0.236v1.62c0,0.091-0.033,0.17-0.098,0.236c-0.066,0.066-0.143,0.1-0.232,0.1h-4.092v0.785h4.887
				c0.092,0,0.168,0.033,0.234,0.1c0.064,0.066,0.098,0.145,0.098,0.236v1.757c0,0.092-0.033,0.171-0.098,0.237
				c-0.066,0.066-0.143,0.1-0.234,0.1h-7.742c-0.09,0-0.168-0.033-0.232-0.1c-0.066-0.066-0.098-0.146-0.098-0.237v-8.048
				c0-0.092,0.031-0.171,0.098-0.237c0.064-0.066,0.143-0.1,0.232-0.1H266.691 M266.691-291.766h-7.621
				c-1.438,0-2.783,0.563-3.792,1.588c-0.992,1.005-1.538,2.335-1.538,3.749v8.048c0,1.414,0.546,2.744,1.538,3.749
				c1.009,1.024,2.354,1.588,3.792,1.588h7.742c1.423,0,2.762-0.556,3.77-1.564c0.018-0.018,0.035-0.035,0.053-0.053
				c0.974-1.003,1.51-2.324,1.51-3.72v-1.757c0-0.845-0.196-1.662-0.568-2.398c0.292-0.667,0.445-1.392,0.445-2.137v-1.756
				c0-1.396-0.536-2.717-1.51-3.72c-0.018-0.018-0.034-0.035-0.052-0.053C269.451-291.21,268.113-291.766,266.691-291.766
				L266.691-291.766z"/>
		</g>
		<g>
			<path fill="#010101" d="M251.334-263.022c-3.793,0-6.992-1.212-9.25-3.504c-5.785-5.869-4.124-17.546,3.944-28.817
				c-0.013-0.109-0.02-0.22-0.02-0.331v-2.021c0-0.751,0.29-1.458,0.816-1.993c0.55-0.55,1.261-0.845,2.014-0.845h1.405
				c0.421-0.46,0.853-0.916,1.289-1.362c0.389-0.398,0.785-0.791,1.187-1.179c-0.748-0.339-1.563-0.52-2.396-0.52
				c-1.381,0-2.5-1.119-2.5-2.5s1.119-2.5,2.5-2.5c3.276,0,5.941-2.736,5.941-6.1c0-1.381,1.119-2.5,2.5-2.5s2.5,1.119,2.5,2.5
				c0,1.488,0.529,2.904,1.461,4.003c5.023-2.895,10.072-4.473,14.375-4.473c3.793,0,6.992,1.212,9.251,3.504
				c6.293,6.385,3.633,19.734-6.089,31.614c0,0,0.094,0.125,0.129,0.177c0.307,0.46,0.469,0.995,0.469,1.549
				c0,0.731-0.285,1.425-0.803,1.952c-0.52,0.529-1.219,0.822-1.967,0.822h-1.933c-0.398,0.394-0.802,0.78-1.21,1.159
				c1.041,0.302,1.803,1.263,1.803,2.401c0,1.381-1.119,2.5-2.5,2.5c-1.879,0-3.408,1.577-3.408,3.515c0,1.38-1.118,2.499-2.499,2.5
				h-0.001c-1.38,0-2.499-1.117-2.5-2.497c-0.001-0.504-0.104-0.991-0.297-1.436C260.575-264.566,255.593-263.022,251.334-263.022z
				 M249.137-288.629c-3.549,6.669-4.144,13.077-1.134,16.131c1.266,1.285,3.095,1.937,5.433,1.937c1.947,0,4.177-0.476,6.498-1.368
				c-0.001-0.018-0.001-0.036-0.001-0.054c0-1.381,1.119-2.5,2.5-2.5c1.878,0,3.408-1.578,3.41-3.519
				c0.001-0.737,0.32-1.398,0.828-1.855v-6.571c0-0.757,0.295-1.469,0.832-2.005c0.511-0.527,1.23-0.832,2-0.832h2.523
				c0.471,0,0.922,0.114,1.325,0.329c0.426-0.216,0.898-0.329,1.396-0.329h2.951c0.454,0,0.895,0.112,1.286,0.321
				c3.968-6.958,4.844-13.855,1.672-17.073c-1.267-1.286-3.095-1.938-5.435-1.938c-1.71,0-3.634,0.365-5.646,1.058
				c0.086,0.252,0.133,0.523,0.133,0.805c0,1.381-1.119,2.5-2.5,2.5c-3.277,0-5.943,2.736-5.943,6.1
				c0,0.887-0.461,1.665-1.157,2.109c-0.065,0.648-0.349,1.249-0.815,1.716c-0.499,0.523-1.224,0.833-2,0.833h-0.133v3.248
				c0,0.757-0.296,1.47-0.832,2.006c-0.512,0.527-1.231,0.833-2,0.833h-2.523c-0.769,0-1.488-0.306-2.026-0.859
				C249.492-287.893,249.274-288.243,249.137-288.629z"/>
			<path fill="#010101" d="M258.765-314.693c0,2.947,1.457,5.547,3.676,7.097c5.186-3.286,10.363-5.066,14.66-5.066
				c3.032,0,5.626,0.888,7.471,2.759c5.66,5.743,2.248,18.708-7.533,29.793l1.273,1.63c0.033,0.05,0.049,0.104,0.049,0.162
				c0,0.075-0.029,0.142-0.086,0.199c-0.049,0.05-0.109,0.075-0.184,0.075h-2.971c-0.002,0.002-0.004,0.005-0.008,0.008
				c-1.586,1.622-3.227,3.103-4.895,4.432c1.057,1.005,2.475,1.621,4.033,1.621c-3.262,0-5.908,2.692-5.908,6.015
				c-0.002-1.901-0.871-3.597-2.225-4.698c-5.227,3.336-10.454,5.146-14.784,5.146c-3.033,0-5.626-0.888-7.47-2.759
				c-5.199-5.275-2.744-16.646,5.271-27.055h-0.297c-0.09,0-0.166-0.033-0.232-0.101c-0.064-0.066-0.098-0.146-0.098-0.238v-2.021
				c0-0.092,0.031-0.171,0.098-0.238c0.066-0.066,0.143-0.1,0.232-0.1h2.521c0.627-0.714,1.281-1.42,1.961-2.115
				c1.072-1.097,2.17-2.127,3.283-3.091c-1.545-1.752-3.787-2.854-6.281-2.854C254.986-306.093,258.765-309.943,258.765-314.693
				 M258.765-297.494c0-1.84-0.568-3.543-1.533-4.94c-1.043,0.888-2.066,1.843-3.064,2.863c-0.496,0.506-0.975,1.02-1.438,1.538
				h4.563c0.09,0,0.168,0.033,0.232,0.1c0.066,0.067,0.098,0.146,0.098,0.238v2.021c0,0.093-0.031,0.172-0.098,0.238
				c-0.064,0.067-0.143,0.101-0.232,0.101h-2.633v5.748c0,0.092-0.033,0.172-0.1,0.238c-0.064,0.066-0.143,0.101-0.232,0.101h-2.523
				c-0.09,0-0.168-0.034-0.232-0.101c-0.066-0.066-0.098-0.146-0.098-0.238v-5.748h-0.977c-7.119,9.322-9.135,19.66-4.275,24.592
				c1.793,1.818,4.302,2.682,7.215,2.682c3.412,0,7.377-1.186,11.385-3.408c-0.73-0.329-1.539-0.514-2.389-0.514
				c3.262,0,5.906-2.693,5.91-6.016c0,1.308,0.412,2.517,1.107,3.504c1.613-1.221,3.201-2.602,4.73-4.137l-1.822-2.291v2.542
				c0,0.092-0.033,0.171-0.1,0.237c-0.064,0.066-0.143,0.1-0.232,0.1h-2.523c-0.09,0-0.168-0.033-0.232-0.1
				c-0.066-0.066-0.1-0.146-0.1-0.237v-8.048c0-0.092,0.033-0.171,0.1-0.237c0.064-0.066,0.143-0.1,0.232-0.1h2.523
				c0.09,0,0.168,0.033,0.232,0.1c0.066,0.066,0.1,0.146,0.1,0.237v2.342l1.934-2.467c0.123-0.142,0.275-0.212,0.455-0.212h2.951
				c0.074,0,0.135,0.029,0.184,0.087c0.059,0.051,0.088,0.113,0.088,0.188c0,0.066-0.021,0.124-0.063,0.174l-2.904,3.601
				l1.359,1.741c8.555-9.847,11.322-21.474,6.074-26.797c-1.792-1.819-4.302-2.683-7.215-2.683c-3.479,0-7.531,1.231-11.621,3.539
				c1.096,0.526,2.316,0.823,3.607,0.823C262.546-306.093,258.765-302.244,258.765-297.494 M258.765-319.693c-2.762,0-5,2.238-5,5
				c0,1.984-1.544,3.6-3.441,3.6c-2.762,0-5,2.238-5,5c0,1.357,0.541,2.588,1.419,3.489c-0.616,0.264-1.183,0.646-1.671,1.136
				c-1.017,1.031-1.563,2.362-1.563,3.773v1.583c-8.503,12.229-9.85,24.6-3.206,31.341c2.739,2.779,6.554,4.249,11.031,4.249
				c3.901,0,8.17-1.09,12.55-3.183c0.826,1.623,2.514,2.735,4.459,2.735c0.001,0,0.002,0,0.003,0c2.76-0.001,4.997-2.239,4.997-5
				c0-0.56,0.407-1.015,0.908-1.015c2.762,0,5-2.238,5-5c0-0.399-0.047-0.787-0.135-1.159c1.031-0.202,1.976-0.709,2.729-1.476
				c0.976-0.993,1.516-2.309,1.516-3.7c0-0.468-0.061-0.928-0.18-1.372c9.877-12.726,12.042-26.528,4.952-33.723
				c-2.74-2.779-6.556-4.249-11.032-4.249c-4.119,0-8.651,1.216-13.292,3.546c-0.029-0.189-0.044-0.382-0.044-0.576
				C263.765-317.455,261.527-319.693,258.765-319.693L258.765-319.693z M272.098-305.043c1.11-0.271,2.161-0.412,3.124-0.412
				c1.645,0,2.874,0.401,3.652,1.191c1.945,1.973,1.613,6.897-1.194,12.498h-2.933c-0.467,0-0.928,0.059-1.372,0.171
				c-0.435-0.112-0.887-0.171-1.349-0.171h-2.523c-1.442,0-2.791,0.567-3.801,1.598c-0.988,1.004-1.531,2.33-1.531,3.739v5.673
				c-0.522,0.788-0.827,1.734-0.828,2.751c-0.001,0.563-0.409,1.021-0.91,1.021c-2.114,0-3.922,1.312-4.652,3.166
				c-1.563,0.496-3.038,0.756-4.344,0.756c-1.646,0-2.875-0.4-3.654-1.191c-1.633-1.657-1.703-5.561,0.199-10.313
				c0.575,0.209,1.189,0.318,1.822,0.318h2.523c1.438,0,2.782-0.564,3.792-1.589c0.993-1.006,1.54-2.336,1.54-3.75v-1.3
				c0.527-0.263,1.014-0.616,1.439-1.052c0.585-0.598,1.014-1.309,1.265-2.083c0.868-0.899,1.401-2.123,1.401-3.472
				c0-1.984,1.545-3.6,3.443-3.6C269.61-301.093,271.616-302.786,272.098-305.043L272.098-305.043z"/>
		</g>
	</g>
	<polygon display="inline" fill="#010101" stroke="#010101" stroke-width="5" stroke-miterlimit="10" points="259.425,-304.076 
		275.82,-309.355 283.535,-305.433 284.566,-299.259 281.962,-288.875 277.595,-281.983 270.283,-275.224 261.292,-269.871 
		253.037,-266.869 246.603,-267.916 242.382,-274.113 243.417,-282.471 245.904,-289.803 251.396,-296.964 	"/>
	
		<polyline display="inline" fill="#FDB925" stroke="#010101" stroke-width="5" stroke-linecap="round" stroke-linejoin="round" stroke-miterlimit="10" points="
		256.912,-301.373 256.88,-301.317 255.468,-298.702 257.416,-298.232 	"/>
	<g display="inline">
		<path fill="#FDB925" d="M258.765-314.693c0,4.75-3.779,8.6-8.441,8.6c4.662,0,8.441,3.85,8.441,8.6c0-4.75,3.781-8.6,8.443-8.6
			C262.546-306.093,258.765-309.943,258.765-314.693z"/>
	</g>
	<g display="inline">
		<path fill="#FDB925" d="M262.433-271.984c3.262,0,5.906,2.692,5.91,6.015c0-3.322,2.646-6.015,5.908-6.015
			c-3.262,0-5.908-2.693-5.908-6.016C268.339-274.677,265.695-271.984,262.433-271.984z"/>
	</g>
	<path display="inline" fill="#FDB925" d="M284.572-309.904c-6.018-6.106-20.01-1.738-31.25,9.756s-15.475,25.762-9.457,31.867
		s20.008,1.737,31.248-9.756C286.355-289.531,290.589-303.798,284.572-309.904z M274.494-278.947
		c-10,10.227-22.658,13.898-28.271,8.203s-2.057-18.602,7.945-28.827c10-10.226,22.656-13.898,28.27-8.202
		C288.05-302.079,284.494-289.171,274.494-278.947z"/>
	<path display="inline" fill="#7D6AAF" d="M257.292-298.033c0.09,0,0.168,0.033,0.232,0.1c0.066,0.067,0.098,0.146,0.098,0.238
		v2.021c0,0.093-0.031,0.172-0.098,0.238c-0.064,0.067-0.143,0.101-0.232,0.101h-2.633v5.748c0,0.092-0.033,0.172-0.1,0.238
		c-0.064,0.066-0.143,0.101-0.232,0.101h-2.523c-0.09,0-0.168-0.034-0.232-0.101c-0.066-0.066-0.098-0.146-0.098-0.238v-5.748
		h-2.635c-0.09,0-0.166-0.033-0.232-0.101c-0.064-0.066-0.098-0.146-0.098-0.238v-2.021c0-0.092,0.031-0.171,0.098-0.238
		c0.066-0.066,0.143-0.1,0.232-0.1H257.292z"/>
	<path display="inline" fill="#7D6AAF" d="M268.031-292.875c0,1.279-0.416,2.225-1.25,2.835c-0.824,0.611-1.928,0.916-3.307,0.916
		c-1.381,0-2.486-0.305-3.32-0.916c-0.824-0.61-1.236-1.564-1.236-2.86v-1.481c0-0.854,0.195-1.561,0.588-2.121
		c0.4-0.569,0.943-0.987,1.629-1.255s1.465-0.401,2.34-0.401c0.873,0,1.648,0.134,2.326,0.401c0.688,0.268,1.23,0.682,1.631,1.242
		s0.6,1.264,0.6,2.108V-292.875L268.031-292.875z M262.224-292.637c0,0.343,0.111,0.606,0.33,0.791
		c0.229,0.185,0.535,0.276,0.92,0.276c0.383,0,0.686-0.092,0.906-0.276c0.229-0.192,0.342-0.46,0.342-0.804v-1.982
		c0-0.343-0.113-0.606-0.342-0.791c-0.221-0.191-0.523-0.288-0.906-0.288c-0.385,0-0.691,0.092-0.92,0.276
		c-0.219,0.184-0.33,0.447-0.33,0.791V-292.637z"/>
	<path display="inline" fill="#7D6AAF" d="M278.439-292.875c0,1.279-0.418,2.225-1.25,2.835c-0.826,0.611-1.928,0.916-3.309,0.916
		c-1.379,0-2.486-0.305-3.318-0.916c-0.826-0.61-1.238-1.564-1.238-2.86v-1.481c0-0.854,0.197-1.561,0.588-2.121
		c0.4-0.569,0.943-0.987,1.629-1.255c0.688-0.268,1.467-0.401,2.34-0.401c0.875,0,1.65,0.134,2.328,0.401
		c0.686,0.268,1.229,0.682,1.629,1.242s0.602,1.264,0.602,2.108V-292.875z M272.632-292.637c0,0.343,0.109,0.606,0.33,0.791
		c0.229,0.185,0.535,0.276,0.918,0.276c0.385,0,0.688-0.092,0.908-0.276c0.227-0.192,0.342-0.46,0.342-0.804v-1.982
		c0-0.343-0.115-0.606-0.342-0.791c-0.221-0.191-0.523-0.288-0.908-0.288c-0.383,0-0.689,0.092-0.918,0.276
		c-0.221,0.184-0.33,0.447-0.33,0.791V-292.637z"/>
	<path display="inline" fill="#FFFFFF" d="M257.496-278.481c0.031,0.05,0.049,0.104,0.049,0.162c0,0.075-0.029,0.142-0.086,0.199
		c-0.051,0.05-0.111,0.075-0.184,0.075h-3.162c-0.188,0-0.334-0.066-0.441-0.199l-2.131-2.68v2.542c0,0.092-0.033,0.171-0.098,0.237
		c-0.066,0.066-0.143,0.1-0.232,0.1h-2.525c-0.09,0-0.166-0.033-0.232-0.1c-0.064-0.066-0.098-0.146-0.098-0.237v-8.048
		c0-0.092,0.033-0.171,0.098-0.237c0.066-0.066,0.143-0.1,0.232-0.1h2.525c0.09,0,0.166,0.033,0.232,0.1
		c0.064,0.066,0.098,0.146,0.098,0.237v2.342l1.936-2.467c0.123-0.142,0.273-0.212,0.453-0.212h2.953
		c0.072,0,0.135,0.029,0.184,0.087c0.057,0.051,0.086,0.113,0.086,0.188c0,0.066-0.021,0.124-0.063,0.174l-2.902,3.601
		L257.496-278.481z"/>
	<path display="inline" fill="#FFFFFF" d="M266.812-280.474c0.092,0,0.168,0.033,0.234,0.1c0.064,0.066,0.098,0.145,0.098,0.236
		v1.757c0,0.092-0.033,0.171-0.098,0.237c-0.066,0.066-0.143,0.1-0.234,0.1h-7.742c-0.09,0-0.168-0.033-0.232-0.1
		c-0.066-0.066-0.098-0.146-0.098-0.237v-8.048c0-0.092,0.031-0.171,0.098-0.237c0.064-0.066,0.143-0.1,0.232-0.1h7.621
		c0.09,0,0.166,0.033,0.232,0.1c0.064,0.066,0.098,0.146,0.098,0.237v1.756c0,0.092-0.033,0.17-0.098,0.237
		c-0.066,0.066-0.143,0.1-0.232,0.1h-4.766v0.784h4.092c0.09,0,0.166,0.033,0.232,0.101c0.064,0.066,0.098,0.146,0.098,0.236v1.62
		c0,0.091-0.033,0.17-0.098,0.236c-0.066,0.066-0.143,0.1-0.232,0.1h-4.092v0.785H266.812L266.812-280.474z"/>
	<path display="inline" fill="#FFFFFF" d="M278.312-278.481c0.033,0.05,0.049,0.104,0.049,0.162c0,0.075-0.029,0.142-0.086,0.199
		c-0.049,0.05-0.109,0.075-0.184,0.075h-3.16c-0.188,0-0.336-0.066-0.441-0.199l-2.131-2.68v2.542c0,0.092-0.033,0.171-0.1,0.237
		c-0.064,0.066-0.143,0.1-0.232,0.1h-2.523c-0.09,0-0.168-0.033-0.232-0.1c-0.066-0.066-0.1-0.146-0.1-0.237v-8.048
		c0-0.092,0.033-0.171,0.1-0.237c0.064-0.066,0.143-0.1,0.232-0.1h2.523c0.09,0,0.168,0.033,0.232,0.1
		c0.066,0.066,0.1,0.146,0.1,0.237v2.342l1.934-2.467c0.123-0.142,0.275-0.212,0.455-0.212h2.951c0.074,0,0.135,0.029,0.184,0.087
		c0.059,0.051,0.088,0.113,0.088,0.188c0,0.066-0.021,0.124-0.063,0.174l-2.904,3.601L278.312-278.481z"/>
</g>
<g id="Layer_3">
	<path fill="#472A72" d="M3.15,23.845c0,0,0.25,13.145,15.75,14.25c15.5,1.105,15.11,9.562,25.125,12.687s46.938,18.184,57.938,13.5
		c11-4.683,14.188-12.188,18.438-15.188s8.625,9.813,18.375,15.188c10.452-5.058,42.935-6.813,52.875-6.188
		c17.625-16,37.688-16.75,43.938-28.25C223.712,29.012,19.9,10.22,3.15,23.845z"/>
	<path fill="#010101" stroke="#010101" stroke-width="12" stroke-miterlimit="10" d="M228.212,15.894
		c-3.115-2.628-203.613-2.076-213.65,0s-5.963,13.912,0,13.912s15.777,0,15.777,0S52.186,55.421,59.73,59.196
		c7.545,3.773,32.582,1.975,38.563,0c5.981-1.977,16.657-21.415,21.819-21.82s18.065,20.617,21.82,21.82
		c3.755,1.202,32.035,1.975,38.564,0c6.527-1.977,29.389-29.391,29.389-29.391s15.514-0.415,18.326,0S231.328,18.522,228.212,15.894
		z"/>
	<path fill="#FECE30" d="M228.212,15.894c-3.115-2.628-203.613-2.076-213.65,0s-5.963,13.912,0,13.912s15.777,0,15.777,0
		S52.186,55.421,59.73,59.196c7.545,3.773,32.582,1.975,38.563,0c5.981-1.977,16.657-21.415,21.819-21.82s18.065,20.617,21.82,21.82
		c3.755,1.202,32.035,1.975,38.564,0c6.527-1.977,29.389-29.391,29.389-29.391s15.514-0.415,18.326,0S231.328,18.522,228.212,15.894
		z"/>
	<g>
		<path fill="#010101" d="M132.217,29.806c-3.316,3.665,10.789,15.059,17.299,17.299s23.384,3.99,29.759,1.865
			s14.375-14.579,10.938-19.164S135.533,26.141,132.217,29.806z"/>
	</g>
	<g>
		<path fill="#010101" d="M107.479,29.525c3.289,3.69-10.904,14.974-17.432,17.164c-6.527,2.191-23.415,3.811-29.773,1.637
			c-6.358-2.175-14.262-14.69-10.789-19.25C52.958,24.517,104.191,25.834,107.479,29.525z"/>
	</g>
	<path fill="#E27A3B" d="M14.563,15.894c-6.109,1.264-6.985,6.141-5.396,9.766c9.713-0.722,24.247-1.694,45.952-2.999
		c73.906-4.441,117.818-0.178,132.488-1.81c7.557-0.841,9.498-3.699,6.197-6.375C135.293,13.646,22.042,14.347,14.563,15.894z"/>
	<g>
		<path fill="#FDF3AB" d="M44.275,37.763C35.65,27.181,32.65,30.22,30.34,29.806c0,0,21.846,25.615,29.391,29.391
			c2.282,1.142,6.17,1.771,10.643,2.042C60.49,55.626,50.252,45.097,44.275,37.763z"/>
		<path fill="#FDF3AB" d="M125.775,33.72c-3.07-2.069-4.5,0.673-5.168,3.679c5.448,0.838,17.686,20.631,21.326,21.797
			c2.862,0.916,19.968,1.582,30.833,0.973c-6.864-1.934-21.718-3.35-25.479-4.199C142.301,54.845,131.525,37.595,125.775,33.72z"/>
	</g>
	<path fill="#FAF7ED" d="M49.736,36.692c0.835,2.016,2.084,4.096,3.541,5.948l13.951-16.363c-1.835,0.058-3.597,0.14-5.256,0.247
		L49.736,36.692z"/>
	<path fill="#FAF7ED" d="M63.944,49.078l9.587-22.905c-1.501,0.004-2.982,0.022-4.432,0.055L56.48,46.011
		c1.26,1.072,2.555,1.891,3.793,2.314C61.267,48.665,62.517,48.911,63.944,49.078z"/>
	<path fill="#FAF7ED" d="M154.449,26.853c-1.922,0.064-3.802,0.148-5.605,0.252l-12.891,10.711c1.561,1.551,3.408,3.11,5.301,4.511
		L154.449,26.853z"/>
	<path fill="#FAF7ED" d="M156.537,26.791L145.01,44.862c1.667,1.012,3.232,1.805,4.506,2.242c0.794,0.273,1.744,0.539,2.809,0.791
		l8.867-21.184C159.634,26.725,158.077,26.752,156.537,26.791z"/>
	<g>
		<path fill="none" stroke="#010101" stroke-width="6" stroke-miterlimit="10" d="M190.212,29.806
			c-3.438-4.585-54.679-3.665-57.996,0s10.789,15.059,17.299,17.299s23.384,3.99,29.759,1.865S193.65,34.391,190.212,29.806z"/>
		<path fill="none" stroke="#010101" stroke-width="6" stroke-miterlimit="10" d="M49.484,29.076
			c-3.473,4.559,4.431,17.075,10.789,19.25c6.358,2.174,23.246,0.555,29.773-1.637c6.527-2.189,20.721-13.474,17.432-17.164
			C104.191,25.834,52.958,24.517,49.484,29.076z"/>
	</g>
</g>
</svg>
